%TF.GenerationSoftware,KiCad,Pcbnew,10.0.5*%
%TF.CreationDate,2026-09-09T18:00:21+01:00*%
%TF.ProjectId,mousekeyboard,6d6f7573-656b-4657-9962-6f6172642e6b,rev?*%
%TF.SameCoordinates,Original*%
%TF.FileFunction,Copper,L1,Top*%
%TF.FilePolarity,Positive*%
%FSLAX46Y46*%
G04 Gerber Fmt 4.6, Leading zero omitted, Abs format (unit mm)*
G04 Created by KiCad (PCBNEW 10.0.5) date 2026-09-09 18:00:21*
%MOMM*%
%LPD*%
G01*
G04 APERTURE LIST*
G04 Aperture macros list*
%AMRoundRect*
0 Rectangle with rounded corners*
0 $1 Rounding radius*
0 $2 $3 $4 $5 $6 $7 $8 $9 X,Y pos of 4 corners*
0 Add a 4 corners polygon primitive as box body*
4,1,4,$2,$3,$4,$5,$6,$7,$8,$9,$2,$3,0*
0 Add four circle primitives for the rounded corners*
1,1,$1+$1,$2,$3*
1,1,$1+$1,$4,$5*
1,1,$1+$1,$6,$7*
1,1,$1+$1,$8,$9*
0 Add four rect primitives between the rounded corners*
20,1,$1+$1,$2,$3,$4,$5,0*
20,1,$1+$1,$4,$5,$6,$7,0*
20,1,$1+$1,$6,$7,$8,$9,0*
20,1,$1+$1,$8,$9,$2,$3,0*%
G04 Aperture macros list end*
%TA.AperFunction,ComponentPad*%
%ADD10C,5.600000*%
%TD*%
%TA.AperFunction,ComponentPad*%
%ADD11C,2.200000*%
%TD*%
%TA.AperFunction,ComponentPad*%
%ADD12R,2.000000X2.000000*%
%TD*%
%TA.AperFunction,ComponentPad*%
%ADD13C,2.000000*%
%TD*%
%TA.AperFunction,ComponentPad*%
%ADD14R,3.200000X2.000000*%
%TD*%
%TA.AperFunction,ComponentPad*%
%ADD15R,3.500000X1.700000*%
%TD*%
%TA.AperFunction,ComponentPad*%
%ADD16O,3.600000X1.700000*%
%TD*%
%TA.AperFunction,ComponentPad*%
%ADD17O,3.700000X1.700000*%
%TD*%
%TA.AperFunction,ComponentPad*%
%ADD18RoundRect,0.170000X0.680000X-0.680000X0.680000X0.680000X-0.680000X0.680000X-0.680000X-0.680000X0*%
%TD*%
%TA.AperFunction,ComponentPad*%
%ADD19C,1.700000*%
%TD*%
%TA.AperFunction,ViaPad*%
%ADD20C,0.600000*%
%TD*%
%TA.AperFunction,Conductor*%
%ADD21C,0.200000*%
%TD*%
G04 APERTURE END LIST*
D10*
%TO.P,REF\u002A\u002A,1*%
%TO.N,N/C*%
X183000000Y-113500000D03*
%TD*%
D11*
%TO.P,SW3,1,1_1*%
%TO.N,Net-(U1-PA7_A8_D8_SCK)*%
X154505555Y-93960000D03*
%TO.P,SW3,2,2_2*%
%TO.N,GND*%
X148155555Y-96500000D03*
%TD*%
D10*
%TO.P,REF\u002A\u002A,1*%
%TO.N,N/C*%
X139232233Y-82000000D03*
%TD*%
%TO.P,REF\u002A\u002A,1*%
%TO.N,N/C*%
X95500000Y-56535534D03*
%TD*%
%TO.P,REF\u002A\u002A,1*%
%TO.N,N/C*%
X95500000Y-113464466D03*
%TD*%
D11*
%TO.P,SW2,1,1_1*%
%TO.N,Net-(U1-PA5_A9_D9_MISO)*%
X130350000Y-93960000D03*
%TO.P,SW2,2,2_2*%
%TO.N,GND*%
X124000000Y-96500000D03*
%TD*%
D12*
%TO.P,SW5,A,A_A*%
%TO.N,Net-(U1-PA02_A0_D0)*%
X168750000Y-68000000D03*
D13*
%TO.P,SW5,B,B_B*%
%TO.N,Net-(U1-PA4_A1_D1)*%
X168750000Y-73000000D03*
%TO.P,SW5,C,C_C*%
%TO.N,GND*%
X168750000Y-70500000D03*
D14*
%TO.P,SW5,MP,MP_MP*%
X176250000Y-64900000D03*
X176250000Y-76100000D03*
D13*
%TO.P,SW5,S1,S1_S1*%
X183250000Y-73000000D03*
%TO.P,SW5,S2,S2_S2*%
%TO.N,/re s2*%
X183250000Y-68000000D03*
%TD*%
D15*
%TO.P,U1,1,PA02_A0_D0_1*%
%TO.N,Net-(U1-PA02_A0_D0)*%
X99750000Y-63000000D03*
D16*
%TO.P,U1,2,PA4_A1_D1_2*%
%TO.N,Net-(U1-PA4_A1_D1)*%
X99750000Y-65540000D03*
%TO.P,U1,3,PA10_A2_D2_3*%
%TO.N,/re s2*%
X99750000Y-68080000D03*
%TO.P,U1,4,PA11_A3_D3_4*%
%TO.N,unconnected-(U1-PA11_A3_D3-Pad4)*%
X99750000Y-70620000D03*
%TO.P,U1,5,PA8_A4_D4_SDA_5*%
%TO.N,Net-(U1-PA8_A4_D4_SDA)*%
X99750000Y-73160000D03*
%TO.P,U1,6,PA9_A5_D5_SCL_6*%
%TO.N,Net-(U1-PA9_A5_D5_SCL)*%
X99750000Y-75700000D03*
%TO.P,U1,7,PB08_A6_D6_TX_7*%
%TO.N,unconnected-(U1-PB08_A6_D6_TX-Pad7)*%
X99750000Y-78240000D03*
%TO.P,U1,8,PB09_A7_D7_RX_8*%
%TO.N,Net-(U1-PB09_A7_D7_RX)*%
X117000000Y-78240000D03*
%TO.P,U1,9,PA7_A8_D8_SCK_9*%
%TO.N,Net-(U1-PA7_A8_D8_SCK)*%
X117000000Y-75700000D03*
%TO.P,U1,10,PA5_A9_D9_MISO_10*%
%TO.N,Net-(U1-PA5_A9_D9_MISO)*%
X117000000Y-73160000D03*
D17*
%TO.P,U1,11,PA6_A10_D10_MOSI_11*%
%TO.N,Net-(U1-PA6_A10_D10_MOSI)*%
X117000000Y-70620000D03*
%TO.P,U1,12,3V3_12*%
%TO.N,+3.3V*%
X117000000Y-68080000D03*
%TO.P,U1,13,GND_13*%
%TO.N,GND*%
X117000000Y-65540000D03*
%TO.P,U1,14,5V_14*%
%TO.N,unconnected-(U1-5V-Pad14)*%
X117000000Y-63000000D03*
%TD*%
D11*
%TO.P,SW1,1,1_1*%
%TO.N,Net-(U1-PA6_A10_D10_MOSI)*%
X106194444Y-93960000D03*
%TO.P,SW1,2,2_2*%
%TO.N,GND*%
X99844444Y-96500000D03*
%TD*%
D18*
%TO.P,U2,1,GND_1*%
%TO.N,GND*%
X126000000Y-74310000D03*
D19*
%TO.P,U2,2,VCC_2*%
%TO.N,+3.3V*%
X126000000Y-71770000D03*
%TO.P,U2,3,SCL_3*%
%TO.N,Net-(U1-PA9_A5_D5_SCL)*%
X126000000Y-69230000D03*
%TO.P,U2,4,SDA_4*%
%TO.N,Net-(U1-PA8_A4_D4_SDA)*%
X126000000Y-66690000D03*
%TD*%
D10*
%TO.P,REF\u002A\u002A,1*%
%TO.N,N/C*%
X182964466Y-56500000D03*
%TD*%
D11*
%TO.P,SW4,1,1_1*%
%TO.N,Net-(U1-PB09_A7_D7_RX)*%
X178661111Y-93960000D03*
%TO.P,SW4,2,2_2*%
%TO.N,GND*%
X172311111Y-96500000D03*
%TD*%
D20*
%TO.N,Net-(U1-PA7_A8_D8_SCK)*%
X125500000Y-87500000D03*
X130500000Y-86500000D03*
%TO.N,GND*%
X121500000Y-66000000D03*
X124000000Y-77500000D03*
X124000000Y-92500000D03*
X120000000Y-65000000D03*
X151500000Y-95500000D03*
X175500000Y-95500000D03*
X121000000Y-67000000D03*
X121000000Y-72500000D03*
X103000000Y-95500000D03*
X127500000Y-95500000D03*
X121500000Y-66000000D03*
%TO.N,Net-(U1-PA02_A0_D0)*%
X94500000Y-61500000D03*
X165000000Y-66500000D03*
%TO.N,Net-(U1-PA4_A1_D1)*%
X94500000Y-64000000D03*
X165000000Y-71000000D03*
%TO.N,/re s2*%
X94500000Y-66500000D03*
X186000000Y-77500000D03*
X165500000Y-75000000D03*
%TO.N,Net-(U1-PA8_A4_D4_SDA)*%
X95000000Y-75000000D03*
X123000000Y-66000000D03*
%TO.N,Net-(U1-PA9_A5_D5_SCL)*%
X123000000Y-68500000D03*
X95000000Y-77500000D03*
%TO.N,Net-(U1-PB09_A7_D7_RX)*%
X127500000Y-88500000D03*
X152000000Y-87500000D03*
%TD*%
%TO.N,Net-(U1-PA7_A8_D8_SCK)*%
D21*
X124500000Y-86500000D02*
X122500000Y-86500000D01*
X122500000Y-86500000D02*
X120000000Y-84000000D01*
X120000000Y-84000000D02*
X120000000Y-76500000D01*
X154505555Y-93960000D02*
X147045555Y-86500000D01*
X120000000Y-76500000D02*
X119200000Y-75700000D01*
X125500000Y-87500000D02*
X124500000Y-86500000D01*
X119200000Y-75700000D02*
X116000000Y-75700000D01*
X147045555Y-86500000D02*
X130500000Y-86500000D01*
%TO.N,GND*%
X122810000Y-74310000D02*
X121000000Y-72500000D01*
X126000000Y-74310000D02*
X126000000Y-75500000D01*
X119500000Y-65500000D02*
X116040000Y-65500000D01*
X126000000Y-74310000D02*
X122810000Y-74310000D01*
X102000000Y-96500000D02*
X103000000Y-95500000D01*
X121000000Y-67000000D02*
X119500000Y-65500000D01*
X174500000Y-96500000D02*
X175500000Y-95500000D01*
X124000000Y-96500000D02*
X126500000Y-96500000D01*
X120500000Y-65000000D02*
X121500000Y-66000000D01*
X120000000Y-65000000D02*
X120500000Y-65000000D01*
X99844444Y-96500000D02*
X102000000Y-96500000D01*
X116040000Y-65500000D02*
X116000000Y-65540000D01*
X148155555Y-96500000D02*
X150500000Y-96500000D01*
X172311111Y-96500000D02*
X174500000Y-96500000D01*
X124000000Y-92500000D02*
X124000000Y-96500000D01*
X150500000Y-96500000D02*
X151500000Y-95500000D01*
X126000000Y-75500000D02*
X124000000Y-77500000D01*
X126500000Y-96500000D02*
X127500000Y-95500000D01*
%TO.N,Net-(U1-PA5_A9_D9_MISO)*%
X123000000Y-85500000D02*
X121000000Y-83500000D01*
X119660000Y-73160000D02*
X116000000Y-73160000D01*
X130350000Y-93960000D02*
X130350000Y-88850000D01*
X121000000Y-83500000D02*
X121000000Y-74500000D01*
X130350000Y-88850000D02*
X127000000Y-85500000D01*
X127000000Y-85500000D02*
X123000000Y-85500000D01*
X121000000Y-74500000D02*
X119660000Y-73160000D01*
%TO.N,Net-(U1-PA02_A0_D0)*%
X96000000Y-63000000D02*
X100750000Y-63000000D01*
X166500000Y-68000000D02*
X165000000Y-66500000D01*
X94500000Y-61500000D02*
X96000000Y-63000000D01*
X168750000Y-68000000D02*
X166500000Y-68000000D01*
%TO.N,Net-(U1-PA4_A1_D1)*%
X165000000Y-71500000D02*
X166500000Y-73000000D01*
X96040000Y-65540000D02*
X94500000Y-64000000D01*
X166500000Y-73000000D02*
X168750000Y-73000000D01*
X100750000Y-65540000D02*
X96040000Y-65540000D01*
X165000000Y-71000000D02*
X165000000Y-71500000D01*
%TO.N,/re s2*%
X169500000Y-79000000D02*
X165500000Y-75000000D01*
X184500000Y-79000000D02*
X169500000Y-79000000D01*
X186000000Y-77500000D02*
X184500000Y-79000000D01*
X94500000Y-66500000D02*
X96080000Y-68080000D01*
X96080000Y-68080000D02*
X100750000Y-68080000D01*
%TO.N,Net-(U1-PA8_A4_D4_SDA)*%
X96840000Y-73160000D02*
X95000000Y-75000000D01*
X123690000Y-66690000D02*
X126000000Y-66690000D01*
X100750000Y-73160000D02*
X96840000Y-73160000D01*
X123000000Y-66000000D02*
X123690000Y-66690000D01*
%TO.N,Net-(U1-PA9_A5_D5_SCL)*%
X96800000Y-75700000D02*
X100750000Y-75700000D01*
X95000000Y-77500000D02*
X96800000Y-75700000D01*
X123730000Y-69230000D02*
X123000000Y-68500000D01*
X126000000Y-69230000D02*
X123730000Y-69230000D01*
%TO.N,Net-(U1-PB09_A7_D7_RX)*%
X122500000Y-88500000D02*
X127500000Y-88500000D01*
X116000000Y-78240000D02*
X119000000Y-81240000D01*
X119000000Y-81240000D02*
X119000000Y-85000000D01*
X172201111Y-87500000D02*
X152000000Y-87500000D01*
X178661111Y-93960000D02*
X172201111Y-87500000D01*
X119000000Y-85000000D02*
X122500000Y-88500000D01*
%TO.N,Net-(U1-PA6_A10_D10_MOSI)*%
X106194444Y-93960000D02*
X106194444Y-80425556D01*
X106194444Y-80425556D02*
X116000000Y-70620000D01*
%TO.N,+3.3V*%
X116000000Y-68080000D02*
X120080000Y-68080000D01*
X120080000Y-68080000D02*
X123770000Y-71770000D01*
X123770000Y-71770000D02*
X126000000Y-71770000D01*
%TD*%
%TA.AperFunction,Conductor*%
%TO.N,GND*%
G36*
X183002702Y-52000617D02*
G01*
X183386773Y-52017386D01*
X183397505Y-52018326D01*
X183775963Y-52068150D01*
X183786601Y-52070025D01*
X184159279Y-52152647D01*
X184169720Y-52155445D01*
X184533765Y-52270227D01*
X184543911Y-52273920D01*
X184896578Y-52420000D01*
X184906369Y-52424566D01*
X185244942Y-52600816D01*
X185254310Y-52606224D01*
X185576244Y-52811318D01*
X185585105Y-52817523D01*
X185887930Y-53049889D01*
X185896217Y-53056843D01*
X186177635Y-53314715D01*
X186185284Y-53322364D01*
X186443156Y-53603782D01*
X186450110Y-53612069D01*
X186682476Y-53914894D01*
X186688681Y-53923755D01*
X186893775Y-54245689D01*
X186899183Y-54255057D01*
X187075430Y-54593623D01*
X187080002Y-54603427D01*
X187226075Y-54956078D01*
X187229775Y-54966244D01*
X187344553Y-55330276D01*
X187347353Y-55340724D01*
X187429972Y-55713390D01*
X187431850Y-55724044D01*
X187481671Y-56102472D01*
X187482614Y-56113248D01*
X187499382Y-56497297D01*
X187499500Y-56502706D01*
X187499500Y-113497293D01*
X187499382Y-113502702D01*
X187482614Y-113886751D01*
X187481671Y-113897527D01*
X187431850Y-114275955D01*
X187429972Y-114286609D01*
X187347353Y-114659275D01*
X187344553Y-114669723D01*
X187229775Y-115033755D01*
X187226075Y-115043921D01*
X187080002Y-115396572D01*
X187075430Y-115406376D01*
X186899183Y-115744942D01*
X186893775Y-115754310D01*
X186688681Y-116076244D01*
X186682476Y-116085105D01*
X186450110Y-116387930D01*
X186443156Y-116396217D01*
X186185284Y-116677635D01*
X186177635Y-116685284D01*
X185896217Y-116943156D01*
X185887930Y-116950110D01*
X185585105Y-117182476D01*
X185576244Y-117188681D01*
X185254310Y-117393775D01*
X185244942Y-117399183D01*
X184906376Y-117575430D01*
X184896572Y-117580002D01*
X184543921Y-117726075D01*
X184533755Y-117729775D01*
X184169723Y-117844553D01*
X184159275Y-117847353D01*
X183786609Y-117929972D01*
X183775955Y-117931850D01*
X183397527Y-117981671D01*
X183386751Y-117982614D01*
X183002703Y-117999382D01*
X182997294Y-117999500D01*
X95502706Y-117999500D01*
X95497297Y-117999382D01*
X95113248Y-117982614D01*
X95102474Y-117981671D01*
X95040007Y-117973447D01*
X94724044Y-117931850D01*
X94713390Y-117929972D01*
X94340724Y-117847353D01*
X94330276Y-117844553D01*
X93966244Y-117729775D01*
X93956078Y-117726075D01*
X93603427Y-117580002D01*
X93593623Y-117575430D01*
X93255057Y-117399183D01*
X93245689Y-117393775D01*
X92923755Y-117188681D01*
X92914894Y-117182476D01*
X92612069Y-116950110D01*
X92603782Y-116943156D01*
X92322364Y-116685284D01*
X92314715Y-116677635D01*
X92056843Y-116396217D01*
X92049889Y-116387930D01*
X91817523Y-116085105D01*
X91811318Y-116076244D01*
X91606224Y-115754310D01*
X91600816Y-115744942D01*
X91456899Y-115468481D01*
X91424566Y-115406369D01*
X91419997Y-115396572D01*
X91338097Y-115198848D01*
X91273920Y-115043911D01*
X91270224Y-115033755D01*
X91232104Y-114912854D01*
X91155445Y-114669720D01*
X91152646Y-114659275D01*
X91070027Y-114286609D01*
X91068149Y-114275955D01*
X91018326Y-113897505D01*
X91017386Y-113886773D01*
X91000618Y-113502702D01*
X91000500Y-113497293D01*
X91000500Y-113302323D01*
X92199500Y-113302323D01*
X92199500Y-113626609D01*
X92203000Y-113662143D01*
X92231284Y-113949323D01*
X92231287Y-113949340D01*
X92294545Y-114267368D01*
X92294548Y-114267379D01*
X92388686Y-114577713D01*
X92512786Y-114877315D01*
X92512788Y-114877320D01*
X92665646Y-115163296D01*
X92665657Y-115163314D01*
X92845811Y-115432933D01*
X92845821Y-115432947D01*
X93051546Y-115683624D01*
X93280841Y-115912919D01*
X93280846Y-115912923D01*
X93280847Y-115912924D01*
X93531524Y-116118649D01*
X93801158Y-116298813D01*
X93801167Y-116298818D01*
X93801169Y-116298819D01*
X94087145Y-116451677D01*
X94087147Y-116451677D01*
X94087153Y-116451681D01*
X94386754Y-116575780D01*
X94697077Y-116669915D01*
X94697083Y-116669916D01*
X94697086Y-116669917D01*
X94697097Y-116669920D01*
X94896528Y-116709588D01*
X95015132Y-116733180D01*
X95337857Y-116764966D01*
X95337860Y-116764966D01*
X95662140Y-116764966D01*
X95662143Y-116764966D01*
X95984868Y-116733180D01*
X96142295Y-116701865D01*
X96302902Y-116669920D01*
X96302913Y-116669917D01*
X96302913Y-116669916D01*
X96302923Y-116669915D01*
X96613246Y-116575780D01*
X96912847Y-116451681D01*
X97198842Y-116298813D01*
X97468476Y-116118649D01*
X97719153Y-115912924D01*
X97948458Y-115683619D01*
X98154183Y-115432942D01*
X98334347Y-115163308D01*
X98487215Y-114877313D01*
X98611314Y-114577712D01*
X98705449Y-114267389D01*
X98705451Y-114267379D01*
X98705454Y-114267368D01*
X98737399Y-114106761D01*
X98768714Y-113949334D01*
X98800500Y-113626609D01*
X98800500Y-113337857D01*
X179699500Y-113337857D01*
X179699500Y-113662143D01*
X179709054Y-113759152D01*
X179731284Y-113984857D01*
X179731287Y-113984874D01*
X179794545Y-114302902D01*
X179794548Y-114302913D01*
X179888686Y-114613247D01*
X180012786Y-114912849D01*
X180012788Y-114912854D01*
X180165646Y-115198830D01*
X180165657Y-115198848D01*
X180345811Y-115468467D01*
X180345821Y-115468481D01*
X180551546Y-115719158D01*
X180780841Y-115948453D01*
X180780846Y-115948457D01*
X180780847Y-115948458D01*
X181031524Y-116154183D01*
X181301158Y-116334347D01*
X181301167Y-116334352D01*
X181301169Y-116334353D01*
X181587145Y-116487211D01*
X181587147Y-116487211D01*
X181587153Y-116487215D01*
X181886754Y-116611314D01*
X182197077Y-116705449D01*
X182197083Y-116705450D01*
X182197086Y-116705451D01*
X182197097Y-116705454D01*
X182396528Y-116745122D01*
X182515132Y-116768714D01*
X182837857Y-116800500D01*
X182837860Y-116800500D01*
X183162140Y-116800500D01*
X183162143Y-116800500D01*
X183484868Y-116768714D01*
X183663520Y-116733178D01*
X183802902Y-116705454D01*
X183802913Y-116705451D01*
X183802913Y-116705450D01*
X183802923Y-116705449D01*
X184113246Y-116611314D01*
X184412847Y-116487215D01*
X184698842Y-116334347D01*
X184968476Y-116154183D01*
X185219153Y-115948458D01*
X185448458Y-115719153D01*
X185654183Y-115468476D01*
X185834347Y-115198842D01*
X185987215Y-114912847D01*
X186111314Y-114613246D01*
X186205449Y-114302923D01*
X186205451Y-114302913D01*
X186205454Y-114302902D01*
X186237399Y-114142295D01*
X186268714Y-113984868D01*
X186300500Y-113662143D01*
X186300500Y-113337857D01*
X186268714Y-113015132D01*
X186245122Y-112896528D01*
X186205454Y-112697097D01*
X186205451Y-112697086D01*
X186205450Y-112697083D01*
X186205449Y-112697077D01*
X186111314Y-112386754D01*
X185987215Y-112087153D01*
X185968217Y-112051611D01*
X185834353Y-111801169D01*
X185834352Y-111801167D01*
X185834347Y-111801158D01*
X185654183Y-111531524D01*
X185448458Y-111280847D01*
X185448457Y-111280846D01*
X185448453Y-111280841D01*
X185219158Y-111051546D01*
X184968481Y-110845821D01*
X184968480Y-110845820D01*
X184968476Y-110845817D01*
X184698842Y-110665653D01*
X184698837Y-110665650D01*
X184698830Y-110665646D01*
X184412854Y-110512788D01*
X184412849Y-110512786D01*
X184113247Y-110388686D01*
X183802913Y-110294548D01*
X183802902Y-110294545D01*
X183484874Y-110231287D01*
X183484857Y-110231284D01*
X183240812Y-110207248D01*
X183162143Y-110199500D01*
X182837857Y-110199500D01*
X182765099Y-110206666D01*
X182515142Y-110231284D01*
X182515125Y-110231287D01*
X182197097Y-110294545D01*
X182197086Y-110294548D01*
X181886752Y-110388686D01*
X181587150Y-110512786D01*
X181587145Y-110512788D01*
X181301169Y-110665646D01*
X181301151Y-110665657D01*
X181031532Y-110845811D01*
X181031518Y-110845821D01*
X180780841Y-111051546D01*
X180551546Y-111280841D01*
X180345821Y-111531518D01*
X180345811Y-111531532D01*
X180165657Y-111801151D01*
X180165646Y-111801169D01*
X180012788Y-112087145D01*
X180012786Y-112087150D01*
X179888686Y-112386752D01*
X179794548Y-112697086D01*
X179794545Y-112697097D01*
X179731287Y-113015125D01*
X179731284Y-113015142D01*
X179706666Y-113265099D01*
X179699500Y-113337857D01*
X98800500Y-113337857D01*
X98800500Y-113302323D01*
X98768714Y-112979598D01*
X98745122Y-112860994D01*
X98705454Y-112661563D01*
X98705451Y-112661552D01*
X98705450Y-112661549D01*
X98705449Y-112661543D01*
X98611314Y-112351220D01*
X98487215Y-112051619D01*
X98353340Y-111801158D01*
X98334353Y-111765635D01*
X98334352Y-111765633D01*
X98334347Y-111765624D01*
X98154183Y-111495990D01*
X97948458Y-111245313D01*
X97948457Y-111245312D01*
X97948453Y-111245307D01*
X97719158Y-111016012D01*
X97468481Y-110810287D01*
X97468480Y-110810286D01*
X97468476Y-110810283D01*
X97198842Y-110630119D01*
X97198837Y-110630116D01*
X97198830Y-110630112D01*
X96912854Y-110477254D01*
X96912849Y-110477252D01*
X96613247Y-110353152D01*
X96302913Y-110259014D01*
X96302902Y-110259011D01*
X95984874Y-110195753D01*
X95984857Y-110195750D01*
X95740812Y-110171714D01*
X95662143Y-110163966D01*
X95337857Y-110163966D01*
X95265099Y-110171132D01*
X95015142Y-110195750D01*
X95015125Y-110195753D01*
X94697097Y-110259011D01*
X94697086Y-110259014D01*
X94386752Y-110353152D01*
X94087150Y-110477252D01*
X94087145Y-110477254D01*
X93801169Y-110630112D01*
X93801151Y-110630123D01*
X93531532Y-110810277D01*
X93531518Y-110810287D01*
X93280841Y-111016012D01*
X93051546Y-111245307D01*
X92845821Y-111495984D01*
X92845811Y-111495998D01*
X92665657Y-111765617D01*
X92665646Y-111765635D01*
X92512788Y-112051611D01*
X92512786Y-112051616D01*
X92388686Y-112351218D01*
X92294548Y-112661552D01*
X92294545Y-112661563D01*
X92231287Y-112979591D01*
X92231284Y-112979608D01*
X92206666Y-113229565D01*
X92199500Y-113302323D01*
X91000500Y-113302323D01*
X91000500Y-98953389D01*
X97473944Y-98953389D01*
X97473944Y-99126611D01*
X97501042Y-99297701D01*
X97554571Y-99462445D01*
X97633212Y-99616788D01*
X97735030Y-99756928D01*
X97857516Y-99879414D01*
X97997656Y-99981232D01*
X98151999Y-100059873D01*
X98316743Y-100113402D01*
X98487833Y-100140500D01*
X98487834Y-100140500D01*
X98661054Y-100140500D01*
X98661055Y-100140500D01*
X98832145Y-100113402D01*
X98996889Y-100059873D01*
X99151232Y-99981232D01*
X99291372Y-99879414D01*
X99413858Y-99756928D01*
X99515676Y-99616788D01*
X99594317Y-99462445D01*
X99647846Y-99297701D01*
X99674944Y-99126611D01*
X99674944Y-98953389D01*
X99665298Y-98892486D01*
X101403944Y-98892486D01*
X101403944Y-99187513D01*
X101436015Y-99431113D01*
X101442451Y-99479993D01*
X101516656Y-99756930D01*
X101518805Y-99764951D01*
X101518808Y-99764961D01*
X101631698Y-100037500D01*
X101631702Y-100037510D01*
X101779205Y-100292993D01*
X101958796Y-100527040D01*
X101958802Y-100527047D01*
X102167396Y-100735641D01*
X102167403Y-100735647D01*
X102401450Y-100915238D01*
X102656933Y-101062741D01*
X102656934Y-101062741D01*
X102656937Y-101062743D01*
X102929492Y-101175639D01*
X103214451Y-101251993D01*
X103506938Y-101290500D01*
X103506945Y-101290500D01*
X103801943Y-101290500D01*
X103801950Y-101290500D01*
X104094437Y-101251993D01*
X104379396Y-101175639D01*
X104651951Y-101062743D01*
X104907438Y-100915238D01*
X105141486Y-100735646D01*
X105350090Y-100527042D01*
X105529682Y-100292994D01*
X105677187Y-100037507D01*
X105790083Y-99764952D01*
X105866437Y-99479993D01*
X105904944Y-99187506D01*
X105904944Y-98953389D01*
X107633944Y-98953389D01*
X107633944Y-99126611D01*
X107661042Y-99297701D01*
X107714571Y-99462445D01*
X107793212Y-99616788D01*
X107895030Y-99756928D01*
X108017516Y-99879414D01*
X108157656Y-99981232D01*
X108311999Y-100059873D01*
X108476743Y-100113402D01*
X108647833Y-100140500D01*
X108647834Y-100140500D01*
X108821054Y-100140500D01*
X108821055Y-100140500D01*
X108992145Y-100113402D01*
X109156889Y-100059873D01*
X109311232Y-99981232D01*
X109451372Y-99879414D01*
X109573858Y-99756928D01*
X109675676Y-99616788D01*
X109754317Y-99462445D01*
X109807846Y-99297701D01*
X109834944Y-99126611D01*
X109834944Y-98953389D01*
X121629500Y-98953389D01*
X121629500Y-99126611D01*
X121656598Y-99297701D01*
X121710127Y-99462445D01*
X121788768Y-99616788D01*
X121890586Y-99756928D01*
X122013072Y-99879414D01*
X122153212Y-99981232D01*
X122307555Y-100059873D01*
X122472299Y-100113402D01*
X122643389Y-100140500D01*
X122643390Y-100140500D01*
X122816610Y-100140500D01*
X122816611Y-100140500D01*
X122987701Y-100113402D01*
X123152445Y-100059873D01*
X123306788Y-99981232D01*
X123446928Y-99879414D01*
X123569414Y-99756928D01*
X123671232Y-99616788D01*
X123749873Y-99462445D01*
X123803402Y-99297701D01*
X123830500Y-99126611D01*
X123830500Y-98953389D01*
X123820854Y-98892486D01*
X125559500Y-98892486D01*
X125559500Y-99187513D01*
X125591571Y-99431113D01*
X125598007Y-99479993D01*
X125672212Y-99756930D01*
X125674361Y-99764951D01*
X125674364Y-99764961D01*
X125787254Y-100037500D01*
X125787258Y-100037510D01*
X125934761Y-100292993D01*
X126114352Y-100527040D01*
X126114358Y-100527047D01*
X126322952Y-100735641D01*
X126322959Y-100735647D01*
X126557006Y-100915238D01*
X126812489Y-101062741D01*
X126812490Y-101062741D01*
X126812493Y-101062743D01*
X127085048Y-101175639D01*
X127370007Y-101251993D01*
X127662494Y-101290500D01*
X127662501Y-101290500D01*
X127957499Y-101290500D01*
X127957506Y-101290500D01*
X128249993Y-101251993D01*
X128534952Y-101175639D01*
X128807507Y-101062743D01*
X129062994Y-100915238D01*
X129297042Y-100735646D01*
X129505646Y-100527042D01*
X129685238Y-100292994D01*
X129832743Y-100037507D01*
X129945639Y-99764952D01*
X130021993Y-99479993D01*
X130060500Y-99187506D01*
X130060500Y-98953389D01*
X131789500Y-98953389D01*
X131789500Y-99126611D01*
X131816598Y-99297701D01*
X131870127Y-99462445D01*
X131948768Y-99616788D01*
X132050586Y-99756928D01*
X132173072Y-99879414D01*
X132313212Y-99981232D01*
X132467555Y-100059873D01*
X132632299Y-100113402D01*
X132803389Y-100140500D01*
X132803390Y-100140500D01*
X132976610Y-100140500D01*
X132976611Y-100140500D01*
X133147701Y-100113402D01*
X133312445Y-100059873D01*
X133466788Y-99981232D01*
X133606928Y-99879414D01*
X133729414Y-99756928D01*
X133831232Y-99616788D01*
X133909873Y-99462445D01*
X133963402Y-99297701D01*
X133990500Y-99126611D01*
X133990500Y-98953389D01*
X145785055Y-98953389D01*
X145785055Y-99126611D01*
X145812153Y-99297701D01*
X145865682Y-99462445D01*
X145944323Y-99616788D01*
X146046141Y-99756928D01*
X146168627Y-99879414D01*
X146308767Y-99981232D01*
X146463110Y-100059873D01*
X146627854Y-100113402D01*
X146798944Y-100140500D01*
X146798945Y-100140500D01*
X146972165Y-100140500D01*
X146972166Y-100140500D01*
X147143256Y-100113402D01*
X147308000Y-100059873D01*
X147462343Y-99981232D01*
X147602483Y-99879414D01*
X147724969Y-99756928D01*
X147826787Y-99616788D01*
X147905428Y-99462445D01*
X147958957Y-99297701D01*
X147986055Y-99126611D01*
X147986055Y-98953389D01*
X147976409Y-98892486D01*
X149715055Y-98892486D01*
X149715055Y-99187513D01*
X149747126Y-99431113D01*
X149753562Y-99479993D01*
X149827767Y-99756930D01*
X149829916Y-99764951D01*
X149829919Y-99764961D01*
X149942809Y-100037500D01*
X149942813Y-100037510D01*
X150090316Y-100292993D01*
X150269907Y-100527040D01*
X150269913Y-100527047D01*
X150478507Y-100735641D01*
X150478514Y-100735647D01*
X150712561Y-100915238D01*
X150968044Y-101062741D01*
X150968045Y-101062741D01*
X150968048Y-101062743D01*
X151240603Y-101175639D01*
X151525562Y-101251993D01*
X151818049Y-101290500D01*
X151818056Y-101290500D01*
X152113054Y-101290500D01*
X152113061Y-101290500D01*
X152405548Y-101251993D01*
X152690507Y-101175639D01*
X152963062Y-101062743D01*
X153218549Y-100915238D01*
X153452597Y-100735646D01*
X153661201Y-100527042D01*
X153840793Y-100292994D01*
X153988298Y-100037507D01*
X154101194Y-99764952D01*
X154177548Y-99479993D01*
X154216055Y-99187506D01*
X154216055Y-98953389D01*
X155945055Y-98953389D01*
X155945055Y-99126611D01*
X155972153Y-99297701D01*
X156025682Y-99462445D01*
X156104323Y-99616788D01*
X156206141Y-99756928D01*
X156328627Y-99879414D01*
X156468767Y-99981232D01*
X156623110Y-100059873D01*
X156787854Y-100113402D01*
X156958944Y-100140500D01*
X156958945Y-100140500D01*
X157132165Y-100140500D01*
X157132166Y-100140500D01*
X157303256Y-100113402D01*
X157468000Y-100059873D01*
X157622343Y-99981232D01*
X157762483Y-99879414D01*
X157884969Y-99756928D01*
X157986787Y-99616788D01*
X158065428Y-99462445D01*
X158118957Y-99297701D01*
X158146055Y-99126611D01*
X158146055Y-98953389D01*
X169940611Y-98953389D01*
X169940611Y-99126611D01*
X169967709Y-99297701D01*
X170021238Y-99462445D01*
X170099879Y-99616788D01*
X170201697Y-99756928D01*
X170324183Y-99879414D01*
X170464323Y-99981232D01*
X170618666Y-100059873D01*
X170783410Y-100113402D01*
X170954500Y-100140500D01*
X170954501Y-100140500D01*
X171127721Y-100140500D01*
X171127722Y-100140500D01*
X171298812Y-100113402D01*
X171463556Y-100059873D01*
X171617899Y-99981232D01*
X171758039Y-99879414D01*
X171880525Y-99756928D01*
X171982343Y-99616788D01*
X172060984Y-99462445D01*
X172114513Y-99297701D01*
X172141611Y-99126611D01*
X172141611Y-98953389D01*
X172131965Y-98892486D01*
X173870611Y-98892486D01*
X173870611Y-99187513D01*
X173902682Y-99431113D01*
X173909118Y-99479993D01*
X173983323Y-99756930D01*
X173985472Y-99764951D01*
X173985475Y-99764961D01*
X174098365Y-100037500D01*
X174098369Y-100037510D01*
X174245872Y-100292993D01*
X174425463Y-100527040D01*
X174425469Y-100527047D01*
X174634063Y-100735641D01*
X174634070Y-100735647D01*
X174868117Y-100915238D01*
X175123600Y-101062741D01*
X175123601Y-101062741D01*
X175123604Y-101062743D01*
X175396159Y-101175639D01*
X175681118Y-101251993D01*
X175973605Y-101290500D01*
X175973612Y-101290500D01*
X176268610Y-101290500D01*
X176268617Y-101290500D01*
X176561104Y-101251993D01*
X176846063Y-101175639D01*
X177118618Y-101062743D01*
X177374105Y-100915238D01*
X177608153Y-100735646D01*
X177816757Y-100527042D01*
X177996349Y-100292994D01*
X178143854Y-100037507D01*
X178256750Y-99764952D01*
X178333104Y-99479993D01*
X178371611Y-99187506D01*
X178371611Y-98953389D01*
X180100611Y-98953389D01*
X180100611Y-99126611D01*
X180127709Y-99297701D01*
X180181238Y-99462445D01*
X180259879Y-99616788D01*
X180361697Y-99756928D01*
X180484183Y-99879414D01*
X180624323Y-99981232D01*
X180778666Y-100059873D01*
X180943410Y-100113402D01*
X181114500Y-100140500D01*
X181114501Y-100140500D01*
X181287721Y-100140500D01*
X181287722Y-100140500D01*
X181458812Y-100113402D01*
X181623556Y-100059873D01*
X181777899Y-99981232D01*
X181918039Y-99879414D01*
X182040525Y-99756928D01*
X182142343Y-99616788D01*
X182220984Y-99462445D01*
X182274513Y-99297701D01*
X182301611Y-99126611D01*
X182301611Y-98953389D01*
X182274513Y-98782299D01*
X182220984Y-98617555D01*
X182142343Y-98463212D01*
X182040525Y-98323072D01*
X181918039Y-98200586D01*
X181777899Y-98098768D01*
X181623556Y-98020127D01*
X181458812Y-97966598D01*
X181458810Y-97966597D01*
X181458809Y-97966597D01*
X181327382Y-97945781D01*
X181287722Y-97939500D01*
X181114500Y-97939500D01*
X181074839Y-97945781D01*
X180943413Y-97966597D01*
X180778663Y-98020128D01*
X180624322Y-98098768D01*
X180568226Y-98139525D01*
X180484183Y-98200586D01*
X180484181Y-98200588D01*
X180484180Y-98200588D01*
X180361699Y-98323069D01*
X180361699Y-98323070D01*
X180361697Y-98323072D01*
X180317970Y-98383256D01*
X180259879Y-98463211D01*
X180181239Y-98617552D01*
X180127708Y-98782302D01*
X180100611Y-98953389D01*
X178371611Y-98953389D01*
X178371611Y-98892494D01*
X178333104Y-98600007D01*
X178256750Y-98315048D01*
X178143854Y-98042493D01*
X178093715Y-97955650D01*
X177996349Y-97787006D01*
X177816758Y-97552959D01*
X177816752Y-97552952D01*
X177608158Y-97344358D01*
X177608151Y-97344352D01*
X177374104Y-97164761D01*
X177118621Y-97017258D01*
X177118611Y-97017254D01*
X176846072Y-96904364D01*
X176846065Y-96904362D01*
X176846063Y-96904361D01*
X176561104Y-96828007D01*
X176512224Y-96821571D01*
X176268624Y-96789500D01*
X176268617Y-96789500D01*
X175973605Y-96789500D01*
X175973597Y-96789500D01*
X175695196Y-96826153D01*
X175681118Y-96828007D01*
X175506972Y-96874669D01*
X175396159Y-96904361D01*
X175396149Y-96904364D01*
X175123610Y-97017254D01*
X175123600Y-97017258D01*
X174868117Y-97164761D01*
X174634070Y-97344352D01*
X174634063Y-97344358D01*
X174425469Y-97552952D01*
X174425463Y-97552959D01*
X174245872Y-97787006D01*
X174098369Y-98042489D01*
X174098365Y-98042499D01*
X173985475Y-98315038D01*
X173985472Y-98315048D01*
X173909119Y-98600004D01*
X173909117Y-98600015D01*
X173870611Y-98892486D01*
X172131965Y-98892486D01*
X172114513Y-98782299D01*
X172060984Y-98617555D01*
X171982343Y-98463212D01*
X171880525Y-98323072D01*
X171827993Y-98270540D01*
X171794508Y-98209217D01*
X171799492Y-98139525D01*
X171841364Y-98083592D01*
X171906828Y-98059175D01*
X171935072Y-98060386D01*
X172185183Y-98100000D01*
X172437039Y-98100000D01*
X172685780Y-98060602D01*
X172925295Y-97982780D01*
X173149686Y-97868446D01*
X173149692Y-97868442D01*
X173251808Y-97794250D01*
X173251809Y-97794250D01*
X172635136Y-97177578D01*
X172666369Y-97164641D01*
X172789208Y-97082563D01*
X172893674Y-96978097D01*
X172975752Y-96855258D01*
X172988689Y-96824025D01*
X173605361Y-97440698D01*
X173605361Y-97440697D01*
X173679553Y-97338581D01*
X173679557Y-97338575D01*
X173793891Y-97114184D01*
X173871713Y-96874669D01*
X173911111Y-96625928D01*
X173911111Y-96374071D01*
X173871713Y-96125330D01*
X173793891Y-95885815D01*
X173679553Y-95661416D01*
X173605361Y-95559301D01*
X173605361Y-95559300D01*
X172988688Y-96175973D01*
X172975752Y-96144742D01*
X172893674Y-96021903D01*
X172789208Y-95917437D01*
X172666369Y-95835359D01*
X172635135Y-95822421D01*
X173251809Y-95205748D01*
X173149694Y-95131557D01*
X172925295Y-95017219D01*
X172685780Y-94939397D01*
X172437039Y-94900000D01*
X172185183Y-94900000D01*
X171936441Y-94939397D01*
X171696926Y-95017219D01*
X171472524Y-95131559D01*
X171370412Y-95205747D01*
X171370411Y-95205748D01*
X171987085Y-95822421D01*
X171955853Y-95835359D01*
X171833014Y-95917437D01*
X171728548Y-96021903D01*
X171646470Y-96144742D01*
X171633532Y-96175974D01*
X171016859Y-95559300D01*
X171016858Y-95559301D01*
X170942670Y-95661413D01*
X170828330Y-95885815D01*
X170750508Y-96125330D01*
X170711111Y-96374071D01*
X170711111Y-96625928D01*
X170750508Y-96874669D01*
X170828330Y-97114184D01*
X170942668Y-97338583D01*
X171016859Y-97440697D01*
X171016859Y-97440698D01*
X171633532Y-96824024D01*
X171646470Y-96855258D01*
X171728548Y-96978097D01*
X171833014Y-97082563D01*
X171955853Y-97164641D01*
X171987085Y-97177577D01*
X171370411Y-97794250D01*
X171372709Y-97823449D01*
X171358344Y-97891827D01*
X171309292Y-97941583D01*
X171241127Y-97956921D01*
X171229694Y-97955650D01*
X171127722Y-97939500D01*
X170954500Y-97939500D01*
X170914839Y-97945781D01*
X170783413Y-97966597D01*
X170618663Y-98020128D01*
X170464322Y-98098768D01*
X170408226Y-98139525D01*
X170324183Y-98200586D01*
X170324181Y-98200588D01*
X170324180Y-98200588D01*
X170201699Y-98323069D01*
X170201699Y-98323070D01*
X170201697Y-98323072D01*
X170157970Y-98383256D01*
X170099879Y-98463211D01*
X170021239Y-98617552D01*
X169967708Y-98782302D01*
X169940611Y-98953389D01*
X158146055Y-98953389D01*
X158118957Y-98782299D01*
X158065428Y-98617555D01*
X157986787Y-98463212D01*
X157884969Y-98323072D01*
X157762483Y-98200586D01*
X157622343Y-98098768D01*
X157468000Y-98020127D01*
X157303256Y-97966598D01*
X157303254Y-97966597D01*
X157303253Y-97966597D01*
X157171826Y-97945781D01*
X157132166Y-97939500D01*
X156958944Y-97939500D01*
X156919283Y-97945781D01*
X156787857Y-97966597D01*
X156623107Y-98020128D01*
X156468766Y-98098768D01*
X156412670Y-98139525D01*
X156328627Y-98200586D01*
X156328625Y-98200588D01*
X156328624Y-98200588D01*
X156206143Y-98323069D01*
X156206143Y-98323070D01*
X156206141Y-98323072D01*
X156162414Y-98383256D01*
X156104323Y-98463211D01*
X156025683Y-98617552D01*
X155972152Y-98782302D01*
X155945055Y-98953389D01*
X154216055Y-98953389D01*
X154216055Y-98892494D01*
X154177548Y-98600007D01*
X154101194Y-98315048D01*
X153988298Y-98042493D01*
X153938159Y-97955650D01*
X153840793Y-97787006D01*
X153661202Y-97552959D01*
X153661196Y-97552952D01*
X153452602Y-97344358D01*
X153452595Y-97344352D01*
X153218548Y-97164761D01*
X152963065Y-97017258D01*
X152963055Y-97017254D01*
X152690516Y-96904364D01*
X152690509Y-96904362D01*
X152690507Y-96904361D01*
X152405548Y-96828007D01*
X152356668Y-96821571D01*
X152113068Y-96789500D01*
X152113061Y-96789500D01*
X151818049Y-96789500D01*
X151818041Y-96789500D01*
X151539640Y-96826153D01*
X151525562Y-96828007D01*
X151351416Y-96874669D01*
X151240603Y-96904361D01*
X151240593Y-96904364D01*
X150968054Y-97017254D01*
X150968044Y-97017258D01*
X150712561Y-97164761D01*
X150478514Y-97344352D01*
X150478507Y-97344358D01*
X150269913Y-97552952D01*
X150269907Y-97552959D01*
X150090316Y-97787006D01*
X149942813Y-98042489D01*
X149942809Y-98042499D01*
X149829919Y-98315038D01*
X149829916Y-98315048D01*
X149753563Y-98600004D01*
X149753561Y-98600015D01*
X149715055Y-98892486D01*
X147976409Y-98892486D01*
X147958957Y-98782299D01*
X147905428Y-98617555D01*
X147826787Y-98463212D01*
X147724969Y-98323072D01*
X147672437Y-98270540D01*
X147638952Y-98209217D01*
X147643936Y-98139525D01*
X147685808Y-98083592D01*
X147751272Y-98059175D01*
X147779516Y-98060386D01*
X148029627Y-98100000D01*
X148281483Y-98100000D01*
X148530224Y-98060602D01*
X148769739Y-97982780D01*
X148994130Y-97868446D01*
X148994136Y-97868442D01*
X149096252Y-97794250D01*
X149096253Y-97794250D01*
X148479580Y-97177578D01*
X148510813Y-97164641D01*
X148633652Y-97082563D01*
X148738118Y-96978097D01*
X148820196Y-96855258D01*
X148833132Y-96824025D01*
X149449805Y-97440698D01*
X149449805Y-97440697D01*
X149523997Y-97338581D01*
X149524001Y-97338575D01*
X149638335Y-97114184D01*
X149716157Y-96874669D01*
X149755555Y-96625928D01*
X149755555Y-96374071D01*
X149716157Y-96125330D01*
X149638335Y-95885815D01*
X149523997Y-95661416D01*
X149449805Y-95559301D01*
X149449805Y-95559300D01*
X148833132Y-96175973D01*
X148820196Y-96144742D01*
X148738118Y-96021903D01*
X148633652Y-95917437D01*
X148510813Y-95835359D01*
X148479579Y-95822421D01*
X149096253Y-95205748D01*
X148994138Y-95131557D01*
X148769739Y-95017219D01*
X148530224Y-94939397D01*
X148281483Y-94900000D01*
X148029627Y-94900000D01*
X147780885Y-94939397D01*
X147541370Y-95017219D01*
X147316968Y-95131559D01*
X147214856Y-95205747D01*
X147214855Y-95205748D01*
X147831529Y-95822421D01*
X147800297Y-95835359D01*
X147677458Y-95917437D01*
X147572992Y-96021903D01*
X147490914Y-96144742D01*
X147477976Y-96175974D01*
X146861303Y-95559300D01*
X146861302Y-95559301D01*
X146787114Y-95661413D01*
X146672774Y-95885815D01*
X146594952Y-96125330D01*
X146555555Y-96374071D01*
X146555555Y-96625928D01*
X146594952Y-96874669D01*
X146672774Y-97114184D01*
X146787112Y-97338583D01*
X146861303Y-97440697D01*
X146861303Y-97440698D01*
X147477976Y-96824024D01*
X147490914Y-96855258D01*
X147572992Y-96978097D01*
X147677458Y-97082563D01*
X147800297Y-97164641D01*
X147831529Y-97177577D01*
X147214855Y-97794250D01*
X147217153Y-97823449D01*
X147202788Y-97891827D01*
X147153736Y-97941583D01*
X147085571Y-97956921D01*
X147074138Y-97955650D01*
X146972166Y-97939500D01*
X146798944Y-97939500D01*
X146759283Y-97945781D01*
X146627857Y-97966597D01*
X146463107Y-98020128D01*
X146308766Y-98098768D01*
X146252670Y-98139525D01*
X146168627Y-98200586D01*
X146168625Y-98200588D01*
X146168624Y-98200588D01*
X146046143Y-98323069D01*
X146046143Y-98323070D01*
X146046141Y-98323072D01*
X146002414Y-98383256D01*
X145944323Y-98463211D01*
X145865683Y-98617552D01*
X145812152Y-98782302D01*
X145785055Y-98953389D01*
X133990500Y-98953389D01*
X133963402Y-98782299D01*
X133909873Y-98617555D01*
X133831232Y-98463212D01*
X133729414Y-98323072D01*
X133606928Y-98200586D01*
X133466788Y-98098768D01*
X133312445Y-98020127D01*
X133147701Y-97966598D01*
X133147699Y-97966597D01*
X133147698Y-97966597D01*
X133016271Y-97945781D01*
X132976611Y-97939500D01*
X132803389Y-97939500D01*
X132763728Y-97945781D01*
X132632302Y-97966597D01*
X132467552Y-98020128D01*
X132313211Y-98098768D01*
X132257115Y-98139525D01*
X132173072Y-98200586D01*
X132173070Y-98200588D01*
X132173069Y-98200588D01*
X132050588Y-98323069D01*
X132050588Y-98323070D01*
X132050586Y-98323072D01*
X132006859Y-98383256D01*
X131948768Y-98463211D01*
X131870128Y-98617552D01*
X131816597Y-98782302D01*
X131789500Y-98953389D01*
X130060500Y-98953389D01*
X130060500Y-98892494D01*
X130021993Y-98600007D01*
X129945639Y-98315048D01*
X129832743Y-98042493D01*
X129782604Y-97955650D01*
X129685238Y-97787006D01*
X129505647Y-97552959D01*
X129505641Y-97552952D01*
X129297047Y-97344358D01*
X129297040Y-97344352D01*
X129062993Y-97164761D01*
X128807510Y-97017258D01*
X128807500Y-97017254D01*
X128534961Y-96904364D01*
X128534954Y-96904362D01*
X128534952Y-96904361D01*
X128249993Y-96828007D01*
X128201113Y-96821571D01*
X127957513Y-96789500D01*
X127957506Y-96789500D01*
X127662494Y-96789500D01*
X127662486Y-96789500D01*
X127384085Y-96826153D01*
X127370007Y-96828007D01*
X127195861Y-96874669D01*
X127085048Y-96904361D01*
X127085038Y-96904364D01*
X126812499Y-97017254D01*
X126812489Y-97017258D01*
X126557006Y-97164761D01*
X126322959Y-97344352D01*
X126322952Y-97344358D01*
X126114358Y-97552952D01*
X126114352Y-97552959D01*
X125934761Y-97787006D01*
X125787258Y-98042489D01*
X125787254Y-98042499D01*
X125674364Y-98315038D01*
X125674361Y-98315048D01*
X125598008Y-98600004D01*
X125598006Y-98600015D01*
X125559500Y-98892486D01*
X123820854Y-98892486D01*
X123803402Y-98782299D01*
X123749873Y-98617555D01*
X123671232Y-98463212D01*
X123569414Y-98323072D01*
X123516882Y-98270540D01*
X123483397Y-98209217D01*
X123488381Y-98139525D01*
X123530253Y-98083592D01*
X123595717Y-98059175D01*
X123623961Y-98060386D01*
X123874072Y-98100000D01*
X124125928Y-98100000D01*
X124374669Y-98060602D01*
X124614184Y-97982780D01*
X124838575Y-97868446D01*
X124838581Y-97868442D01*
X124940697Y-97794250D01*
X124940698Y-97794250D01*
X124324025Y-97177578D01*
X124355258Y-97164641D01*
X124478097Y-97082563D01*
X124582563Y-96978097D01*
X124664641Y-96855258D01*
X124677577Y-96824025D01*
X125294250Y-97440698D01*
X125294250Y-97440697D01*
X125368442Y-97338581D01*
X125368446Y-97338575D01*
X125482780Y-97114184D01*
X125560602Y-96874669D01*
X125600000Y-96625928D01*
X125600000Y-96374071D01*
X125560602Y-96125330D01*
X125482780Y-95885815D01*
X125368442Y-95661416D01*
X125294250Y-95559301D01*
X125294250Y-95559300D01*
X124677577Y-96175973D01*
X124664641Y-96144742D01*
X124582563Y-96021903D01*
X124478097Y-95917437D01*
X124355258Y-95835359D01*
X124324024Y-95822421D01*
X124940698Y-95205748D01*
X124838583Y-95131557D01*
X124614184Y-95017219D01*
X124374669Y-94939397D01*
X124125928Y-94900000D01*
X123874072Y-94900000D01*
X123625330Y-94939397D01*
X123385815Y-95017219D01*
X123161413Y-95131559D01*
X123059301Y-95205747D01*
X123059300Y-95205748D01*
X123675974Y-95822421D01*
X123644742Y-95835359D01*
X123521903Y-95917437D01*
X123417437Y-96021903D01*
X123335359Y-96144742D01*
X123322421Y-96175974D01*
X122705748Y-95559300D01*
X122705747Y-95559301D01*
X122631559Y-95661413D01*
X122517219Y-95885815D01*
X122439397Y-96125330D01*
X122400000Y-96374071D01*
X122400000Y-96625928D01*
X122439397Y-96874669D01*
X122517219Y-97114184D01*
X122631557Y-97338583D01*
X122705748Y-97440697D01*
X122705748Y-97440698D01*
X123322421Y-96824024D01*
X123335359Y-96855258D01*
X123417437Y-96978097D01*
X123521903Y-97082563D01*
X123644742Y-97164641D01*
X123675974Y-97177577D01*
X123059300Y-97794250D01*
X123061598Y-97823449D01*
X123047233Y-97891827D01*
X122998181Y-97941583D01*
X122930016Y-97956921D01*
X122918583Y-97955650D01*
X122816611Y-97939500D01*
X122643389Y-97939500D01*
X122603728Y-97945781D01*
X122472302Y-97966597D01*
X122307552Y-98020128D01*
X122153211Y-98098768D01*
X122097115Y-98139525D01*
X122013072Y-98200586D01*
X122013070Y-98200588D01*
X122013069Y-98200588D01*
X121890588Y-98323069D01*
X121890588Y-98323070D01*
X121890586Y-98323072D01*
X121846859Y-98383256D01*
X121788768Y-98463211D01*
X121710128Y-98617552D01*
X121656597Y-98782302D01*
X121629500Y-98953389D01*
X109834944Y-98953389D01*
X109807846Y-98782299D01*
X109754317Y-98617555D01*
X109675676Y-98463212D01*
X109573858Y-98323072D01*
X109451372Y-98200586D01*
X109311232Y-98098768D01*
X109156889Y-98020127D01*
X108992145Y-97966598D01*
X108992143Y-97966597D01*
X108992142Y-97966597D01*
X108860715Y-97945781D01*
X108821055Y-97939500D01*
X108647833Y-97939500D01*
X108608172Y-97945781D01*
X108476746Y-97966597D01*
X108311996Y-98020128D01*
X108157655Y-98098768D01*
X108101559Y-98139525D01*
X108017516Y-98200586D01*
X108017514Y-98200588D01*
X108017513Y-98200588D01*
X107895032Y-98323069D01*
X107895032Y-98323070D01*
X107895030Y-98323072D01*
X107851303Y-98383256D01*
X107793212Y-98463211D01*
X107714572Y-98617552D01*
X107661041Y-98782302D01*
X107633944Y-98953389D01*
X105904944Y-98953389D01*
X105904944Y-98892494D01*
X105866437Y-98600007D01*
X105790083Y-98315048D01*
X105677187Y-98042493D01*
X105627048Y-97955650D01*
X105529682Y-97787006D01*
X105350091Y-97552959D01*
X105350085Y-97552952D01*
X105141491Y-97344358D01*
X105141484Y-97344352D01*
X104907437Y-97164761D01*
X104651954Y-97017258D01*
X104651944Y-97017254D01*
X104379405Y-96904364D01*
X104379398Y-96904362D01*
X104379396Y-96904361D01*
X104094437Y-96828007D01*
X104045557Y-96821571D01*
X103801957Y-96789500D01*
X103801950Y-96789500D01*
X103506938Y-96789500D01*
X103506930Y-96789500D01*
X103228529Y-96826153D01*
X103214451Y-96828007D01*
X103040305Y-96874669D01*
X102929492Y-96904361D01*
X102929482Y-96904364D01*
X102656943Y-97017254D01*
X102656933Y-97017258D01*
X102401450Y-97164761D01*
X102167403Y-97344352D01*
X102167396Y-97344358D01*
X101958802Y-97552952D01*
X101958796Y-97552959D01*
X101779205Y-97787006D01*
X101631702Y-98042489D01*
X101631698Y-98042499D01*
X101518808Y-98315038D01*
X101518805Y-98315048D01*
X101442452Y-98600004D01*
X101442450Y-98600015D01*
X101403944Y-98892486D01*
X99665298Y-98892486D01*
X99647846Y-98782299D01*
X99594317Y-98617555D01*
X99515676Y-98463212D01*
X99413858Y-98323072D01*
X99361326Y-98270540D01*
X99327841Y-98209217D01*
X99332825Y-98139525D01*
X99374697Y-98083592D01*
X99440161Y-98059175D01*
X99468405Y-98060386D01*
X99718516Y-98100000D01*
X99970372Y-98100000D01*
X100219113Y-98060602D01*
X100458628Y-97982780D01*
X100683019Y-97868446D01*
X100683025Y-97868442D01*
X100785141Y-97794250D01*
X100785142Y-97794250D01*
X100168469Y-97177578D01*
X100199702Y-97164641D01*
X100322541Y-97082563D01*
X100427007Y-96978097D01*
X100509085Y-96855258D01*
X100522021Y-96824025D01*
X101138694Y-97440698D01*
X101138694Y-97440697D01*
X101212886Y-97338581D01*
X101212890Y-97338575D01*
X101327224Y-97114184D01*
X101405046Y-96874669D01*
X101444444Y-96625928D01*
X101444444Y-96374071D01*
X101405046Y-96125330D01*
X101327224Y-95885815D01*
X101212886Y-95661416D01*
X101138694Y-95559301D01*
X101138694Y-95559300D01*
X100522021Y-96175973D01*
X100509085Y-96144742D01*
X100427007Y-96021903D01*
X100322541Y-95917437D01*
X100199702Y-95835359D01*
X100168468Y-95822421D01*
X100785142Y-95205748D01*
X100683027Y-95131557D01*
X100458628Y-95017219D01*
X100219113Y-94939397D01*
X99970372Y-94900000D01*
X99718516Y-94900000D01*
X99469774Y-94939397D01*
X99230259Y-95017219D01*
X99005857Y-95131559D01*
X98903745Y-95205747D01*
X98903744Y-95205748D01*
X99520418Y-95822421D01*
X99489186Y-95835359D01*
X99366347Y-95917437D01*
X99261881Y-96021903D01*
X99179803Y-96144742D01*
X99166865Y-96175974D01*
X98550192Y-95559300D01*
X98550191Y-95559301D01*
X98476003Y-95661413D01*
X98361663Y-95885815D01*
X98283841Y-96125330D01*
X98244444Y-96374071D01*
X98244444Y-96625928D01*
X98283841Y-96874669D01*
X98361663Y-97114184D01*
X98476001Y-97338583D01*
X98550192Y-97440697D01*
X98550192Y-97440698D01*
X99166865Y-96824024D01*
X99179803Y-96855258D01*
X99261881Y-96978097D01*
X99366347Y-97082563D01*
X99489186Y-97164641D01*
X99520418Y-97177577D01*
X98903744Y-97794250D01*
X98906042Y-97823449D01*
X98891677Y-97891827D01*
X98842625Y-97941583D01*
X98774460Y-97956921D01*
X98763027Y-97955650D01*
X98661055Y-97939500D01*
X98487833Y-97939500D01*
X98448172Y-97945781D01*
X98316746Y-97966597D01*
X98151996Y-98020128D01*
X97997655Y-98098768D01*
X97941559Y-98139525D01*
X97857516Y-98200586D01*
X97857514Y-98200588D01*
X97857513Y-98200588D01*
X97735032Y-98323069D01*
X97735032Y-98323070D01*
X97735030Y-98323072D01*
X97691303Y-98383256D01*
X97633212Y-98463211D01*
X97554572Y-98617552D01*
X97501041Y-98782302D01*
X97473944Y-98953389D01*
X91000500Y-98953389D01*
X91000500Y-93834038D01*
X104593944Y-93834038D01*
X104593944Y-94085961D01*
X104633354Y-94334785D01*
X104711204Y-94574383D01*
X104825576Y-94798848D01*
X104973645Y-95002649D01*
X104973649Y-95002654D01*
X105151789Y-95180794D01*
X105151794Y-95180798D01*
X105329561Y-95309952D01*
X105355599Y-95328870D01*
X105498628Y-95401747D01*
X105580060Y-95443239D01*
X105580062Y-95443239D01*
X105580065Y-95443241D01*
X105819659Y-95521090D01*
X106068482Y-95560500D01*
X106068483Y-95560500D01*
X106320405Y-95560500D01*
X106320406Y-95560500D01*
X106569229Y-95521090D01*
X106808823Y-95443241D01*
X107033289Y-95328870D01*
X107237100Y-95180793D01*
X107415237Y-95002656D01*
X107563314Y-94798845D01*
X107677685Y-94574379D01*
X107755534Y-94334785D01*
X107794944Y-94085962D01*
X107794944Y-93834038D01*
X107755534Y-93585215D01*
X107677685Y-93345621D01*
X107677683Y-93345618D01*
X107677683Y-93345616D01*
X107636191Y-93264184D01*
X107563314Y-93121155D01*
X107544396Y-93095117D01*
X107415242Y-92917350D01*
X107415238Y-92917345D01*
X107237098Y-92739205D01*
X107237093Y-92739201D01*
X107033292Y-92591132D01*
X107033291Y-92591131D01*
X107033289Y-92591130D01*
X106963630Y-92555637D01*
X106862649Y-92504184D01*
X106811853Y-92456209D01*
X106794944Y-92393699D01*
X106794944Y-80725652D01*
X106814629Y-80658613D01*
X106831258Y-80637976D01*
X114487819Y-72981414D01*
X114549142Y-72947930D01*
X114618834Y-72952914D01*
X114674767Y-72994786D01*
X114699184Y-73060250D01*
X114699500Y-73069096D01*
X114699500Y-73266287D01*
X114709534Y-73329644D01*
X114731119Y-73465925D01*
X114732754Y-73476243D01*
X114765114Y-73575837D01*
X114798444Y-73678414D01*
X114894951Y-73867820D01*
X115019890Y-74039786D01*
X115170213Y-74190109D01*
X115342182Y-74315050D01*
X115350946Y-74319516D01*
X115401742Y-74367491D01*
X115418536Y-74435312D01*
X115395998Y-74501447D01*
X115350946Y-74540484D01*
X115342182Y-74544949D01*
X115170213Y-74669890D01*
X115019890Y-74820213D01*
X114894951Y-74992179D01*
X114798444Y-75181585D01*
X114732753Y-75383760D01*
X114699500Y-75593713D01*
X114699500Y-75806286D01*
X114732753Y-76016239D01*
X114798444Y-76218414D01*
X114894951Y-76407820D01*
X115019890Y-76579786D01*
X115170213Y-76730109D01*
X115342182Y-76855050D01*
X115350946Y-76859516D01*
X115401742Y-76907491D01*
X115418536Y-76975312D01*
X115395998Y-77041447D01*
X115350946Y-77080484D01*
X115342182Y-77084949D01*
X115170213Y-77209890D01*
X115019890Y-77360213D01*
X114894951Y-77532179D01*
X114798444Y-77721585D01*
X114732753Y-77923760D01*
X114719048Y-78010292D01*
X114699500Y-78133713D01*
X114699500Y-78346287D01*
X114732754Y-78556243D01*
X114789629Y-78731286D01*
X114798444Y-78758414D01*
X114894951Y-78947820D01*
X115019890Y-79119786D01*
X115170213Y-79270109D01*
X115342179Y-79395048D01*
X115342181Y-79395049D01*
X115342184Y-79395051D01*
X115531588Y-79491557D01*
X115733757Y-79557246D01*
X115943713Y-79590500D01*
X116449903Y-79590500D01*
X116516942Y-79610185D01*
X116537584Y-79626819D01*
X118363181Y-81452416D01*
X118396666Y-81513739D01*
X118399500Y-81540097D01*
X118399500Y-84913330D01*
X118399499Y-84913348D01*
X118399499Y-85079054D01*
X118399498Y-85079054D01*
X118440424Y-85231789D01*
X118440425Y-85231790D01*
X118461455Y-85268214D01*
X118461456Y-85268216D01*
X118519475Y-85368709D01*
X118519481Y-85368717D01*
X118638349Y-85487585D01*
X118638355Y-85487590D01*
X122015139Y-88864374D01*
X122015149Y-88864385D01*
X122019479Y-88868715D01*
X122019480Y-88868716D01*
X122131284Y-88980520D01*
X122131286Y-88980521D01*
X122131290Y-88980524D01*
X122268209Y-89059573D01*
X122268216Y-89059577D01*
X122380019Y-89089534D01*
X122420942Y-89100500D01*
X122420943Y-89100500D01*
X126920234Y-89100500D01*
X126987273Y-89120185D01*
X126989125Y-89121398D01*
X127120814Y-89209390D01*
X127120827Y-89209397D01*
X127266498Y-89269735D01*
X127266503Y-89269737D01*
X127421153Y-89300499D01*
X127421156Y-89300500D01*
X127421158Y-89300500D01*
X127578844Y-89300500D01*
X127578845Y-89300499D01*
X127733497Y-89269737D01*
X127879179Y-89209394D01*
X128010289Y-89121789D01*
X128121789Y-89010289D01*
X128209394Y-88879179D01*
X128269737Y-88733497D01*
X128300500Y-88578842D01*
X128300500Y-88421158D01*
X128300500Y-88421155D01*
X128300499Y-88421153D01*
X128269737Y-88266503D01*
X128209794Y-88121786D01*
X128209397Y-88120827D01*
X128209390Y-88120814D01*
X128121789Y-87989711D01*
X128121786Y-87989707D01*
X128010292Y-87878213D01*
X128010288Y-87878210D01*
X127879185Y-87790609D01*
X127879172Y-87790602D01*
X127733501Y-87730264D01*
X127733489Y-87730261D01*
X127578845Y-87699500D01*
X127578842Y-87699500D01*
X127421158Y-87699500D01*
X127421155Y-87699500D01*
X127266510Y-87730261D01*
X127266498Y-87730264D01*
X127120827Y-87790602D01*
X127120814Y-87790609D01*
X126989125Y-87878602D01*
X126922447Y-87899480D01*
X126920234Y-87899500D01*
X126386555Y-87899500D01*
X126319516Y-87879815D01*
X126273761Y-87827011D01*
X126263817Y-87757853D01*
X126268840Y-87739588D01*
X126267969Y-87739324D01*
X126269731Y-87733509D01*
X126269737Y-87733497D01*
X126300500Y-87578842D01*
X126300500Y-87421158D01*
X126300500Y-87421155D01*
X126300499Y-87421153D01*
X126269738Y-87266510D01*
X126269737Y-87266503D01*
X126209794Y-87121786D01*
X126209397Y-87120827D01*
X126209390Y-87120814D01*
X126121789Y-86989711D01*
X126121786Y-86989707D01*
X126010292Y-86878213D01*
X126010288Y-86878210D01*
X125879185Y-86790609D01*
X125879172Y-86790602D01*
X125733501Y-86730264D01*
X125733491Y-86730261D01*
X125578151Y-86699362D01*
X125516241Y-86666977D01*
X125514662Y-86665426D01*
X125428078Y-86578842D01*
X125161415Y-86312180D01*
X125127931Y-86250858D01*
X125132915Y-86181167D01*
X125174786Y-86125233D01*
X125240251Y-86100816D01*
X125249097Y-86100500D01*
X126699903Y-86100500D01*
X126766942Y-86120185D01*
X126787584Y-86136819D01*
X129713181Y-89062416D01*
X129746666Y-89123739D01*
X129749500Y-89150097D01*
X129749500Y-92393699D01*
X129729815Y-92460738D01*
X129681795Y-92504184D01*
X129511151Y-92591132D01*
X129307350Y-92739201D01*
X129307345Y-92739205D01*
X129129205Y-92917345D01*
X129129201Y-92917350D01*
X128981132Y-93121151D01*
X128866760Y-93345616D01*
X128788910Y-93585214D01*
X128749500Y-93834038D01*
X128749500Y-94085961D01*
X128788910Y-94334785D01*
X128866760Y-94574383D01*
X128981132Y-94798848D01*
X129129201Y-95002649D01*
X129129205Y-95002654D01*
X129307345Y-95180794D01*
X129307350Y-95180798D01*
X129485117Y-95309952D01*
X129511155Y-95328870D01*
X129654184Y-95401747D01*
X129735616Y-95443239D01*
X129735618Y-95443239D01*
X129735621Y-95443241D01*
X129975215Y-95521090D01*
X130224038Y-95560500D01*
X130224039Y-95560500D01*
X130475961Y-95560500D01*
X130475962Y-95560500D01*
X130724785Y-95521090D01*
X130964379Y-95443241D01*
X131188845Y-95328870D01*
X131392656Y-95180793D01*
X131570793Y-95002656D01*
X131718870Y-94798845D01*
X131833241Y-94574379D01*
X131911090Y-94334785D01*
X131950500Y-94085962D01*
X131950500Y-93834038D01*
X131911090Y-93585215D01*
X131833241Y-93345621D01*
X131833239Y-93345618D01*
X131833239Y-93345616D01*
X131791747Y-93264184D01*
X131718870Y-93121155D01*
X131699952Y-93095117D01*
X131570798Y-92917350D01*
X131570794Y-92917345D01*
X131392654Y-92739205D01*
X131392649Y-92739201D01*
X131188848Y-92591132D01*
X131188847Y-92591131D01*
X131188845Y-92591130D01*
X131119186Y-92555637D01*
X131018205Y-92504184D01*
X130967409Y-92456209D01*
X130950500Y-92393699D01*
X130950500Y-88770945D01*
X130950500Y-88770943D01*
X130909577Y-88618216D01*
X130886845Y-88578842D01*
X130830524Y-88481290D01*
X130830521Y-88481286D01*
X130830520Y-88481284D01*
X130718716Y-88369480D01*
X130718715Y-88369479D01*
X130714385Y-88365149D01*
X130714374Y-88365139D01*
X128770388Y-86421153D01*
X129699500Y-86421153D01*
X129699500Y-86578846D01*
X129730261Y-86733489D01*
X129730264Y-86733501D01*
X129790602Y-86879172D01*
X129790609Y-86879185D01*
X129878210Y-87010288D01*
X129878213Y-87010292D01*
X129989707Y-87121786D01*
X129989711Y-87121789D01*
X130120814Y-87209390D01*
X130120827Y-87209397D01*
X130181739Y-87234627D01*
X130266503Y-87269737D01*
X130421153Y-87300499D01*
X130421156Y-87300500D01*
X130421158Y-87300500D01*
X130578844Y-87300500D01*
X130578845Y-87300499D01*
X130733497Y-87269737D01*
X130879179Y-87209394D01*
X130879185Y-87209390D01*
X131010875Y-87121398D01*
X131077553Y-87100520D01*
X131079766Y-87100500D01*
X146745458Y-87100500D01*
X146812497Y-87120185D01*
X146833139Y-87136819D01*
X152973396Y-93277076D01*
X153006881Y-93338399D01*
X153003646Y-93403076D01*
X152944465Y-93585214D01*
X152905055Y-93834038D01*
X152905055Y-94085961D01*
X152944465Y-94334785D01*
X153022315Y-94574383D01*
X153136687Y-94798848D01*
X153284756Y-95002649D01*
X153284760Y-95002654D01*
X153462900Y-95180794D01*
X153462905Y-95180798D01*
X153640672Y-95309952D01*
X153666710Y-95328870D01*
X153809739Y-95401747D01*
X153891171Y-95443239D01*
X153891173Y-95443239D01*
X153891176Y-95443241D01*
X154130770Y-95521090D01*
X154379593Y-95560500D01*
X154379594Y-95560500D01*
X154631516Y-95560500D01*
X154631517Y-95560500D01*
X154880340Y-95521090D01*
X155119934Y-95443241D01*
X155344400Y-95328870D01*
X155548211Y-95180793D01*
X155726348Y-95002656D01*
X155874425Y-94798845D01*
X155988796Y-94574379D01*
X156066645Y-94334785D01*
X156106055Y-94085962D01*
X156106055Y-93834038D01*
X156066645Y-93585215D01*
X155988796Y-93345621D01*
X155988794Y-93345618D01*
X155988794Y-93345616D01*
X155947302Y-93264184D01*
X155874425Y-93121155D01*
X155855507Y-93095117D01*
X155726353Y-92917350D01*
X155726349Y-92917345D01*
X155548209Y-92739205D01*
X155548204Y-92739201D01*
X155344403Y-92591132D01*
X155344402Y-92591131D01*
X155344400Y-92591130D01*
X155274302Y-92555413D01*
X155119938Y-92476760D01*
X154880340Y-92398910D01*
X154847439Y-92393699D01*
X154631517Y-92359500D01*
X154379593Y-92359500D01*
X154255181Y-92379205D01*
X154130769Y-92398910D01*
X154041733Y-92427840D01*
X153948629Y-92458091D01*
X153878789Y-92460086D01*
X153822631Y-92427841D01*
X148815943Y-87421153D01*
X151199500Y-87421153D01*
X151199500Y-87578846D01*
X151230261Y-87733489D01*
X151230264Y-87733501D01*
X151290602Y-87879172D01*
X151290609Y-87879185D01*
X151378210Y-88010288D01*
X151378213Y-88010292D01*
X151489707Y-88121786D01*
X151489711Y-88121789D01*
X151620814Y-88209390D01*
X151620827Y-88209397D01*
X151758683Y-88266498D01*
X151766503Y-88269737D01*
X151921153Y-88300499D01*
X151921156Y-88300500D01*
X151921158Y-88300500D01*
X152078844Y-88300500D01*
X152078845Y-88300499D01*
X152233497Y-88269737D01*
X152379179Y-88209394D01*
X152379185Y-88209390D01*
X152510875Y-88121398D01*
X152577553Y-88100520D01*
X152579766Y-88100500D01*
X171901014Y-88100500D01*
X171968053Y-88120185D01*
X171988695Y-88136819D01*
X177128951Y-93277076D01*
X177162436Y-93338399D01*
X177159201Y-93403075D01*
X177100021Y-93585210D01*
X177100021Y-93585213D01*
X177060611Y-93834038D01*
X177060611Y-94085961D01*
X177100021Y-94334785D01*
X177177871Y-94574383D01*
X177292243Y-94798848D01*
X177440312Y-95002649D01*
X177440316Y-95002654D01*
X177618456Y-95180794D01*
X177618461Y-95180798D01*
X177796228Y-95309952D01*
X177822266Y-95328870D01*
X177965295Y-95401747D01*
X178046727Y-95443239D01*
X178046729Y-95443239D01*
X178046732Y-95443241D01*
X178286326Y-95521090D01*
X178535149Y-95560500D01*
X178535150Y-95560500D01*
X178787072Y-95560500D01*
X178787073Y-95560500D01*
X179035896Y-95521090D01*
X179275490Y-95443241D01*
X179499956Y-95328870D01*
X179703767Y-95180793D01*
X179881904Y-95002656D01*
X180029981Y-94798845D01*
X180144352Y-94574379D01*
X180222201Y-94334785D01*
X180261611Y-94085962D01*
X180261611Y-93834038D01*
X180222201Y-93585215D01*
X180144352Y-93345621D01*
X180144350Y-93345618D01*
X180144350Y-93345616D01*
X180102858Y-93264184D01*
X180029981Y-93121155D01*
X180011063Y-93095117D01*
X179881909Y-92917350D01*
X179881905Y-92917345D01*
X179703765Y-92739205D01*
X179703760Y-92739201D01*
X179499959Y-92591132D01*
X179499958Y-92591131D01*
X179499956Y-92591130D01*
X179429858Y-92555413D01*
X179275494Y-92476760D01*
X179035896Y-92398910D01*
X179002995Y-92393699D01*
X178787073Y-92359500D01*
X178535149Y-92359500D01*
X178452208Y-92372636D01*
X178286324Y-92398910D01*
X178286321Y-92398910D01*
X178104186Y-92458090D01*
X178034345Y-92460085D01*
X177978187Y-92427840D01*
X172688701Y-87138355D01*
X172688699Y-87138352D01*
X172569828Y-87019481D01*
X172569827Y-87019480D01*
X172483015Y-86969360D01*
X172483015Y-86969359D01*
X172483011Y-86969358D01*
X172432896Y-86940423D01*
X172280168Y-86899499D01*
X172122054Y-86899499D01*
X172114458Y-86899499D01*
X172114442Y-86899500D01*
X152579766Y-86899500D01*
X152512727Y-86879815D01*
X152510875Y-86878602D01*
X152379185Y-86790609D01*
X152379172Y-86790602D01*
X152233501Y-86730264D01*
X152233489Y-86730261D01*
X152078845Y-86699500D01*
X152078842Y-86699500D01*
X151921158Y-86699500D01*
X151921155Y-86699500D01*
X151766510Y-86730261D01*
X151766498Y-86730264D01*
X151620827Y-86790602D01*
X151620814Y-86790609D01*
X151489711Y-86878210D01*
X151489707Y-86878213D01*
X151378213Y-86989707D01*
X151378210Y-86989711D01*
X151290609Y-87120814D01*
X151290602Y-87120827D01*
X151230264Y-87266498D01*
X151230261Y-87266510D01*
X151199500Y-87421153D01*
X148815943Y-87421153D01*
X147533145Y-86138355D01*
X147533143Y-86138352D01*
X147414272Y-86019481D01*
X147414271Y-86019480D01*
X147327459Y-85969360D01*
X147327459Y-85969359D01*
X147327455Y-85969358D01*
X147277340Y-85940423D01*
X147124612Y-85899499D01*
X146966498Y-85899499D01*
X146958902Y-85899499D01*
X146958886Y-85899500D01*
X131079766Y-85899500D01*
X131012727Y-85879815D01*
X131010875Y-85878602D01*
X130879185Y-85790609D01*
X130879172Y-85790602D01*
X130733501Y-85730264D01*
X130733489Y-85730261D01*
X130578845Y-85699500D01*
X130578842Y-85699500D01*
X130421158Y-85699500D01*
X130421155Y-85699500D01*
X130266510Y-85730261D01*
X130266498Y-85730264D01*
X130120827Y-85790602D01*
X130120814Y-85790609D01*
X129989711Y-85878210D01*
X129989707Y-85878213D01*
X129878213Y-85989707D01*
X129878210Y-85989711D01*
X129790609Y-86120814D01*
X129790602Y-86120827D01*
X129730264Y-86266498D01*
X129730261Y-86266510D01*
X129699500Y-86421153D01*
X128770388Y-86421153D01*
X127487590Y-85138355D01*
X127487588Y-85138352D01*
X127368717Y-85019481D01*
X127368716Y-85019480D01*
X127281904Y-84969360D01*
X127281904Y-84969359D01*
X127281900Y-84969358D01*
X127231785Y-84940423D01*
X127079057Y-84899499D01*
X126920943Y-84899499D01*
X126913347Y-84899499D01*
X126913331Y-84899500D01*
X123300097Y-84899500D01*
X123233058Y-84879815D01*
X123212416Y-84863181D01*
X121636819Y-83287584D01*
X121603334Y-83226261D01*
X121600500Y-83199903D01*
X121600500Y-81837860D01*
X135931733Y-81837860D01*
X135931733Y-82162139D01*
X135963517Y-82484857D01*
X135963520Y-82484874D01*
X136026778Y-82802902D01*
X136026781Y-82802913D01*
X136120919Y-83113247D01*
X136245019Y-83412849D01*
X136245021Y-83412854D01*
X136397879Y-83698830D01*
X136397890Y-83698848D01*
X136578044Y-83968467D01*
X136578054Y-83968481D01*
X136783779Y-84219158D01*
X137013074Y-84448453D01*
X137013079Y-84448457D01*
X137013080Y-84448458D01*
X137263757Y-84654183D01*
X137533391Y-84834347D01*
X137533400Y-84834352D01*
X137533402Y-84834353D01*
X137819378Y-84987211D01*
X137819380Y-84987211D01*
X137819386Y-84987215D01*
X138118987Y-85111314D01*
X138429310Y-85205449D01*
X138429316Y-85205450D01*
X138429319Y-85205451D01*
X138429330Y-85205454D01*
X138628761Y-85245122D01*
X138747365Y-85268714D01*
X139070090Y-85300500D01*
X139070093Y-85300500D01*
X139394373Y-85300500D01*
X139394376Y-85300500D01*
X139717101Y-85268714D01*
X139902736Y-85231789D01*
X140035135Y-85205454D01*
X140035146Y-85205451D01*
X140035146Y-85205450D01*
X140035156Y-85205449D01*
X140345479Y-85111314D01*
X140645080Y-84987215D01*
X140931075Y-84834347D01*
X141200709Y-84654183D01*
X141451386Y-84448458D01*
X141680691Y-84219153D01*
X141886416Y-83968476D01*
X142066580Y-83698842D01*
X142219448Y-83412847D01*
X142343547Y-83113246D01*
X142437682Y-82802923D01*
X142437684Y-82802913D01*
X142437687Y-82802902D01*
X142469632Y-82642295D01*
X142500947Y-82484868D01*
X142532733Y-82162143D01*
X142532733Y-81837857D01*
X142500947Y-81515132D01*
X142477355Y-81396528D01*
X142437687Y-81197097D01*
X142437684Y-81197086D01*
X142437683Y-81197083D01*
X142437682Y-81197077D01*
X142343547Y-80886754D01*
X142219448Y-80587153D01*
X142218091Y-80584615D01*
X142066586Y-80301169D01*
X142066585Y-80301167D01*
X142066580Y-80301158D01*
X141886416Y-80031524D01*
X141680691Y-79780847D01*
X141680690Y-79780846D01*
X141680686Y-79780841D01*
X141451391Y-79551546D01*
X141200714Y-79345821D01*
X141200713Y-79345820D01*
X141200709Y-79345817D01*
X140931075Y-79165653D01*
X140931070Y-79165650D01*
X140931063Y-79165646D01*
X140645087Y-79012788D01*
X140645082Y-79012786D01*
X140345480Y-78888686D01*
X140035146Y-78794548D01*
X140035135Y-78794545D01*
X139717107Y-78731287D01*
X139717090Y-78731284D01*
X139473045Y-78707248D01*
X139394376Y-78699500D01*
X139070090Y-78699500D01*
X138997332Y-78706666D01*
X138747375Y-78731284D01*
X138747358Y-78731287D01*
X138429330Y-78794545D01*
X138429319Y-78794548D01*
X138118985Y-78888686D01*
X137819383Y-79012786D01*
X137819378Y-79012788D01*
X137533402Y-79165646D01*
X137533384Y-79165657D01*
X137263765Y-79345811D01*
X137263751Y-79345821D01*
X137013074Y-79551546D01*
X136783779Y-79780841D01*
X136578054Y-80031518D01*
X136578044Y-80031532D01*
X136397890Y-80301151D01*
X136397879Y-80301169D01*
X136245021Y-80587145D01*
X136245019Y-80587150D01*
X136120919Y-80886752D01*
X136026781Y-81197086D01*
X136026778Y-81197097D01*
X135963520Y-81515125D01*
X135963517Y-81515142D01*
X135931733Y-81837860D01*
X121600500Y-81837860D01*
X121600500Y-74420945D01*
X121600500Y-74420943D01*
X121581357Y-74349500D01*
X121559577Y-74268215D01*
X121514479Y-74190104D01*
X121480520Y-74131284D01*
X121368716Y-74019480D01*
X121368715Y-74019479D01*
X121364385Y-74015149D01*
X121364374Y-74015139D01*
X120147590Y-72798355D01*
X120147588Y-72798352D01*
X120028717Y-72679481D01*
X120028716Y-72679480D01*
X119941904Y-72629360D01*
X119941904Y-72629359D01*
X119941900Y-72629358D01*
X119891785Y-72600423D01*
X119739057Y-72559499D01*
X119580943Y-72559499D01*
X119573347Y-72559499D01*
X119573331Y-72559500D01*
X119235719Y-72559500D01*
X119168680Y-72539815D01*
X119125235Y-72491795D01*
X119105052Y-72452185D01*
X119105051Y-72452184D01*
X118980109Y-72280213D01*
X118829790Y-72129894D01*
X118829785Y-72129890D01*
X118656140Y-72003730D01*
X118613474Y-71948400D01*
X118607495Y-71878787D01*
X118640100Y-71816992D01*
X118672730Y-71792928D01*
X118707816Y-71775051D01*
X118707815Y-71775051D01*
X118707818Y-71775050D01*
X118879786Y-71650109D01*
X118879788Y-71650106D01*
X118879792Y-71650104D01*
X119030104Y-71499792D01*
X119030106Y-71499788D01*
X119030109Y-71499786D01*
X119155048Y-71327820D01*
X119155047Y-71327820D01*
X119155051Y-71327816D01*
X119251557Y-71138412D01*
X119317246Y-70936243D01*
X119350500Y-70726287D01*
X119350500Y-70513713D01*
X119317246Y-70303757D01*
X119251557Y-70101588D01*
X119155051Y-69912184D01*
X119155049Y-69912181D01*
X119155048Y-69912179D01*
X119030109Y-69740213D01*
X118879786Y-69589890D01*
X118707820Y-69464951D01*
X118705076Y-69463553D01*
X118699054Y-69460485D01*
X118648259Y-69412512D01*
X118631463Y-69344692D01*
X118653999Y-69278556D01*
X118699054Y-69239515D01*
X118707816Y-69235051D01*
X118743136Y-69209390D01*
X118879786Y-69110109D01*
X118879788Y-69110106D01*
X118879792Y-69110104D01*
X119030104Y-68959792D01*
X119030106Y-68959788D01*
X119030109Y-68959786D01*
X119088677Y-68879172D01*
X119155051Y-68787816D01*
X119155756Y-68786433D01*
X119175235Y-68748205D01*
X119223209Y-68697409D01*
X119285719Y-68680500D01*
X119779903Y-68680500D01*
X119846942Y-68700185D01*
X119867584Y-68716819D01*
X123285139Y-72134374D01*
X123285149Y-72134385D01*
X123289479Y-72138715D01*
X123289480Y-72138716D01*
X123401284Y-72250520D01*
X123466917Y-72288412D01*
X123488095Y-72300639D01*
X123488097Y-72300641D01*
X123526151Y-72322611D01*
X123538215Y-72329577D01*
X123690943Y-72370501D01*
X123690946Y-72370501D01*
X123856653Y-72370501D01*
X123856669Y-72370500D01*
X124714281Y-72370500D01*
X124781320Y-72390185D01*
X124824765Y-72438205D01*
X124844947Y-72477814D01*
X124844948Y-72477815D01*
X124969890Y-72649786D01*
X125120313Y-72800209D01*
X125153798Y-72861532D01*
X125148814Y-72931224D01*
X125106942Y-72987157D01*
X125069525Y-73006275D01*
X125043004Y-73014539D01*
X125043001Y-73014540D01*
X124903766Y-73098710D01*
X124903762Y-73098713D01*
X124788713Y-73213762D01*
X124788710Y-73213766D01*
X124704540Y-73353001D01*
X124704538Y-73353007D01*
X124656135Y-73508337D01*
X124656134Y-73508344D01*
X124650000Y-73575848D01*
X124650000Y-74060000D01*
X125566988Y-74060000D01*
X125534075Y-74117007D01*
X125500000Y-74244174D01*
X125500000Y-74375826D01*
X125534075Y-74502993D01*
X125566988Y-74560000D01*
X124650001Y-74560000D01*
X124650001Y-75044162D01*
X124656132Y-75111651D01*
X124656134Y-75111658D01*
X124704537Y-75266989D01*
X124704540Y-75266998D01*
X124788710Y-75406233D01*
X124788713Y-75406237D01*
X124903762Y-75521286D01*
X124903766Y-75521289D01*
X125043001Y-75605459D01*
X125043007Y-75605461D01*
X125198337Y-75653864D01*
X125198344Y-75653865D01*
X125265848Y-75659999D01*
X125749999Y-75659999D01*
X125750000Y-75659998D01*
X125750000Y-74743012D01*
X125807007Y-74775925D01*
X125934174Y-74810000D01*
X126065826Y-74810000D01*
X126192993Y-74775925D01*
X126250000Y-74743012D01*
X126250000Y-75659999D01*
X126734161Y-75659999D01*
X126801651Y-75653867D01*
X126801658Y-75653865D01*
X126956989Y-75605462D01*
X126956998Y-75605459D01*
X127096233Y-75521289D01*
X127096237Y-75521286D01*
X127211286Y-75406237D01*
X127211289Y-75406233D01*
X127295459Y-75266998D01*
X127295461Y-75266992D01*
X127343864Y-75111662D01*
X127343865Y-75111655D01*
X127350000Y-75044151D01*
X127350000Y-74921153D01*
X164699500Y-74921153D01*
X164699500Y-75078846D01*
X164730261Y-75233489D01*
X164730264Y-75233501D01*
X164790602Y-75379172D01*
X164790609Y-75379185D01*
X164878210Y-75510288D01*
X164878213Y-75510292D01*
X164989707Y-75621786D01*
X164989711Y-75621789D01*
X165120814Y-75709390D01*
X165120827Y-75709397D01*
X165206159Y-75744742D01*
X165266503Y-75769737D01*
X165331147Y-75782595D01*
X165421849Y-75800638D01*
X165483760Y-75833023D01*
X165485339Y-75834574D01*
X169015139Y-79364374D01*
X169015149Y-79364385D01*
X169019479Y-79368715D01*
X169019480Y-79368716D01*
X169131284Y-79480520D01*
X169198249Y-79519181D01*
X169218095Y-79530639D01*
X169218097Y-79530641D01*
X169268213Y-79559576D01*
X169268215Y-79559577D01*
X169420942Y-79600500D01*
X169420943Y-79600500D01*
X184413331Y-79600500D01*
X184413347Y-79600501D01*
X184420943Y-79600501D01*
X184579054Y-79600501D01*
X184579057Y-79600501D01*
X184731785Y-79559577D01*
X184781904Y-79530639D01*
X184868716Y-79480520D01*
X184980520Y-79368716D01*
X184980520Y-79368714D01*
X184990728Y-79358507D01*
X184990729Y-79358504D01*
X186014662Y-78334572D01*
X186075983Y-78301089D01*
X186078150Y-78300638D01*
X186136085Y-78289113D01*
X186233497Y-78269737D01*
X186379179Y-78209394D01*
X186510289Y-78121789D01*
X186621789Y-78010289D01*
X186709394Y-77879179D01*
X186769737Y-77733497D01*
X186800500Y-77578842D01*
X186800500Y-77421158D01*
X186800500Y-77421155D01*
X186800499Y-77421153D01*
X186769738Y-77266510D01*
X186769738Y-77266508D01*
X186769737Y-77266503D01*
X186746290Y-77209896D01*
X186709397Y-77120827D01*
X186709390Y-77120814D01*
X186621789Y-76989711D01*
X186621786Y-76989707D01*
X186510292Y-76878213D01*
X186510288Y-76878210D01*
X186379185Y-76790609D01*
X186379172Y-76790602D01*
X186233501Y-76730264D01*
X186233489Y-76730261D01*
X186078845Y-76699500D01*
X186078842Y-76699500D01*
X185921158Y-76699500D01*
X185921155Y-76699500D01*
X185766510Y-76730261D01*
X185766498Y-76730264D01*
X185620827Y-76790602D01*
X185620814Y-76790609D01*
X185489711Y-76878210D01*
X185489707Y-76878213D01*
X185378213Y-76989707D01*
X185378210Y-76989711D01*
X185290609Y-77120814D01*
X185290602Y-77120827D01*
X185230264Y-77266498D01*
X185230261Y-77266508D01*
X185199361Y-77421850D01*
X185166976Y-77483761D01*
X185165425Y-77485339D01*
X184287584Y-78363181D01*
X184226261Y-78396666D01*
X184199903Y-78399500D01*
X169800097Y-78399500D01*
X169733058Y-78379815D01*
X169712416Y-78363181D01*
X166401390Y-75052155D01*
X174150000Y-75052155D01*
X174150000Y-75850000D01*
X174891759Y-75850000D01*
X174878822Y-75881233D01*
X174850000Y-76026131D01*
X174850000Y-76173869D01*
X174878822Y-76318767D01*
X174891759Y-76350000D01*
X174150000Y-76350000D01*
X174150000Y-77147844D01*
X174156401Y-77207372D01*
X174156403Y-77207379D01*
X174206645Y-77342086D01*
X174206649Y-77342093D01*
X174292809Y-77457187D01*
X174292812Y-77457190D01*
X174407906Y-77543350D01*
X174407913Y-77543354D01*
X174542620Y-77593596D01*
X174542627Y-77593598D01*
X174602155Y-77599999D01*
X174602172Y-77600000D01*
X176000000Y-77600000D01*
X176000000Y-76850000D01*
X176500000Y-76850000D01*
X176500000Y-77600000D01*
X177897828Y-77600000D01*
X177897844Y-77599999D01*
X177957372Y-77593598D01*
X177957379Y-77593596D01*
X178092086Y-77543354D01*
X178092093Y-77543350D01*
X178207187Y-77457190D01*
X178207190Y-77457187D01*
X178293350Y-77342093D01*
X178293354Y-77342086D01*
X178343596Y-77207379D01*
X178343598Y-77207372D01*
X178349999Y-77147844D01*
X178350000Y-77147827D01*
X178350000Y-76350000D01*
X177608241Y-76350000D01*
X177621178Y-76318767D01*
X177650000Y-76173869D01*
X177650000Y-76026131D01*
X177621178Y-75881233D01*
X177608241Y-75850000D01*
X178350000Y-75850000D01*
X178350000Y-75052172D01*
X178349999Y-75052155D01*
X178343598Y-74992627D01*
X178343596Y-74992620D01*
X178293354Y-74857913D01*
X178293350Y-74857906D01*
X178207190Y-74742812D01*
X178207187Y-74742809D01*
X178092093Y-74656649D01*
X178092086Y-74656645D01*
X177957379Y-74606403D01*
X177957372Y-74606401D01*
X177897844Y-74600000D01*
X176500000Y-74600000D01*
X176500000Y-75350000D01*
X176000000Y-75350000D01*
X176000000Y-74600000D01*
X174602155Y-74600000D01*
X174542627Y-74606401D01*
X174542620Y-74606403D01*
X174407913Y-74656645D01*
X174407906Y-74656649D01*
X174292812Y-74742809D01*
X174292809Y-74742812D01*
X174206649Y-74857906D01*
X174206645Y-74857913D01*
X174156403Y-74992620D01*
X174156401Y-74992627D01*
X174150000Y-75052155D01*
X166401390Y-75052155D01*
X166334574Y-74985339D01*
X166301089Y-74924016D01*
X166300638Y-74921849D01*
X166269738Y-74766510D01*
X166269737Y-74766503D01*
X166246374Y-74710099D01*
X166209397Y-74620827D01*
X166209390Y-74620814D01*
X166121789Y-74489711D01*
X166121786Y-74489707D01*
X166010292Y-74378213D01*
X166010288Y-74378210D01*
X165879185Y-74290609D01*
X165879172Y-74290602D01*
X165733501Y-74230264D01*
X165733489Y-74230261D01*
X165578845Y-74199500D01*
X165578842Y-74199500D01*
X165421158Y-74199500D01*
X165421155Y-74199500D01*
X165266510Y-74230261D01*
X165266498Y-74230264D01*
X165120827Y-74290602D01*
X165120814Y-74290609D01*
X164989711Y-74378210D01*
X164989707Y-74378213D01*
X164878213Y-74489707D01*
X164878210Y-74489711D01*
X164790609Y-74620814D01*
X164790602Y-74620827D01*
X164730264Y-74766498D01*
X164730261Y-74766510D01*
X164699500Y-74921153D01*
X127350000Y-74921153D01*
X127350000Y-74560000D01*
X126433012Y-74560000D01*
X126465925Y-74502993D01*
X126500000Y-74375826D01*
X126500000Y-74244174D01*
X126465925Y-74117007D01*
X126433012Y-74060000D01*
X127349999Y-74060000D01*
X127349999Y-73575837D01*
X127343867Y-73508348D01*
X127343865Y-73508341D01*
X127295462Y-73353010D01*
X127295459Y-73353001D01*
X127211289Y-73213766D01*
X127211286Y-73213762D01*
X127096237Y-73098713D01*
X127096233Y-73098710D01*
X126956998Y-73014540D01*
X126956993Y-73014538D01*
X126930475Y-73006275D01*
X126872328Y-72967536D01*
X126844355Y-72903510D01*
X126855437Y-72834525D01*
X126879686Y-72800208D01*
X126879784Y-72800109D01*
X126879792Y-72800104D01*
X127030104Y-72649792D01*
X127065973Y-72600423D01*
X127155048Y-72477820D01*
X127155047Y-72477820D01*
X127155051Y-72477816D01*
X127251557Y-72288412D01*
X127317246Y-72086243D01*
X127350500Y-71876287D01*
X127350500Y-71663713D01*
X127317246Y-71453757D01*
X127251557Y-71251588D01*
X127155051Y-71062184D01*
X127101118Y-70987951D01*
X127101117Y-70987948D01*
X127030109Y-70890214D01*
X127030105Y-70890209D01*
X126879786Y-70739890D01*
X126707820Y-70614951D01*
X126707115Y-70614591D01*
X126699054Y-70610485D01*
X126648259Y-70562512D01*
X126631463Y-70494692D01*
X126653999Y-70428556D01*
X126699054Y-70389515D01*
X126707816Y-70385051D01*
X126729789Y-70369086D01*
X126879786Y-70260109D01*
X126879788Y-70260106D01*
X126879792Y-70260104D01*
X127030104Y-70109792D01*
X127030106Y-70109788D01*
X127030109Y-70109786D01*
X127155048Y-69937820D01*
X127155047Y-69937820D01*
X127155051Y-69937816D01*
X127251557Y-69748412D01*
X127317246Y-69546243D01*
X127350500Y-69336287D01*
X127350500Y-69123713D01*
X127317246Y-68913757D01*
X127251557Y-68711588D01*
X127155051Y-68522184D01*
X127155049Y-68522181D01*
X127155048Y-68522179D01*
X127030109Y-68350213D01*
X126879786Y-68199890D01*
X126707820Y-68074951D01*
X126707115Y-68074591D01*
X126699054Y-68070485D01*
X126648259Y-68022512D01*
X126631463Y-67954692D01*
X126653999Y-67888556D01*
X126699054Y-67849515D01*
X126707816Y-67845051D01*
X126782759Y-67790602D01*
X126879786Y-67720109D01*
X126879788Y-67720106D01*
X126879792Y-67720104D01*
X127030104Y-67569792D01*
X127030106Y-67569788D01*
X127030109Y-67569786D01*
X127144895Y-67411795D01*
X127155051Y-67397816D01*
X127251557Y-67208412D01*
X127317246Y-67006243D01*
X127350500Y-66796287D01*
X127350500Y-66583713D01*
X127324753Y-66421153D01*
X164199500Y-66421153D01*
X164199500Y-66578846D01*
X164230261Y-66733489D01*
X164230264Y-66733501D01*
X164290602Y-66879172D01*
X164290609Y-66879185D01*
X164378210Y-67010288D01*
X164378213Y-67010292D01*
X164489707Y-67121786D01*
X164489711Y-67121789D01*
X164620814Y-67209390D01*
X164620827Y-67209397D01*
X164717832Y-67249577D01*
X164766503Y-67269737D01*
X164815756Y-67279534D01*
X164921849Y-67300638D01*
X164983760Y-67333023D01*
X164985339Y-67334574D01*
X166015139Y-68364374D01*
X166015149Y-68364385D01*
X166019479Y-68368715D01*
X166019480Y-68368716D01*
X166131284Y-68480520D01*
X166131286Y-68480521D01*
X166131290Y-68480524D01*
X166268209Y-68559573D01*
X166268216Y-68559577D01*
X166380019Y-68589534D01*
X166420942Y-68600500D01*
X166420943Y-68600500D01*
X167125501Y-68600500D01*
X167192540Y-68620185D01*
X167238295Y-68672989D01*
X167249501Y-68724500D01*
X167249501Y-69047876D01*
X167255908Y-69107483D01*
X167306202Y-69242328D01*
X167306206Y-69242335D01*
X167392452Y-69357544D01*
X167392453Y-69357544D01*
X167392454Y-69357546D01*
X167436563Y-69390566D01*
X167510599Y-69445990D01*
X167552469Y-69501924D01*
X167557453Y-69571615D01*
X167536605Y-69618141D01*
X167467087Y-69713824D01*
X167359897Y-69924197D01*
X167286934Y-70148752D01*
X167250000Y-70381947D01*
X167250000Y-70618052D01*
X167286934Y-70851247D01*
X167359897Y-71075802D01*
X167467087Y-71286174D01*
X167527338Y-71369104D01*
X167527340Y-71369105D01*
X168267037Y-70629408D01*
X168284075Y-70692993D01*
X168349901Y-70807007D01*
X168442993Y-70900099D01*
X168557007Y-70965925D01*
X168620590Y-70982962D01*
X167874280Y-71729271D01*
X167865105Y-71772947D01*
X167828739Y-71814615D01*
X167772490Y-71855482D01*
X167605485Y-72022487D01*
X167605485Y-72022488D01*
X167605483Y-72022490D01*
X167559164Y-72086243D01*
X167466657Y-72213566D01*
X167447828Y-72250520D01*
X167422291Y-72300641D01*
X167406417Y-72331795D01*
X167358442Y-72382591D01*
X167295932Y-72399500D01*
X166800097Y-72399500D01*
X166733058Y-72379815D01*
X166712416Y-72363181D01*
X165773551Y-71424316D01*
X165740066Y-71362993D01*
X165745050Y-71293301D01*
X165746671Y-71289182D01*
X165747919Y-71286169D01*
X165769737Y-71233497D01*
X165800500Y-71078842D01*
X165800500Y-70921158D01*
X165800500Y-70921155D01*
X165800499Y-70921153D01*
X165794344Y-70890208D01*
X165769737Y-70766503D01*
X165753079Y-70726286D01*
X165709397Y-70620827D01*
X165709390Y-70620814D01*
X165621789Y-70489711D01*
X165621786Y-70489707D01*
X165510292Y-70378213D01*
X165510288Y-70378210D01*
X165379185Y-70290609D01*
X165379172Y-70290602D01*
X165233501Y-70230264D01*
X165233489Y-70230261D01*
X165078845Y-70199500D01*
X165078842Y-70199500D01*
X164921158Y-70199500D01*
X164921155Y-70199500D01*
X164766510Y-70230261D01*
X164766498Y-70230264D01*
X164620827Y-70290602D01*
X164620814Y-70290609D01*
X164489711Y-70378210D01*
X164489707Y-70378213D01*
X164378213Y-70489707D01*
X164378210Y-70489711D01*
X164290609Y-70620814D01*
X164290602Y-70620827D01*
X164230264Y-70766498D01*
X164230261Y-70766510D01*
X164199500Y-70921153D01*
X164199500Y-71078846D01*
X164230261Y-71233489D01*
X164230264Y-71233501D01*
X164290602Y-71379172D01*
X164290609Y-71379185D01*
X164378601Y-71510873D01*
X164397467Y-71571124D01*
X164398438Y-71570997D01*
X164399171Y-71576568D01*
X164399479Y-71577550D01*
X164399492Y-71579002D01*
X164399498Y-71579054D01*
X164439262Y-71727455D01*
X164440423Y-71731785D01*
X164462335Y-71769737D01*
X164511840Y-71855483D01*
X164519479Y-71868714D01*
X164519481Y-71868717D01*
X164638349Y-71987585D01*
X164638355Y-71987590D01*
X166015139Y-73364374D01*
X166015149Y-73364385D01*
X166019479Y-73368715D01*
X166019480Y-73368716D01*
X166131284Y-73480520D01*
X166131286Y-73480521D01*
X166131290Y-73480524D01*
X166268209Y-73559573D01*
X166268216Y-73559577D01*
X166380019Y-73589534D01*
X166420942Y-73600500D01*
X166420943Y-73600500D01*
X167295932Y-73600500D01*
X167362971Y-73620185D01*
X167406416Y-73668203D01*
X167466657Y-73786433D01*
X167605483Y-73977510D01*
X167772490Y-74144517D01*
X167963567Y-74283343D01*
X168034557Y-74319514D01*
X168174003Y-74390566D01*
X168174005Y-74390566D01*
X168174008Y-74390568D01*
X168279031Y-74424692D01*
X168398631Y-74463553D01*
X168631903Y-74500500D01*
X168631908Y-74500500D01*
X168868097Y-74500500D01*
X169101368Y-74463553D01*
X169102870Y-74463065D01*
X169325992Y-74390568D01*
X169536433Y-74283343D01*
X169727510Y-74144517D01*
X169894517Y-73977510D01*
X170033343Y-73786433D01*
X170140568Y-73575992D01*
X170213553Y-73351368D01*
X170220579Y-73307007D01*
X170250500Y-73118097D01*
X170250500Y-72881947D01*
X181750000Y-72881947D01*
X181750000Y-73118052D01*
X181786934Y-73351247D01*
X181859897Y-73575802D01*
X181967087Y-73786174D01*
X182027338Y-73869104D01*
X182027340Y-73869105D01*
X182767037Y-73129408D01*
X182784075Y-73192993D01*
X182849901Y-73307007D01*
X182942993Y-73400099D01*
X183057007Y-73465925D01*
X183120590Y-73482962D01*
X182380893Y-74222658D01*
X182463828Y-74282914D01*
X182674197Y-74390102D01*
X182898752Y-74463065D01*
X182898751Y-74463065D01*
X183131948Y-74500000D01*
X183368052Y-74500000D01*
X183601247Y-74463065D01*
X183825802Y-74390102D01*
X184036163Y-74282918D01*
X184036169Y-74282914D01*
X184119104Y-74222658D01*
X184119105Y-74222658D01*
X183379408Y-73482962D01*
X183442993Y-73465925D01*
X183557007Y-73400099D01*
X183650099Y-73307007D01*
X183715925Y-73192993D01*
X183732962Y-73129409D01*
X184472658Y-73869105D01*
X184472658Y-73869104D01*
X184532914Y-73786169D01*
X184532918Y-73786163D01*
X184640102Y-73575802D01*
X184713065Y-73351247D01*
X184750000Y-73118052D01*
X184750000Y-72881947D01*
X184713065Y-72648752D01*
X184640102Y-72424197D01*
X184532914Y-72213828D01*
X184472658Y-72130894D01*
X184472658Y-72130893D01*
X183732962Y-72870590D01*
X183715925Y-72807007D01*
X183650099Y-72692993D01*
X183557007Y-72599901D01*
X183442993Y-72534075D01*
X183379409Y-72517037D01*
X184119105Y-71777340D01*
X184119104Y-71777338D01*
X184036174Y-71717087D01*
X183825802Y-71609897D01*
X183601247Y-71536934D01*
X183601248Y-71536934D01*
X183368052Y-71500000D01*
X183131948Y-71500000D01*
X182898752Y-71536934D01*
X182674197Y-71609897D01*
X182463830Y-71717084D01*
X182380894Y-71777340D01*
X183120591Y-72517037D01*
X183057007Y-72534075D01*
X182942993Y-72599901D01*
X182849901Y-72692993D01*
X182784075Y-72807007D01*
X182767037Y-72870590D01*
X182027340Y-72130894D01*
X181967084Y-72213830D01*
X181859897Y-72424197D01*
X181786934Y-72648752D01*
X181750000Y-72881947D01*
X170250500Y-72881947D01*
X170250500Y-72881902D01*
X170213553Y-72648631D01*
X170162593Y-72491795D01*
X170140568Y-72424008D01*
X170140566Y-72424005D01*
X170140566Y-72424003D01*
X170033477Y-72213830D01*
X170033343Y-72213567D01*
X169894517Y-72022490D01*
X169727510Y-71855483D01*
X169667066Y-71811568D01*
X169663142Y-71808182D01*
X169646887Y-71783006D01*
X169628595Y-71759284D01*
X169627714Y-71753311D01*
X169625243Y-71749484D01*
X169625215Y-71736358D01*
X169623902Y-71727455D01*
X168879408Y-70982962D01*
X168942993Y-70965925D01*
X169057007Y-70900099D01*
X169150099Y-70807007D01*
X169215925Y-70692993D01*
X169232962Y-70629409D01*
X169972658Y-71369105D01*
X169972658Y-71369104D01*
X170032914Y-71286169D01*
X170032918Y-71286163D01*
X170140102Y-71075802D01*
X170213065Y-70851247D01*
X170250000Y-70618052D01*
X170250000Y-70381947D01*
X170213065Y-70148752D01*
X170140102Y-69924197D01*
X170032914Y-69713828D01*
X169963394Y-69618142D01*
X169939914Y-69552335D01*
X169955739Y-69484281D01*
X169989401Y-69445989D01*
X169992329Y-69443796D01*
X169992331Y-69443796D01*
X170107546Y-69357546D01*
X170193796Y-69242331D01*
X170244091Y-69107483D01*
X170250500Y-69047873D01*
X170250499Y-67881902D01*
X181749500Y-67881902D01*
X181749500Y-68118097D01*
X181786446Y-68351368D01*
X181859433Y-68575996D01*
X181939685Y-68733497D01*
X181966657Y-68786433D01*
X182105483Y-68977510D01*
X182272490Y-69144517D01*
X182463567Y-69283343D01*
X182558192Y-69331557D01*
X182674003Y-69390566D01*
X182674005Y-69390566D01*
X182674008Y-69390568D01*
X182794412Y-69429689D01*
X182898631Y-69463553D01*
X183131903Y-69500500D01*
X183131908Y-69500500D01*
X183368097Y-69500500D01*
X183601368Y-69463553D01*
X183655424Y-69445989D01*
X183825992Y-69390568D01*
X184036433Y-69283343D01*
X184227510Y-69144517D01*
X184394517Y-68977510D01*
X184533343Y-68786433D01*
X184640568Y-68575992D01*
X184713553Y-68351368D01*
X184737545Y-68199890D01*
X184750500Y-68118097D01*
X184750500Y-67881902D01*
X184713553Y-67648631D01*
X184671895Y-67520423D01*
X184640568Y-67424008D01*
X184640566Y-67424005D01*
X184640566Y-67424003D01*
X184577708Y-67300638D01*
X184533343Y-67213567D01*
X184394517Y-67022490D01*
X184227510Y-66855483D01*
X184036433Y-66716657D01*
X183825996Y-66609433D01*
X183601368Y-66536446D01*
X183368097Y-66499500D01*
X183368092Y-66499500D01*
X183131908Y-66499500D01*
X183131903Y-66499500D01*
X182898631Y-66536446D01*
X182674003Y-66609433D01*
X182463566Y-66716657D01*
X182390509Y-66769737D01*
X182272490Y-66855483D01*
X182272488Y-66855485D01*
X182272487Y-66855485D01*
X182105485Y-67022487D01*
X182105485Y-67022488D01*
X182105483Y-67022490D01*
X182079163Y-67058716D01*
X181966657Y-67213566D01*
X181859433Y-67424003D01*
X181786446Y-67648631D01*
X181749500Y-67881902D01*
X170250499Y-67881902D01*
X170250499Y-66952128D01*
X170244091Y-66892517D01*
X170239962Y-66881447D01*
X170193797Y-66757671D01*
X170193793Y-66757664D01*
X170107547Y-66642455D01*
X170107544Y-66642452D01*
X169992335Y-66556206D01*
X169992328Y-66556202D01*
X169857482Y-66505908D01*
X169857483Y-66505908D01*
X169797883Y-66499501D01*
X169797881Y-66499500D01*
X169797873Y-66499500D01*
X169797864Y-66499500D01*
X167702129Y-66499500D01*
X167702123Y-66499501D01*
X167642516Y-66505908D01*
X167507671Y-66556202D01*
X167507664Y-66556206D01*
X167392455Y-66642452D01*
X167392452Y-66642455D01*
X167306206Y-66757664D01*
X167306202Y-66757671D01*
X167255908Y-66892517D01*
X167249501Y-66952116D01*
X167249501Y-66952123D01*
X167249500Y-66952135D01*
X167249500Y-67275500D01*
X167229815Y-67342539D01*
X167177011Y-67388294D01*
X167125500Y-67399500D01*
X166800097Y-67399500D01*
X166733058Y-67379815D01*
X166712416Y-67363181D01*
X165834574Y-66485339D01*
X165801089Y-66424016D01*
X165800638Y-66421849D01*
X165769738Y-66266510D01*
X165769737Y-66266503D01*
X165769735Y-66266498D01*
X165709397Y-66120827D01*
X165709390Y-66120814D01*
X165621789Y-65989711D01*
X165621786Y-65989707D01*
X165510292Y-65878213D01*
X165510288Y-65878210D01*
X165379185Y-65790609D01*
X165379172Y-65790602D01*
X165233501Y-65730264D01*
X165233489Y-65730261D01*
X165078845Y-65699500D01*
X165078842Y-65699500D01*
X164921158Y-65699500D01*
X164921155Y-65699500D01*
X164766510Y-65730261D01*
X164766498Y-65730264D01*
X164620827Y-65790602D01*
X164620814Y-65790609D01*
X164489711Y-65878210D01*
X164489707Y-65878213D01*
X164378213Y-65989707D01*
X164378210Y-65989711D01*
X164290609Y-66120814D01*
X164290602Y-66120827D01*
X164230264Y-66266498D01*
X164230261Y-66266510D01*
X164199500Y-66421153D01*
X127324753Y-66421153D01*
X127317246Y-66373757D01*
X127251557Y-66171588D01*
X127155051Y-65982184D01*
X127155049Y-65982181D01*
X127155048Y-65982179D01*
X127030109Y-65810213D01*
X126879786Y-65659890D01*
X126707820Y-65534951D01*
X126518414Y-65438444D01*
X126518413Y-65438443D01*
X126518412Y-65438443D01*
X126316243Y-65372754D01*
X126316241Y-65372753D01*
X126316240Y-65372753D01*
X126153684Y-65347007D01*
X126106287Y-65339500D01*
X125893713Y-65339500D01*
X125846316Y-65347007D01*
X125683760Y-65372753D01*
X125481585Y-65438444D01*
X125292179Y-65534951D01*
X125120213Y-65659890D01*
X124969890Y-65810213D01*
X124844948Y-65982184D01*
X124844947Y-65982185D01*
X124824765Y-66021795D01*
X124776791Y-66072591D01*
X124714281Y-66089500D01*
X123990097Y-66089500D01*
X123923058Y-66069815D01*
X123902416Y-66053181D01*
X123834574Y-65985339D01*
X123801089Y-65924016D01*
X123800638Y-65921849D01*
X123782595Y-65831147D01*
X123769737Y-65766503D01*
X123755857Y-65732993D01*
X123709397Y-65620827D01*
X123709390Y-65620814D01*
X123621789Y-65489711D01*
X123621786Y-65489707D01*
X123510292Y-65378213D01*
X123510288Y-65378210D01*
X123379185Y-65290609D01*
X123379172Y-65290602D01*
X123233501Y-65230264D01*
X123233491Y-65230261D01*
X123183186Y-65220255D01*
X123183185Y-65220254D01*
X123078845Y-65199500D01*
X123078842Y-65199500D01*
X122921158Y-65199500D01*
X122921155Y-65199500D01*
X122766510Y-65230261D01*
X122766498Y-65230264D01*
X122620827Y-65290602D01*
X122620814Y-65290609D01*
X122489711Y-65378210D01*
X122489707Y-65378213D01*
X122378213Y-65489707D01*
X122378210Y-65489711D01*
X122290609Y-65620814D01*
X122290602Y-65620827D01*
X122230264Y-65766498D01*
X122230261Y-65766510D01*
X122199500Y-65921153D01*
X122199500Y-66078846D01*
X122230261Y-66233489D01*
X122230264Y-66233501D01*
X122290602Y-66379172D01*
X122290609Y-66379185D01*
X122378210Y-66510288D01*
X122378213Y-66510292D01*
X122489707Y-66621786D01*
X122489711Y-66621789D01*
X122620814Y-66709390D01*
X122620827Y-66709397D01*
X122749644Y-66762754D01*
X122766503Y-66769737D01*
X122831147Y-66782595D01*
X122921849Y-66800638D01*
X122983760Y-66833023D01*
X122985339Y-66834574D01*
X123205139Y-67054374D01*
X123205149Y-67054385D01*
X123209479Y-67058715D01*
X123209480Y-67058716D01*
X123321284Y-67170520D01*
X123321286Y-67170521D01*
X123321290Y-67170524D01*
X123395844Y-67213567D01*
X123458216Y-67249577D01*
X123570019Y-67279534D01*
X123610942Y-67290500D01*
X123610943Y-67290500D01*
X124714281Y-67290500D01*
X124781320Y-67310185D01*
X124824765Y-67358205D01*
X124844947Y-67397814D01*
X124844948Y-67397815D01*
X124969890Y-67569786D01*
X125120213Y-67720109D01*
X125292182Y-67845050D01*
X125300946Y-67849516D01*
X125351742Y-67897491D01*
X125368536Y-67965312D01*
X125345998Y-68031447D01*
X125300946Y-68070484D01*
X125292182Y-68074949D01*
X125120213Y-68199890D01*
X124969890Y-68350213D01*
X124844948Y-68522184D01*
X124844947Y-68522185D01*
X124824765Y-68561795D01*
X124776791Y-68612591D01*
X124714281Y-68629500D01*
X124030097Y-68629500D01*
X123963058Y-68609815D01*
X123942416Y-68593181D01*
X123834574Y-68485339D01*
X123801089Y-68424016D01*
X123800638Y-68421849D01*
X123769738Y-68266510D01*
X123769737Y-68266503D01*
X123736511Y-68186287D01*
X123709397Y-68120827D01*
X123709390Y-68120814D01*
X123621789Y-67989711D01*
X123621786Y-67989707D01*
X123510292Y-67878213D01*
X123510288Y-67878210D01*
X123379185Y-67790609D01*
X123379172Y-67790602D01*
X123233501Y-67730264D01*
X123233489Y-67730261D01*
X123078845Y-67699500D01*
X123078842Y-67699500D01*
X122921158Y-67699500D01*
X122921155Y-67699500D01*
X122766510Y-67730261D01*
X122766498Y-67730264D01*
X122620827Y-67790602D01*
X122620814Y-67790609D01*
X122489711Y-67878210D01*
X122489707Y-67878213D01*
X122378213Y-67989707D01*
X122378210Y-67989711D01*
X122290609Y-68120814D01*
X122290602Y-68120827D01*
X122230264Y-68266498D01*
X122230261Y-68266510D01*
X122199500Y-68421153D01*
X122199500Y-68578846D01*
X122230261Y-68733489D01*
X122230264Y-68733501D01*
X122290602Y-68879172D01*
X122290609Y-68879185D01*
X122378210Y-69010288D01*
X122378213Y-69010292D01*
X122489707Y-69121786D01*
X122489711Y-69121789D01*
X122620814Y-69209390D01*
X122620827Y-69209397D01*
X122700348Y-69242335D01*
X122766503Y-69269737D01*
X122810839Y-69278556D01*
X122921849Y-69300638D01*
X122983760Y-69333023D01*
X122985339Y-69334574D01*
X123245139Y-69594374D01*
X123245149Y-69594385D01*
X123249479Y-69598715D01*
X123249480Y-69598716D01*
X123361284Y-69710520D01*
X123426917Y-69748412D01*
X123448095Y-69760639D01*
X123448097Y-69760641D01*
X123486151Y-69782611D01*
X123498215Y-69789577D01*
X123650943Y-69830501D01*
X123650946Y-69830501D01*
X123816653Y-69830501D01*
X123816669Y-69830500D01*
X124714281Y-69830500D01*
X124781320Y-69850185D01*
X124824765Y-69898205D01*
X124844947Y-69937814D01*
X124844948Y-69937815D01*
X124969890Y-70109786D01*
X125120213Y-70260109D01*
X125292182Y-70385050D01*
X125300946Y-70389516D01*
X125351742Y-70437491D01*
X125368536Y-70505312D01*
X125345998Y-70571447D01*
X125300946Y-70610484D01*
X125292182Y-70614949D01*
X125120213Y-70739890D01*
X124969890Y-70890213D01*
X124844948Y-71062184D01*
X124844947Y-71062185D01*
X124824765Y-71101795D01*
X124776791Y-71152591D01*
X124714281Y-71169500D01*
X124070097Y-71169500D01*
X124003058Y-71149815D01*
X123982416Y-71133181D01*
X120567590Y-67718355D01*
X120567588Y-67718352D01*
X120448717Y-67599481D01*
X120448709Y-67599475D01*
X120321594Y-67526086D01*
X120321588Y-67526083D01*
X120311787Y-67520423D01*
X120250693Y-67504053D01*
X120159057Y-67479499D01*
X120000943Y-67479499D01*
X119993347Y-67479499D01*
X119993331Y-67479500D01*
X119285719Y-67479500D01*
X119218680Y-67459815D01*
X119175235Y-67411795D01*
X119155052Y-67372185D01*
X119155051Y-67372184D01*
X119030109Y-67200213D01*
X118879786Y-67049890D01*
X118707817Y-66924949D01*
X118698504Y-66920204D01*
X118647707Y-66872230D01*
X118630912Y-66804409D01*
X118653449Y-66738274D01*
X118698507Y-66699232D01*
X118707558Y-66694620D01*
X118879459Y-66569727D01*
X118879464Y-66569723D01*
X119029723Y-66419464D01*
X119029727Y-66419459D01*
X119154620Y-66247557D01*
X119251095Y-66058217D01*
X119316757Y-65856129D01*
X119316757Y-65856126D01*
X119327231Y-65790000D01*
X116433012Y-65790000D01*
X116465925Y-65732993D01*
X116500000Y-65605826D01*
X116500000Y-65474174D01*
X116465925Y-65347007D01*
X116433012Y-65290000D01*
X119327231Y-65290000D01*
X119316757Y-65223873D01*
X119316757Y-65223870D01*
X119251095Y-65021782D01*
X119154620Y-64832442D01*
X119029727Y-64660540D01*
X119029723Y-64660535D01*
X118879464Y-64510276D01*
X118879459Y-64510272D01*
X118707555Y-64385377D01*
X118698500Y-64380763D01*
X118647706Y-64332788D01*
X118630912Y-64264966D01*
X118653451Y-64198832D01*
X118698508Y-64159793D01*
X118707816Y-64155051D01*
X118812704Y-64078846D01*
X118879786Y-64030109D01*
X118879788Y-64030106D01*
X118879792Y-64030104D01*
X119030104Y-63879792D01*
X119050183Y-63852155D01*
X174150000Y-63852155D01*
X174150000Y-64650000D01*
X174891759Y-64650000D01*
X174878822Y-64681233D01*
X174850000Y-64826131D01*
X174850000Y-64973869D01*
X174878822Y-65118767D01*
X174891759Y-65150000D01*
X174150000Y-65150000D01*
X174150000Y-65947844D01*
X174156401Y-66007372D01*
X174156403Y-66007379D01*
X174206645Y-66142086D01*
X174206649Y-66142093D01*
X174292809Y-66257187D01*
X174292812Y-66257190D01*
X174407906Y-66343350D01*
X174407913Y-66343354D01*
X174542620Y-66393596D01*
X174542627Y-66393598D01*
X174602155Y-66399999D01*
X174602172Y-66400000D01*
X176000000Y-66400000D01*
X176000000Y-65650000D01*
X176500000Y-65650000D01*
X176500000Y-66400000D01*
X177897828Y-66400000D01*
X177897844Y-66399999D01*
X177957372Y-66393598D01*
X177957379Y-66393596D01*
X178092086Y-66343354D01*
X178092093Y-66343350D01*
X178207187Y-66257190D01*
X178207190Y-66257187D01*
X178293350Y-66142093D01*
X178293354Y-66142086D01*
X178343596Y-66007379D01*
X178343598Y-66007372D01*
X178349999Y-65947844D01*
X178350000Y-65947827D01*
X178350000Y-65150000D01*
X177608241Y-65150000D01*
X177621178Y-65118767D01*
X177650000Y-64973869D01*
X177650000Y-64826131D01*
X177621178Y-64681233D01*
X177608241Y-64650000D01*
X178350000Y-64650000D01*
X178350000Y-63852172D01*
X178349999Y-63852155D01*
X178343598Y-63792627D01*
X178343596Y-63792620D01*
X178293354Y-63657913D01*
X178293350Y-63657906D01*
X178207190Y-63542812D01*
X178207187Y-63542809D01*
X178092093Y-63456649D01*
X178092086Y-63456645D01*
X177957379Y-63406403D01*
X177957372Y-63406401D01*
X177897844Y-63400000D01*
X176500000Y-63400000D01*
X176500000Y-64150000D01*
X176000000Y-64150000D01*
X176000000Y-63400000D01*
X174602155Y-63400000D01*
X174542627Y-63406401D01*
X174542620Y-63406403D01*
X174407913Y-63456645D01*
X174407906Y-63456649D01*
X174292812Y-63542809D01*
X174292809Y-63542812D01*
X174206649Y-63657906D01*
X174206645Y-63657913D01*
X174156403Y-63792620D01*
X174156401Y-63792627D01*
X174150000Y-63852155D01*
X119050183Y-63852155D01*
X119155051Y-63707816D01*
X119251557Y-63518412D01*
X119317246Y-63316243D01*
X119350500Y-63106287D01*
X119350500Y-62893713D01*
X119317246Y-62683757D01*
X119251557Y-62481588D01*
X119155051Y-62292184D01*
X119155049Y-62292181D01*
X119155048Y-62292179D01*
X119030109Y-62120213D01*
X118879786Y-61969890D01*
X118707820Y-61844951D01*
X118518414Y-61748444D01*
X118518413Y-61748443D01*
X118518412Y-61748443D01*
X118316243Y-61682754D01*
X118316241Y-61682753D01*
X118316240Y-61682753D01*
X118154957Y-61657208D01*
X118106287Y-61649500D01*
X115893713Y-61649500D01*
X115845042Y-61657208D01*
X115683760Y-61682753D01*
X115582672Y-61715598D01*
X115527612Y-61733489D01*
X115481585Y-61748444D01*
X115292179Y-61844951D01*
X115120213Y-61969890D01*
X114969890Y-62120213D01*
X114844951Y-62292179D01*
X114748444Y-62481585D01*
X114682753Y-62683760D01*
X114649500Y-62893713D01*
X114649500Y-63106287D01*
X114682754Y-63316243D01*
X114739117Y-63489711D01*
X114748444Y-63518414D01*
X114844951Y-63707820D01*
X114969890Y-63879786D01*
X115120213Y-64030109D01*
X115292179Y-64155048D01*
X115292181Y-64155049D01*
X115292184Y-64155051D01*
X115301493Y-64159794D01*
X115352290Y-64207766D01*
X115369087Y-64275587D01*
X115346552Y-64341722D01*
X115301502Y-64380762D01*
X115292443Y-64385378D01*
X115120540Y-64510272D01*
X115120535Y-64510276D01*
X114970276Y-64660535D01*
X114970272Y-64660540D01*
X114845379Y-64832442D01*
X114748904Y-65021782D01*
X114683242Y-65223870D01*
X114683242Y-65223873D01*
X114672769Y-65290000D01*
X115566988Y-65290000D01*
X115534075Y-65347007D01*
X115500000Y-65474174D01*
X115500000Y-65605826D01*
X115534075Y-65732993D01*
X115566988Y-65790000D01*
X114672769Y-65790000D01*
X114683242Y-65856126D01*
X114683242Y-65856129D01*
X114748904Y-66058217D01*
X114845379Y-66247557D01*
X114970272Y-66419459D01*
X114970276Y-66419464D01*
X115120535Y-66569723D01*
X115120540Y-66569727D01*
X115292444Y-66694622D01*
X115301495Y-66699234D01*
X115352292Y-66747208D01*
X115369087Y-66815029D01*
X115346550Y-66881164D01*
X115301499Y-66920202D01*
X115292182Y-66924949D01*
X115120213Y-67049890D01*
X114969890Y-67200213D01*
X114844951Y-67372179D01*
X114748444Y-67561585D01*
X114682753Y-67763760D01*
X114661572Y-67897491D01*
X114649500Y-67973713D01*
X114649500Y-68186287D01*
X114659534Y-68249644D01*
X114678393Y-68368713D01*
X114682754Y-68396243D01*
X114746743Y-68593181D01*
X114748444Y-68598414D01*
X114844951Y-68787820D01*
X114969890Y-68959786D01*
X115120213Y-69110109D01*
X115292182Y-69235050D01*
X115300946Y-69239516D01*
X115351742Y-69287491D01*
X115368536Y-69355312D01*
X115345998Y-69421447D01*
X115300946Y-69460484D01*
X115292182Y-69464949D01*
X115120213Y-69589890D01*
X114969890Y-69740213D01*
X114844951Y-69912179D01*
X114748444Y-70101585D01*
X114682753Y-70303760D01*
X114662098Y-70434174D01*
X114649500Y-70513713D01*
X114649500Y-70726287D01*
X114655869Y-70766498D01*
X114682754Y-70936244D01*
X114682754Y-70936247D01*
X114696491Y-70978523D01*
X114698486Y-71048364D01*
X114666241Y-71104522D01*
X105825730Y-79945034D01*
X105713925Y-80056838D01*
X105713923Y-80056841D01*
X105663805Y-80143650D01*
X105663803Y-80143652D01*
X105634869Y-80193765D01*
X105634868Y-80193766D01*
X105634867Y-80193771D01*
X105593943Y-80346499D01*
X105593943Y-80346501D01*
X105593943Y-80514602D01*
X105593944Y-80514615D01*
X105593944Y-92393699D01*
X105574259Y-92460738D01*
X105526239Y-92504184D01*
X105355595Y-92591132D01*
X105151794Y-92739201D01*
X105151789Y-92739205D01*
X104973649Y-92917345D01*
X104973645Y-92917350D01*
X104825576Y-93121151D01*
X104711204Y-93345616D01*
X104633354Y-93585214D01*
X104593944Y-93834038D01*
X91000500Y-93834038D01*
X91000500Y-61421153D01*
X93699500Y-61421153D01*
X93699500Y-61578846D01*
X93730261Y-61733489D01*
X93730264Y-61733501D01*
X93790602Y-61879172D01*
X93790609Y-61879185D01*
X93878210Y-62010288D01*
X93878213Y-62010292D01*
X93989707Y-62121786D01*
X93989711Y-62121789D01*
X94120814Y-62209390D01*
X94120827Y-62209397D01*
X94266498Y-62269735D01*
X94266503Y-62269737D01*
X94331147Y-62282595D01*
X94421849Y-62300638D01*
X94483760Y-62333023D01*
X94485339Y-62334574D01*
X95515139Y-63364374D01*
X95515149Y-63364385D01*
X95519479Y-63368715D01*
X95519480Y-63368716D01*
X95631284Y-63480520D01*
X95631286Y-63480521D01*
X95631290Y-63480524D01*
X95739178Y-63542812D01*
X95768216Y-63559577D01*
X95880019Y-63589534D01*
X95920942Y-63600500D01*
X95920943Y-63600500D01*
X97375501Y-63600500D01*
X97442540Y-63620185D01*
X97488295Y-63672989D01*
X97499501Y-63724500D01*
X97499501Y-63897876D01*
X97505908Y-63957483D01*
X97556202Y-64092328D01*
X97556206Y-64092335D01*
X97642452Y-64207544D01*
X97642455Y-64207547D01*
X97757664Y-64293793D01*
X97757673Y-64293798D01*
X97852664Y-64329227D01*
X97908598Y-64371098D01*
X97933016Y-64436562D01*
X97918165Y-64504835D01*
X97897014Y-64533090D01*
X97769889Y-64660215D01*
X97644948Y-64832184D01*
X97644947Y-64832185D01*
X97624765Y-64871795D01*
X97576791Y-64922591D01*
X97514281Y-64939500D01*
X96340097Y-64939500D01*
X96273058Y-64919815D01*
X96252416Y-64903181D01*
X95334574Y-63985339D01*
X95301089Y-63924016D01*
X95300638Y-63921849D01*
X95269738Y-63766510D01*
X95269737Y-63766503D01*
X95245430Y-63707820D01*
X95209397Y-63620827D01*
X95209390Y-63620814D01*
X95121789Y-63489711D01*
X95121786Y-63489707D01*
X95010292Y-63378213D01*
X95010288Y-63378210D01*
X94879185Y-63290609D01*
X94879172Y-63290602D01*
X94733501Y-63230264D01*
X94733489Y-63230261D01*
X94578845Y-63199500D01*
X94578842Y-63199500D01*
X94421158Y-63199500D01*
X94421155Y-63199500D01*
X94266510Y-63230261D01*
X94266498Y-63230264D01*
X94120827Y-63290602D01*
X94120814Y-63290609D01*
X93989711Y-63378210D01*
X93989707Y-63378213D01*
X93878213Y-63489707D01*
X93878210Y-63489711D01*
X93790609Y-63620814D01*
X93790602Y-63620827D01*
X93730264Y-63766498D01*
X93730261Y-63766510D01*
X93699500Y-63921153D01*
X93699500Y-64078846D01*
X93730261Y-64233489D01*
X93730264Y-64233501D01*
X93790602Y-64379172D01*
X93790609Y-64379185D01*
X93878210Y-64510288D01*
X93878213Y-64510292D01*
X93989707Y-64621786D01*
X93989711Y-64621789D01*
X94120814Y-64709390D01*
X94120827Y-64709397D01*
X94266498Y-64769735D01*
X94266503Y-64769737D01*
X94331147Y-64782595D01*
X94421849Y-64800638D01*
X94483760Y-64833023D01*
X94485339Y-64834574D01*
X95555139Y-65904374D01*
X95555149Y-65904385D01*
X95559479Y-65908715D01*
X95559480Y-65908716D01*
X95671284Y-66020520D01*
X95746714Y-66064069D01*
X95746715Y-66064070D01*
X95808209Y-66099574D01*
X95808212Y-66099576D01*
X95808214Y-66099576D01*
X95808215Y-66099577D01*
X95960943Y-66140501D01*
X95960946Y-66140501D01*
X96126653Y-66140501D01*
X96126669Y-66140500D01*
X97514281Y-66140500D01*
X97581320Y-66160185D01*
X97624765Y-66208205D01*
X97644947Y-66247814D01*
X97644948Y-66247815D01*
X97769890Y-66419786D01*
X97920213Y-66570109D01*
X98092182Y-66695050D01*
X98100946Y-66699516D01*
X98151742Y-66747491D01*
X98168536Y-66815312D01*
X98145998Y-66881447D01*
X98100946Y-66920484D01*
X98092182Y-66924949D01*
X97920213Y-67049890D01*
X97769890Y-67200213D01*
X97644948Y-67372184D01*
X97644947Y-67372185D01*
X97624765Y-67411795D01*
X97576791Y-67462591D01*
X97514281Y-67479500D01*
X96380097Y-67479500D01*
X96313058Y-67459815D01*
X96292416Y-67443181D01*
X95334574Y-66485339D01*
X95301089Y-66424016D01*
X95300638Y-66421849D01*
X95269738Y-66266510D01*
X95269737Y-66266503D01*
X95269735Y-66266498D01*
X95209397Y-66120827D01*
X95209390Y-66120814D01*
X95121789Y-65989711D01*
X95121786Y-65989707D01*
X95010292Y-65878213D01*
X95010288Y-65878210D01*
X94879185Y-65790609D01*
X94879172Y-65790602D01*
X94733501Y-65730264D01*
X94733489Y-65730261D01*
X94578845Y-65699500D01*
X94578842Y-65699500D01*
X94421158Y-65699500D01*
X94421155Y-65699500D01*
X94266510Y-65730261D01*
X94266498Y-65730264D01*
X94120827Y-65790602D01*
X94120814Y-65790609D01*
X93989711Y-65878210D01*
X93989707Y-65878213D01*
X93878213Y-65989707D01*
X93878210Y-65989711D01*
X93790609Y-66120814D01*
X93790602Y-66120827D01*
X93730264Y-66266498D01*
X93730261Y-66266510D01*
X93699500Y-66421153D01*
X93699500Y-66578846D01*
X93730261Y-66733489D01*
X93730264Y-66733501D01*
X93790602Y-66879172D01*
X93790609Y-66879185D01*
X93878210Y-67010288D01*
X93878213Y-67010292D01*
X93989707Y-67121786D01*
X93989711Y-67121789D01*
X94120814Y-67209390D01*
X94120827Y-67209397D01*
X94217832Y-67249577D01*
X94266503Y-67269737D01*
X94315756Y-67279534D01*
X94421849Y-67300638D01*
X94483760Y-67333023D01*
X94485339Y-67334574D01*
X95595139Y-68444374D01*
X95595149Y-68444385D01*
X95599479Y-68448715D01*
X95599480Y-68448716D01*
X95711284Y-68560520D01*
X95711286Y-68560521D01*
X95711290Y-68560524D01*
X95830762Y-68629500D01*
X95848216Y-68639577D01*
X95960019Y-68669534D01*
X96000942Y-68680500D01*
X96000943Y-68680500D01*
X97514281Y-68680500D01*
X97581320Y-68700185D01*
X97624765Y-68748205D01*
X97644947Y-68787814D01*
X97644948Y-68787815D01*
X97769890Y-68959786D01*
X97920213Y-69110109D01*
X98092182Y-69235050D01*
X98100946Y-69239516D01*
X98151742Y-69287491D01*
X98168536Y-69355312D01*
X98145998Y-69421447D01*
X98100946Y-69460484D01*
X98092182Y-69464949D01*
X97920213Y-69589890D01*
X97769890Y-69740213D01*
X97644951Y-69912179D01*
X97548444Y-70101585D01*
X97482753Y-70303760D01*
X97462098Y-70434174D01*
X97449500Y-70513713D01*
X97449500Y-70726287D01*
X97455869Y-70766498D01*
X97480364Y-70921158D01*
X97482754Y-70936243D01*
X97546743Y-71133181D01*
X97548444Y-71138414D01*
X97644951Y-71327820D01*
X97769890Y-71499786D01*
X97920213Y-71650109D01*
X98092182Y-71775050D01*
X98100946Y-71779516D01*
X98151742Y-71827491D01*
X98168536Y-71895312D01*
X98145998Y-71961447D01*
X98100946Y-72000484D01*
X98092182Y-72004949D01*
X97920213Y-72129890D01*
X97769890Y-72280213D01*
X97644948Y-72452184D01*
X97644947Y-72452185D01*
X97624765Y-72491795D01*
X97576791Y-72542591D01*
X97514281Y-72559500D01*
X96926669Y-72559500D01*
X96926653Y-72559499D01*
X96919057Y-72559499D01*
X96760943Y-72559499D01*
X96653587Y-72588265D01*
X96608210Y-72600424D01*
X96608209Y-72600425D01*
X96558096Y-72629359D01*
X96558095Y-72629360D01*
X96514689Y-72654420D01*
X96471285Y-72679479D01*
X96471282Y-72679481D01*
X94985339Y-74165425D01*
X94924016Y-74198910D01*
X94921850Y-74199361D01*
X94766508Y-74230261D01*
X94766498Y-74230264D01*
X94620827Y-74290602D01*
X94620814Y-74290609D01*
X94489711Y-74378210D01*
X94489707Y-74378213D01*
X94378213Y-74489707D01*
X94378210Y-74489711D01*
X94290609Y-74620814D01*
X94290602Y-74620827D01*
X94230264Y-74766498D01*
X94230261Y-74766510D01*
X94199500Y-74921153D01*
X94199500Y-75078846D01*
X94230261Y-75233489D01*
X94230264Y-75233501D01*
X94290602Y-75379172D01*
X94290609Y-75379185D01*
X94378210Y-75510288D01*
X94378213Y-75510292D01*
X94489707Y-75621786D01*
X94489711Y-75621789D01*
X94620814Y-75709390D01*
X94620827Y-75709397D01*
X94706159Y-75744742D01*
X94766503Y-75769737D01*
X94921153Y-75800499D01*
X94921156Y-75800500D01*
X94921158Y-75800500D01*
X95078844Y-75800500D01*
X95078845Y-75800499D01*
X95233497Y-75769737D01*
X95379179Y-75709394D01*
X95510289Y-75621789D01*
X95621789Y-75510289D01*
X95709394Y-75379179D01*
X95769737Y-75233497D01*
X95793972Y-75111662D01*
X95800638Y-75078150D01*
X95833023Y-75016239D01*
X95834518Y-75014716D01*
X97052416Y-73796819D01*
X97113739Y-73763334D01*
X97140097Y-73760500D01*
X97514281Y-73760500D01*
X97581320Y-73780185D01*
X97624765Y-73828205D01*
X97644947Y-73867814D01*
X97644948Y-73867815D01*
X97769890Y-74039786D01*
X97920213Y-74190109D01*
X98092182Y-74315050D01*
X98100946Y-74319516D01*
X98151742Y-74367491D01*
X98168536Y-74435312D01*
X98145998Y-74501447D01*
X98100946Y-74540484D01*
X98092182Y-74544949D01*
X97920213Y-74669890D01*
X97769890Y-74820213D01*
X97644948Y-74992184D01*
X97644947Y-74992185D01*
X97624765Y-75031795D01*
X97576791Y-75082591D01*
X97514281Y-75099500D01*
X96720940Y-75099500D01*
X96680019Y-75110464D01*
X96680019Y-75110465D01*
X96642751Y-75120451D01*
X96568214Y-75140423D01*
X96568209Y-75140426D01*
X96431290Y-75219475D01*
X96431282Y-75219481D01*
X94985339Y-76665425D01*
X94924016Y-76698910D01*
X94921850Y-76699361D01*
X94766508Y-76730261D01*
X94766498Y-76730264D01*
X94620827Y-76790602D01*
X94620814Y-76790609D01*
X94489711Y-76878210D01*
X94489707Y-76878213D01*
X94378213Y-76989707D01*
X94378210Y-76989711D01*
X94290609Y-77120814D01*
X94290602Y-77120827D01*
X94230264Y-77266498D01*
X94230261Y-77266510D01*
X94199500Y-77421153D01*
X94199500Y-77578846D01*
X94230261Y-77733489D01*
X94230264Y-77733501D01*
X94290602Y-77879172D01*
X94290609Y-77879185D01*
X94378210Y-78010288D01*
X94378213Y-78010292D01*
X94489707Y-78121786D01*
X94489711Y-78121789D01*
X94620814Y-78209390D01*
X94620827Y-78209397D01*
X94766498Y-78269735D01*
X94766503Y-78269737D01*
X94921153Y-78300499D01*
X94921156Y-78300500D01*
X94921158Y-78300500D01*
X95078844Y-78300500D01*
X95078845Y-78300499D01*
X95233497Y-78269737D01*
X95379179Y-78209394D01*
X95510289Y-78121789D01*
X95621789Y-78010289D01*
X95709394Y-77879179D01*
X95769737Y-77733497D01*
X95789113Y-77636085D01*
X95800638Y-77578150D01*
X95833023Y-77516239D01*
X95834518Y-77514716D01*
X97012416Y-76336819D01*
X97073739Y-76303334D01*
X97100097Y-76300500D01*
X97514281Y-76300500D01*
X97581320Y-76320185D01*
X97624765Y-76368205D01*
X97644947Y-76407814D01*
X97644948Y-76407815D01*
X97769890Y-76579786D01*
X97920213Y-76730109D01*
X98092182Y-76855050D01*
X98100946Y-76859516D01*
X98151742Y-76907491D01*
X98168536Y-76975312D01*
X98145998Y-77041447D01*
X98100946Y-77080484D01*
X98092182Y-77084949D01*
X97920213Y-77209890D01*
X97769890Y-77360213D01*
X97644951Y-77532179D01*
X97548444Y-77721585D01*
X97482753Y-77923760D01*
X97469048Y-78010292D01*
X97449500Y-78133713D01*
X97449500Y-78346287D01*
X97482754Y-78556243D01*
X97539629Y-78731286D01*
X97548444Y-78758414D01*
X97644951Y-78947820D01*
X97769890Y-79119786D01*
X97920213Y-79270109D01*
X98092179Y-79395048D01*
X98092181Y-79395049D01*
X98092184Y-79395051D01*
X98281588Y-79491557D01*
X98483757Y-79557246D01*
X98693713Y-79590500D01*
X98693714Y-79590500D01*
X100806286Y-79590500D01*
X100806287Y-79590500D01*
X101016243Y-79557246D01*
X101218412Y-79491557D01*
X101407816Y-79395051D01*
X101444067Y-79368713D01*
X101579786Y-79270109D01*
X101579788Y-79270106D01*
X101579792Y-79270104D01*
X101730104Y-79119792D01*
X101730106Y-79119788D01*
X101730109Y-79119786D01*
X101855048Y-78947820D01*
X101855047Y-78947820D01*
X101855051Y-78947816D01*
X101951557Y-78758412D01*
X102017246Y-78556243D01*
X102050500Y-78346287D01*
X102050500Y-78133713D01*
X102017246Y-77923757D01*
X101951557Y-77721588D01*
X101855051Y-77532184D01*
X101855049Y-77532181D01*
X101855048Y-77532179D01*
X101730109Y-77360213D01*
X101579786Y-77209890D01*
X101407820Y-77084951D01*
X101407115Y-77084591D01*
X101399054Y-77080485D01*
X101348259Y-77032512D01*
X101331463Y-76964692D01*
X101353999Y-76898556D01*
X101399054Y-76859515D01*
X101407816Y-76855051D01*
X101454439Y-76821178D01*
X101579786Y-76730109D01*
X101579788Y-76730106D01*
X101579792Y-76730104D01*
X101730104Y-76579792D01*
X101730106Y-76579788D01*
X101730109Y-76579786D01*
X101855048Y-76407820D01*
X101855047Y-76407820D01*
X101855051Y-76407816D01*
X101951557Y-76218412D01*
X102017246Y-76016243D01*
X102050500Y-75806287D01*
X102050500Y-75593713D01*
X102017246Y-75383757D01*
X101951557Y-75181588D01*
X101855051Y-74992184D01*
X101855049Y-74992181D01*
X101855048Y-74992179D01*
X101730109Y-74820213D01*
X101579786Y-74669890D01*
X101407820Y-74544951D01*
X101407115Y-74544591D01*
X101399054Y-74540485D01*
X101348259Y-74492512D01*
X101331463Y-74424692D01*
X101353999Y-74358556D01*
X101399054Y-74319515D01*
X101407816Y-74315051D01*
X101472281Y-74268215D01*
X101579786Y-74190109D01*
X101579792Y-74190104D01*
X101652889Y-74117007D01*
X101730104Y-74039792D01*
X101730106Y-74039788D01*
X101730109Y-74039786D01*
X101855048Y-73867820D01*
X101855047Y-73867820D01*
X101855051Y-73867816D01*
X101951557Y-73678412D01*
X102017246Y-73476243D01*
X102050500Y-73266287D01*
X102050500Y-73053713D01*
X102017246Y-72843757D01*
X101951557Y-72641588D01*
X101855051Y-72452184D01*
X101855049Y-72452181D01*
X101855048Y-72452179D01*
X101730109Y-72280213D01*
X101579786Y-72129890D01*
X101407820Y-72004951D01*
X101407115Y-72004591D01*
X101399054Y-72000485D01*
X101348259Y-71952512D01*
X101331463Y-71884692D01*
X101353999Y-71818556D01*
X101399054Y-71779515D01*
X101407816Y-71775051D01*
X101473327Y-71727455D01*
X101579786Y-71650109D01*
X101579788Y-71650106D01*
X101579792Y-71650104D01*
X101730104Y-71499792D01*
X101730106Y-71499788D01*
X101730109Y-71499786D01*
X101855048Y-71327820D01*
X101855047Y-71327820D01*
X101855051Y-71327816D01*
X101951557Y-71138412D01*
X102017246Y-70936243D01*
X102050500Y-70726287D01*
X102050500Y-70513713D01*
X102017246Y-70303757D01*
X101951557Y-70101588D01*
X101855051Y-69912184D01*
X101855049Y-69912181D01*
X101855048Y-69912179D01*
X101730109Y-69740213D01*
X101579786Y-69589890D01*
X101407820Y-69464951D01*
X101405076Y-69463553D01*
X101399054Y-69460485D01*
X101348259Y-69412512D01*
X101331463Y-69344692D01*
X101353999Y-69278556D01*
X101399054Y-69239515D01*
X101407816Y-69235051D01*
X101443136Y-69209390D01*
X101579786Y-69110109D01*
X101579788Y-69110106D01*
X101579792Y-69110104D01*
X101730104Y-68959792D01*
X101730106Y-68959788D01*
X101730109Y-68959786D01*
X101855048Y-68787820D01*
X101855047Y-68787820D01*
X101855051Y-68787816D01*
X101951557Y-68598412D01*
X102017246Y-68396243D01*
X102050500Y-68186287D01*
X102050500Y-67973713D01*
X102017246Y-67763757D01*
X101951557Y-67561588D01*
X101855051Y-67372184D01*
X101855049Y-67372181D01*
X101855048Y-67372179D01*
X101730109Y-67200213D01*
X101579786Y-67049890D01*
X101407820Y-66924951D01*
X101407115Y-66924591D01*
X101399054Y-66920485D01*
X101348259Y-66872512D01*
X101331463Y-66804692D01*
X101353999Y-66738556D01*
X101399054Y-66699515D01*
X101407816Y-66695051D01*
X101480213Y-66642452D01*
X101579786Y-66570109D01*
X101579788Y-66570106D01*
X101579792Y-66570104D01*
X101730104Y-66419792D01*
X101730106Y-66419788D01*
X101730109Y-66419786D01*
X101855048Y-66247820D01*
X101855047Y-66247820D01*
X101855051Y-66247816D01*
X101951557Y-66058412D01*
X102017246Y-65856243D01*
X102050500Y-65646287D01*
X102050500Y-65433713D01*
X102017246Y-65223757D01*
X101951557Y-65021588D01*
X101855051Y-64832184D01*
X101855049Y-64832181D01*
X101855048Y-64832179D01*
X101730109Y-64660213D01*
X101602986Y-64533090D01*
X101569501Y-64471767D01*
X101574485Y-64402075D01*
X101616357Y-64346142D01*
X101647335Y-64329227D01*
X101742326Y-64293798D01*
X101742326Y-64293797D01*
X101742331Y-64293796D01*
X101857546Y-64207546D01*
X101943796Y-64092331D01*
X101994091Y-63957483D01*
X102000500Y-63897873D01*
X102000499Y-62102128D01*
X101994091Y-62042517D01*
X101982070Y-62010288D01*
X101943797Y-61907671D01*
X101943793Y-61907664D01*
X101857547Y-61792455D01*
X101857544Y-61792452D01*
X101742335Y-61706206D01*
X101742328Y-61706202D01*
X101607482Y-61655908D01*
X101607483Y-61655908D01*
X101547883Y-61649501D01*
X101547881Y-61649500D01*
X101547873Y-61649500D01*
X101547864Y-61649500D01*
X97952129Y-61649500D01*
X97952123Y-61649501D01*
X97892516Y-61655908D01*
X97757671Y-61706202D01*
X97757664Y-61706206D01*
X97642455Y-61792452D01*
X97642452Y-61792455D01*
X97556206Y-61907664D01*
X97556202Y-61907671D01*
X97505908Y-62042517D01*
X97499501Y-62102116D01*
X97499501Y-62102123D01*
X97499500Y-62102135D01*
X97499500Y-62275500D01*
X97479815Y-62342539D01*
X97427011Y-62388294D01*
X97375500Y-62399500D01*
X96300097Y-62399500D01*
X96233058Y-62379815D01*
X96212416Y-62363181D01*
X95334574Y-61485339D01*
X95301089Y-61424016D01*
X95300638Y-61421849D01*
X95269738Y-61266510D01*
X95269737Y-61266503D01*
X95269735Y-61266498D01*
X95209397Y-61120827D01*
X95209390Y-61120814D01*
X95121789Y-60989711D01*
X95121786Y-60989707D01*
X95010292Y-60878213D01*
X95010288Y-60878210D01*
X94879185Y-60790609D01*
X94879172Y-60790602D01*
X94733501Y-60730264D01*
X94733489Y-60730261D01*
X94578845Y-60699500D01*
X94578842Y-60699500D01*
X94421158Y-60699500D01*
X94421155Y-60699500D01*
X94266510Y-60730261D01*
X94266498Y-60730264D01*
X94120827Y-60790602D01*
X94120814Y-60790609D01*
X93989711Y-60878210D01*
X93989707Y-60878213D01*
X93878213Y-60989707D01*
X93878210Y-60989711D01*
X93790609Y-61120814D01*
X93790602Y-61120827D01*
X93730264Y-61266498D01*
X93730261Y-61266510D01*
X93699500Y-61421153D01*
X91000500Y-61421153D01*
X91000500Y-56502706D01*
X91000618Y-56497297D01*
X91006028Y-56373394D01*
X92199500Y-56373394D01*
X92199500Y-56697673D01*
X92231284Y-57020391D01*
X92231287Y-57020408D01*
X92294545Y-57338436D01*
X92294548Y-57338447D01*
X92388686Y-57648781D01*
X92512786Y-57948383D01*
X92512788Y-57948388D01*
X92665646Y-58234364D01*
X92665657Y-58234382D01*
X92845811Y-58504001D01*
X92845821Y-58504015D01*
X93051546Y-58754692D01*
X93280841Y-58983987D01*
X93280846Y-58983991D01*
X93280847Y-58983992D01*
X93531524Y-59189717D01*
X93801158Y-59369881D01*
X93801167Y-59369886D01*
X93801169Y-59369887D01*
X94087145Y-59522745D01*
X94087147Y-59522745D01*
X94087153Y-59522749D01*
X94386754Y-59646848D01*
X94697077Y-59740983D01*
X94697083Y-59740984D01*
X94697086Y-59740985D01*
X94697097Y-59740988D01*
X94896528Y-59780656D01*
X95015132Y-59804248D01*
X95337857Y-59836034D01*
X95337860Y-59836034D01*
X95662140Y-59836034D01*
X95662143Y-59836034D01*
X95984868Y-59804248D01*
X96163520Y-59768712D01*
X96302902Y-59740988D01*
X96302913Y-59740985D01*
X96302913Y-59740984D01*
X96302923Y-59740983D01*
X96613246Y-59646848D01*
X96912847Y-59522749D01*
X97198842Y-59369881D01*
X97468476Y-59189717D01*
X97719153Y-58983992D01*
X97948458Y-58754687D01*
X98154183Y-58504010D01*
X98334347Y-58234376D01*
X98487215Y-57948381D01*
X98611314Y-57648780D01*
X98705449Y-57338457D01*
X98705451Y-57338447D01*
X98705454Y-57338436D01*
X98737399Y-57177829D01*
X98768714Y-57020402D01*
X98800500Y-56697677D01*
X98800500Y-56373391D01*
X98797000Y-56337857D01*
X179663966Y-56337857D01*
X179663966Y-56662143D01*
X179667466Y-56697677D01*
X179695750Y-56984857D01*
X179695753Y-56984874D01*
X179759011Y-57302902D01*
X179759014Y-57302913D01*
X179853152Y-57613247D01*
X179977252Y-57912849D01*
X179977254Y-57912854D01*
X180130112Y-58198830D01*
X180130123Y-58198848D01*
X180310277Y-58468467D01*
X180310287Y-58468481D01*
X180516012Y-58719158D01*
X180745307Y-58948453D01*
X180745312Y-58948457D01*
X180745313Y-58948458D01*
X180995990Y-59154183D01*
X181265624Y-59334347D01*
X181265633Y-59334352D01*
X181265635Y-59334353D01*
X181551611Y-59487211D01*
X181551613Y-59487211D01*
X181551619Y-59487215D01*
X181851220Y-59611314D01*
X182161543Y-59705449D01*
X182161549Y-59705450D01*
X182161552Y-59705451D01*
X182161563Y-59705454D01*
X182360994Y-59745122D01*
X182479598Y-59768714D01*
X182802323Y-59800500D01*
X182802326Y-59800500D01*
X183126606Y-59800500D01*
X183126609Y-59800500D01*
X183449334Y-59768714D01*
X183606761Y-59737399D01*
X183767368Y-59705454D01*
X183767379Y-59705451D01*
X183767379Y-59705450D01*
X183767389Y-59705449D01*
X184077712Y-59611314D01*
X184377313Y-59487215D01*
X184663308Y-59334347D01*
X184932942Y-59154183D01*
X185183619Y-58948458D01*
X185412924Y-58719153D01*
X185618649Y-58468476D01*
X185798813Y-58198842D01*
X185951681Y-57912847D01*
X186075780Y-57613246D01*
X186169915Y-57302923D01*
X186169917Y-57302913D01*
X186169920Y-57302902D01*
X186201865Y-57142295D01*
X186233180Y-56984868D01*
X186264966Y-56662143D01*
X186264966Y-56337857D01*
X186233180Y-56015132D01*
X186209588Y-55896528D01*
X186169920Y-55697097D01*
X186169917Y-55697086D01*
X186169916Y-55697083D01*
X186169915Y-55697077D01*
X186075780Y-55386754D01*
X185951681Y-55087153D01*
X185884293Y-54961080D01*
X185798819Y-54801169D01*
X185798818Y-54801167D01*
X185798813Y-54801158D01*
X185618649Y-54531524D01*
X185412924Y-54280847D01*
X185412923Y-54280846D01*
X185412919Y-54280841D01*
X185183624Y-54051546D01*
X184932947Y-53845821D01*
X184932946Y-53845820D01*
X184932942Y-53845817D01*
X184663308Y-53665653D01*
X184663303Y-53665650D01*
X184663296Y-53665646D01*
X184377320Y-53512788D01*
X184377315Y-53512786D01*
X184077713Y-53388686D01*
X183767379Y-53294548D01*
X183767368Y-53294545D01*
X183449340Y-53231287D01*
X183449323Y-53231284D01*
X183205278Y-53207248D01*
X183126609Y-53199500D01*
X182802323Y-53199500D01*
X182729565Y-53206666D01*
X182479608Y-53231284D01*
X182479591Y-53231287D01*
X182161563Y-53294545D01*
X182161552Y-53294548D01*
X181851218Y-53388686D01*
X181551616Y-53512786D01*
X181551611Y-53512788D01*
X181265635Y-53665646D01*
X181265617Y-53665657D01*
X180995998Y-53845811D01*
X180995984Y-53845821D01*
X180745307Y-54051546D01*
X180516012Y-54280841D01*
X180310287Y-54531518D01*
X180310277Y-54531532D01*
X180130123Y-54801151D01*
X180130112Y-54801169D01*
X179977254Y-55087145D01*
X179977252Y-55087150D01*
X179853152Y-55386752D01*
X179759014Y-55697086D01*
X179759011Y-55697097D01*
X179695753Y-56015125D01*
X179695750Y-56015142D01*
X179686088Y-56113248D01*
X179663966Y-56337857D01*
X98797000Y-56337857D01*
X98768714Y-56050666D01*
X98745122Y-55932062D01*
X98705454Y-55732631D01*
X98705451Y-55732620D01*
X98705450Y-55732617D01*
X98705449Y-55732611D01*
X98611314Y-55422288D01*
X98487215Y-55122687D01*
X98468217Y-55087145D01*
X98334353Y-54836703D01*
X98334352Y-54836701D01*
X98334347Y-54836692D01*
X98154183Y-54567058D01*
X97948458Y-54316381D01*
X97948457Y-54316380D01*
X97948453Y-54316375D01*
X97719158Y-54087080D01*
X97468481Y-53881355D01*
X97468480Y-53881354D01*
X97468476Y-53881351D01*
X97198842Y-53701187D01*
X97198837Y-53701184D01*
X97198830Y-53701180D01*
X96912854Y-53548322D01*
X96912849Y-53548320D01*
X96613247Y-53424220D01*
X96302913Y-53330082D01*
X96302902Y-53330079D01*
X95984874Y-53266821D01*
X95984857Y-53266818D01*
X95740812Y-53242782D01*
X95662143Y-53235034D01*
X95337857Y-53235034D01*
X95265099Y-53242200D01*
X95015142Y-53266818D01*
X95015125Y-53266821D01*
X94697097Y-53330079D01*
X94697086Y-53330082D01*
X94386752Y-53424220D01*
X94087150Y-53548320D01*
X94087145Y-53548322D01*
X93801169Y-53701180D01*
X93801151Y-53701191D01*
X93531532Y-53881345D01*
X93531518Y-53881355D01*
X93280841Y-54087080D01*
X93051546Y-54316375D01*
X92845821Y-54567052D01*
X92845811Y-54567066D01*
X92665657Y-54836685D01*
X92665646Y-54836703D01*
X92512788Y-55122679D01*
X92512786Y-55122684D01*
X92388686Y-55422286D01*
X92294548Y-55732620D01*
X92294545Y-55732631D01*
X92231287Y-56050659D01*
X92231284Y-56050676D01*
X92209437Y-56272498D01*
X92202103Y-56346968D01*
X92199500Y-56373394D01*
X91006028Y-56373394D01*
X91006397Y-56364938D01*
X91006397Y-56364937D01*
X91006429Y-56364181D01*
X91017386Y-56113226D01*
X91018325Y-56102496D01*
X91068151Y-55724032D01*
X91070024Y-55713402D01*
X91152648Y-55340714D01*
X91155446Y-55330276D01*
X91270230Y-54966227D01*
X91273917Y-54956095D01*
X91420003Y-54603412D01*
X91424561Y-54593638D01*
X91600822Y-54255045D01*
X91606217Y-54245700D01*
X91811325Y-53923744D01*
X91817515Y-53914905D01*
X92049896Y-53612060D01*
X92056834Y-53603791D01*
X92314726Y-53322352D01*
X92322352Y-53314726D01*
X92603791Y-53056834D01*
X92612060Y-53049896D01*
X92914905Y-52817515D01*
X92923744Y-52811325D01*
X93245700Y-52606217D01*
X93255045Y-52600822D01*
X93593638Y-52424561D01*
X93603412Y-52420003D01*
X93956095Y-52273917D01*
X93966227Y-52270230D01*
X94330285Y-52155443D01*
X94340714Y-52152648D01*
X94713402Y-52070024D01*
X94724032Y-52068151D01*
X95102496Y-52018325D01*
X95113224Y-52017387D01*
X95497297Y-52000617D01*
X95502706Y-52000500D01*
X95565892Y-52000500D01*
X182934108Y-52000500D01*
X182997294Y-52000500D01*
X183002702Y-52000617D01*
G37*
%TD.AperFunction*%
%TD*%
M02*
