ISO-10303-21;
HEADER;
/* Generated by software containing ST-Developer
 * from STEP Tools, Inc. (www.steptools.com) 
 */
/* OPTION: using custom renumber hook */

FILE_DESCRIPTION(
/* description */ ('STEP AP242 Edition 2',
'CAx-IF Rec.Pracs.---Representation and Presentation of Product Manufa
cturing Information (PMI)---4.0---2014-10-13',
'CAx-IF Rec.Pracs.---3D Tessellated Geometry---0.4---2014-09-14','2;1',
'CAx-IF Rec.Pracs.---User Defined Attributes---1.5---2016-08-15'),
/* implementation_level */ '2;1');

FILE_NAME(
/* name */ 'Part Studio 1 - Part 1',
/* time_stamp */ '2026-09-27T13:36:00Z',
/* author */ (''),
/* organization */ (''),
/* preprocessor_version */ 'ST-DEVELOPER v20',
/* originating_system */ 'ONSHAPE BY PTC INC, 1.221',
/* authorisation */ '  ');

FILE_SCHEMA (('AP242_MANAGED_MODEL_BASED_3D_ENGINEERING_MIM_LF { 1 0 10303 442 3 1 4 }'));
ENDSEC;

DATA;
#10=SHAPE_REPRESENTATION_RELATIONSHIP('','',#929,#11);
#11=ADVANCED_BREP_SHAPE_REPRESENTATION('',(#927),#1473);
#12=CYLINDRICAL_SURFACE('',#947,0.0015);
#13=CYLINDRICAL_SURFACE('',#948,0.0015);
#14=CYLINDRICAL_SURFACE('',#949,0.0015);
#15=CYLINDRICAL_SURFACE('',#950,0.0015);
#16=CYLINDRICAL_SURFACE('',#951,0.0015);
#17=LINE('',#1233,#125);
#18=LINE('',#1236,#126);
#19=LINE('',#1238,#127);
#20=LINE('',#1240,#128);
#21=LINE('',#1241,#129);
#22=LINE('',#1244,#130);
#23=LINE('',#1246,#131);
#24=LINE('',#1248,#132);
#25=LINE('',#1250,#133);
#26=LINE('',#1252,#134);
#27=LINE('',#1254,#135);
#28=LINE('',#1256,#136);
#29=LINE('',#1257,#137);
#30=LINE('',#1260,#138);
#31=LINE('',#1262,#139);
#32=LINE('',#1264,#140);
#33=LINE('',#1265,#141);
#34=LINE('',#1268,#142);
#35=LINE('',#1270,#143);
#36=LINE('',#1272,#144);
#37=LINE('',#1273,#145);
#38=LINE('',#1276,#146);
#39=LINE('',#1278,#147);
#40=LINE('',#1280,#148);
#41=LINE('',#1281,#149);
#42=LINE('',#1284,#150);
#43=LINE('',#1286,#151);
#44=LINE('',#1288,#152);
#45=LINE('',#1289,#153);
#46=LINE('',#1292,#154);
#47=LINE('',#1294,#155);
#48=LINE('',#1296,#156);
#49=LINE('',#1297,#157);
#50=LINE('',#1300,#158);
#51=LINE('',#1302,#159);
#52=LINE('',#1304,#160);
#53=LINE('',#1306,#161);
#54=LINE('',#1309,#162);
#55=LINE('',#1310,#163);
#56=LINE('',#1312,#164);
#57=LINE('',#1314,#165);
#58=LINE('',#1316,#166);
#59=LINE('',#1318,#167);
#60=LINE('',#1320,#168);
#61=LINE('',#1338,#169);
#62=LINE('',#1340,#170);
#63=LINE('',#1342,#171);
#64=LINE('',#1344,#172);
#65=LINE('',#1346,#173);
#66=LINE('',#1348,#174);
#67=LINE('',#1350,#175);
#68=LINE('',#1352,#176);
#69=LINE('',#1354,#177);
#70=LINE('',#1356,#178);
#71=LINE('',#1358,#179);
#72=LINE('',#1360,#180);
#73=LINE('',#1362,#181);
#74=LINE('',#1364,#182);
#75=LINE('',#1366,#183);
#76=LINE('',#1368,#184);
#77=LINE('',#1371,#185);
#78=LINE('',#1373,#186);
#79=LINE('',#1375,#187);
#80=LINE('',#1377,#188);
#81=LINE('',#1379,#189);
#82=LINE('',#1381,#190);
#83=LINE('',#1383,#191);
#84=LINE('',#1385,#192);
#85=LINE('',#1387,#193);
#86=LINE('',#1389,#194);
#87=LINE('',#1391,#195);
#88=LINE('',#1393,#196);
#89=LINE('',#1395,#197);
#90=LINE('',#1397,#198);
#91=LINE('',#1399,#199);
#92=LINE('',#1401,#200);
#93=LINE('',#1403,#201);
#94=LINE('',#1405,#202);
#95=LINE('',#1407,#203);
#96=LINE('',#1409,#204);
#97=LINE('',#1411,#205);
#98=LINE('',#1413,#206);
#99=LINE('',#1415,#207);
#100=LINE('',#1417,#208);
#101=LINE('',#1419,#209);
#102=LINE('',#1421,#210);
#103=LINE('',#1423,#211);
#104=LINE('',#1425,#212);
#105=LINE('',#1427,#213);
#106=LINE('',#1429,#214);
#107=LINE('',#1431,#215);
#108=LINE('',#1433,#216);
#109=LINE('',#1435,#217);
#110=LINE('',#1437,#218);
#111=LINE('',#1439,#219);
#112=LINE('',#1441,#220);
#113=LINE('',#1443,#221);
#114=LINE('',#1445,#222);
#115=LINE('',#1447,#223);
#116=LINE('',#1449,#224);
#117=LINE('',#1452,#225);
#118=LINE('',#1454,#226);
#119=LINE('',#1456,#227);
#120=LINE('',#1458,#228);
#121=LINE('',#1460,#229);
#122=LINE('',#1462,#230);
#123=LINE('',#1464,#231);
#124=LINE('',#1466,#232);
#125=VECTOR('',#1005,1.);
#126=VECTOR('',#1006,1.);
#127=VECTOR('',#1007,1.);
#128=VECTOR('',#1008,1.);
#129=VECTOR('',#1009,1.);
#130=VECTOR('',#1010,1.);
#131=VECTOR('',#1011,1.);
#132=VECTOR('',#1012,1.);
#133=VECTOR('',#1013,1.);
#134=VECTOR('',#1014,1.);
#135=VECTOR('',#1015,1.);
#136=VECTOR('',#1016,1.);
#137=VECTOR('',#1017,1.);
#138=VECTOR('',#1018,1.);
#139=VECTOR('',#1019,1.);
#140=VECTOR('',#1020,1.);
#141=VECTOR('',#1021,1.);
#142=VECTOR('',#1022,1.);
#143=VECTOR('',#1023,1.);
#144=VECTOR('',#1024,1.);
#145=VECTOR('',#1025,1.);
#146=VECTOR('',#1026,1.);
#147=VECTOR('',#1027,1.);
#148=VECTOR('',#1028,1.);
#149=VECTOR('',#1029,1.);
#150=VECTOR('',#1030,1.);
#151=VECTOR('',#1031,1.);
#152=VECTOR('',#1032,1.);
#153=VECTOR('',#1033,1.);
#154=VECTOR('',#1034,1.);
#155=VECTOR('',#1035,1.);
#156=VECTOR('',#1036,1.);
#157=VECTOR('',#1037,1.);
#158=VECTOR('',#1038,1.);
#159=VECTOR('',#1039,1.);
#160=VECTOR('',#1040,1.);
#161=VECTOR('',#1043,1.);
#162=VECTOR('',#1044,1.);
#163=VECTOR('',#1045,1.);
#164=VECTOR('',#1048,1.);
#165=VECTOR('',#1049,1.);
#166=VECTOR('',#1052,1.);
#167=VECTOR('',#1053,1.);
#168=VECTOR('',#1056,1.);
#169=VECTOR('',#1081,1.);
#170=VECTOR('',#1082,1.);
#171=VECTOR('',#1083,1.);
#172=VECTOR('',#1086,1.);
#173=VECTOR('',#1087,1.);
#174=VECTOR('',#1090,1.);
#175=VECTOR('',#1091,1.);
#176=VECTOR('',#1094,1.);
#177=VECTOR('',#1095,1.);
#178=VECTOR('',#1098,1.);
#179=VECTOR('',#1099,1.);
#180=VECTOR('',#1102,1.);
#181=VECTOR('',#1103,1.);
#182=VECTOR('',#1106,1.);
#183=VECTOR('',#1107,1.);
#184=VECTOR('',#1110,1.);
#185=VECTOR('',#1115,1.);
#186=VECTOR('',#1116,1.);
#187=VECTOR('',#1117,1.);
#188=VECTOR('',#1120,1.);
#189=VECTOR('',#1121,1.);
#190=VECTOR('',#1124,1.);
#191=VECTOR('',#1125,1.);
#192=VECTOR('',#1128,1.);
#193=VECTOR('',#1131,1.);
#194=VECTOR('',#1132,1.);
#195=VECTOR('',#1133,1.);
#196=VECTOR('',#1136,1.);
#197=VECTOR('',#1137,1.);
#198=VECTOR('',#1140,1.);
#199=VECTOR('',#1141,1.);
#200=VECTOR('',#1144,1.);
#201=VECTOR('',#1147,1.);
#202=VECTOR('',#1148,1.);
#203=VECTOR('',#1149,1.);
#204=VECTOR('',#1152,1.);
#205=VECTOR('',#1153,1.);
#206=VECTOR('',#1156,1.);
#207=VECTOR('',#1157,1.);
#208=VECTOR('',#1160,1.);
#209=VECTOR('',#1163,1.);
#210=VECTOR('',#1164,1.);
#211=VECTOR('',#1165,1.);
#212=VECTOR('',#1168,1.);
#213=VECTOR('',#1169,1.);
#214=VECTOR('',#1172,1.);
#215=VECTOR('',#1173,1.);
#216=VECTOR('',#1176,1.);
#217=VECTOR('',#1179,1.);
#218=VECTOR('',#1180,1.);
#219=VECTOR('',#1181,1.);
#220=VECTOR('',#1184,1.);
#221=VECTOR('',#1185,1.);
#222=VECTOR('',#1188,1.);
#223=VECTOR('',#1189,1.);
#224=VECTOR('',#1192,1.);
#225=VECTOR('',#1197,1.);
#226=VECTOR('',#1198,1.);
#227=VECTOR('',#1199,1.);
#228=VECTOR('',#1202,1.);
#229=VECTOR('',#1203,1.);
#230=VECTOR('',#1206,1.);
#231=VECTOR('',#1207,1.);
#232=VECTOR('',#1210,1.);
#233=ORIENTED_EDGE('',*,*,#469,.T.);
#234=ORIENTED_EDGE('',*,*,#470,.T.);
#235=ORIENTED_EDGE('',*,*,#471,.T.);
#236=ORIENTED_EDGE('',*,*,#472,.T.);
#237=ORIENTED_EDGE('',*,*,#473,.T.);
#238=ORIENTED_EDGE('',*,*,#474,.F.);
#239=ORIENTED_EDGE('',*,*,#475,.T.);
#240=ORIENTED_EDGE('',*,*,#476,.T.);
#241=ORIENTED_EDGE('',*,*,#477,.F.);
#242=ORIENTED_EDGE('',*,*,#478,.T.);
#243=ORIENTED_EDGE('',*,*,#479,.T.);
#244=ORIENTED_EDGE('',*,*,#480,.T.);
#245=ORIENTED_EDGE('',*,*,#481,.F.);
#246=ORIENTED_EDGE('',*,*,#482,.F.);
#247=ORIENTED_EDGE('',*,*,#483,.T.);
#248=ORIENTED_EDGE('',*,*,#484,.F.);
#249=ORIENTED_EDGE('',*,*,#485,.T.);
#250=ORIENTED_EDGE('',*,*,#486,.F.);
#251=ORIENTED_EDGE('',*,*,#487,.T.);
#252=ORIENTED_EDGE('',*,*,#488,.T.);
#253=ORIENTED_EDGE('',*,*,#489,.F.);
#254=ORIENTED_EDGE('',*,*,#490,.F.);
#255=ORIENTED_EDGE('',*,*,#491,.T.);
#256=ORIENTED_EDGE('',*,*,#492,.T.);
#257=ORIENTED_EDGE('',*,*,#493,.F.);
#258=ORIENTED_EDGE('',*,*,#494,.F.);
#259=ORIENTED_EDGE('',*,*,#495,.T.);
#260=ORIENTED_EDGE('',*,*,#496,.T.);
#261=ORIENTED_EDGE('',*,*,#497,.F.);
#262=ORIENTED_EDGE('',*,*,#498,.F.);
#263=ORIENTED_EDGE('',*,*,#499,.T.);
#264=ORIENTED_EDGE('',*,*,#500,.T.);
#265=ORIENTED_EDGE('',*,*,#501,.F.);
#266=ORIENTED_EDGE('',*,*,#502,.F.);
#267=ORIENTED_EDGE('',*,*,#503,.T.);
#268=ORIENTED_EDGE('',*,*,#504,.T.);
#269=ORIENTED_EDGE('',*,*,#505,.F.);
#270=ORIENTED_EDGE('',*,*,#506,.F.);
#271=ORIENTED_EDGE('',*,*,#507,.T.);
#272=ORIENTED_EDGE('',*,*,#508,.T.);
#273=ORIENTED_EDGE('',*,*,#509,.F.);
#274=ORIENTED_EDGE('',*,*,#510,.F.);
#275=ORIENTED_EDGE('',*,*,#511,.F.);
#276=ORIENTED_EDGE('',*,*,#474,.T.);
#277=ORIENTED_EDGE('',*,*,#512,.T.);
#278=ORIENTED_EDGE('',*,*,#513,.T.);
#279=ORIENTED_EDGE('',*,*,#514,.F.);
#280=ORIENTED_EDGE('',*,*,#475,.F.);
#281=ORIENTED_EDGE('',*,*,#511,.T.);
#282=ORIENTED_EDGE('',*,*,#515,.T.);
#283=ORIENTED_EDGE('',*,*,#516,.F.);
#284=ORIENTED_EDGE('',*,*,#476,.F.);
#285=ORIENTED_EDGE('',*,*,#514,.T.);
#286=ORIENTED_EDGE('',*,*,#517,.F.);
#287=ORIENTED_EDGE('',*,*,#512,.F.);
#288=ORIENTED_EDGE('',*,*,#477,.T.);
#289=ORIENTED_EDGE('',*,*,#516,.T.);
#290=ORIENTED_EDGE('',*,*,#518,.F.);
#291=ORIENTED_EDGE('',*,*,#519,.F.);
#292=ORIENTED_EDGE('',*,*,#520,.F.);
#293=ORIENTED_EDGE('',*,*,#521,.F.);
#294=ORIENTED_EDGE('',*,*,#522,.F.);
#295=ORIENTED_EDGE('',*,*,#510,.T.);
#296=ORIENTED_EDGE('',*,*,#517,.T.);
#297=ORIENTED_EDGE('',*,*,#515,.F.);
#298=ORIENTED_EDGE('',*,*,#513,.F.);
#299=ORIENTED_EDGE('',*,*,#473,.F.);
#300=ORIENTED_EDGE('',*,*,#522,.T.);
#301=ORIENTED_EDGE('',*,*,#472,.F.);
#302=ORIENTED_EDGE('',*,*,#521,.T.);
#303=ORIENTED_EDGE('',*,*,#471,.F.);
#304=ORIENTED_EDGE('',*,*,#520,.T.);
#305=ORIENTED_EDGE('',*,*,#470,.F.);
#306=ORIENTED_EDGE('',*,*,#519,.T.);
#307=ORIENTED_EDGE('',*,*,#469,.F.);
#308=ORIENTED_EDGE('',*,*,#518,.T.);
#309=ORIENTED_EDGE('',*,*,#479,.F.);
#310=ORIENTED_EDGE('',*,*,#523,.F.);
#311=ORIENTED_EDGE('',*,*,#524,.T.);
#312=ORIENTED_EDGE('',*,*,#525,.T.);
#313=ORIENTED_EDGE('',*,*,#478,.F.);
#314=ORIENTED_EDGE('',*,*,#526,.F.);
#315=ORIENTED_EDGE('',*,*,#527,.T.);
#316=ORIENTED_EDGE('',*,*,#523,.T.);
#317=ORIENTED_EDGE('',*,*,#485,.F.);
#318=ORIENTED_EDGE('',*,*,#528,.F.);
#319=ORIENTED_EDGE('',*,*,#529,.T.);
#320=ORIENTED_EDGE('',*,*,#526,.T.);
#321=ORIENTED_EDGE('',*,*,#484,.T.);
#322=ORIENTED_EDGE('',*,*,#530,.F.);
#323=ORIENTED_EDGE('',*,*,#531,.F.);
#324=ORIENTED_EDGE('',*,*,#528,.T.);
#325=ORIENTED_EDGE('',*,*,#483,.F.);
#326=ORIENTED_EDGE('',*,*,#532,.F.);
#327=ORIENTED_EDGE('',*,*,#533,.T.);
#328=ORIENTED_EDGE('',*,*,#530,.T.);
#329=ORIENTED_EDGE('',*,*,#482,.T.);
#330=ORIENTED_EDGE('',*,*,#534,.F.);
#331=ORIENTED_EDGE('',*,*,#535,.F.);
#332=ORIENTED_EDGE('',*,*,#532,.T.);
#333=ORIENTED_EDGE('',*,*,#481,.T.);
#334=ORIENTED_EDGE('',*,*,#536,.F.);
#335=ORIENTED_EDGE('',*,*,#537,.F.);
#336=ORIENTED_EDGE('',*,*,#534,.T.);
#337=ORIENTED_EDGE('',*,*,#480,.F.);
#338=ORIENTED_EDGE('',*,*,#525,.F.);
#339=ORIENTED_EDGE('',*,*,#538,.T.);
#340=ORIENTED_EDGE('',*,*,#536,.T.);
#341=ORIENTED_EDGE('',*,*,#524,.F.);
#342=ORIENTED_EDGE('',*,*,#527,.F.);
#343=ORIENTED_EDGE('',*,*,#529,.F.);
#344=ORIENTED_EDGE('',*,*,#531,.T.);
#345=ORIENTED_EDGE('',*,*,#533,.F.);
#346=ORIENTED_EDGE('',*,*,#535,.T.);
#347=ORIENTED_EDGE('',*,*,#537,.T.);
#348=ORIENTED_EDGE('',*,*,#538,.F.);
#349=ORIENTED_EDGE('',*,*,#487,.F.);
#350=ORIENTED_EDGE('',*,*,#539,.F.);
#351=ORIENTED_EDGE('',*,*,#540,.T.);
#352=ORIENTED_EDGE('',*,*,#541,.T.);
#353=ORIENTED_EDGE('',*,*,#486,.T.);
#354=ORIENTED_EDGE('',*,*,#542,.F.);
#355=ORIENTED_EDGE('',*,*,#543,.F.);
#356=ORIENTED_EDGE('',*,*,#539,.T.);
#357=ORIENTED_EDGE('',*,*,#489,.T.);
#358=ORIENTED_EDGE('',*,*,#544,.F.);
#359=ORIENTED_EDGE('',*,*,#545,.F.);
#360=ORIENTED_EDGE('',*,*,#542,.T.);
#361=ORIENTED_EDGE('',*,*,#488,.F.);
#362=ORIENTED_EDGE('',*,*,#541,.F.);
#363=ORIENTED_EDGE('',*,*,#546,.T.);
#364=ORIENTED_EDGE('',*,*,#544,.T.);
#365=ORIENTED_EDGE('',*,*,#491,.F.);
#366=ORIENTED_EDGE('',*,*,#547,.F.);
#367=ORIENTED_EDGE('',*,*,#548,.T.);
#368=ORIENTED_EDGE('',*,*,#549,.T.);
#369=ORIENTED_EDGE('',*,*,#490,.T.);
#370=ORIENTED_EDGE('',*,*,#550,.F.);
#371=ORIENTED_EDGE('',*,*,#551,.F.);
#372=ORIENTED_EDGE('',*,*,#547,.T.);
#373=ORIENTED_EDGE('',*,*,#493,.T.);
#374=ORIENTED_EDGE('',*,*,#552,.F.);
#375=ORIENTED_EDGE('',*,*,#553,.F.);
#376=ORIENTED_EDGE('',*,*,#550,.T.);
#377=ORIENTED_EDGE('',*,*,#492,.F.);
#378=ORIENTED_EDGE('',*,*,#549,.F.);
#379=ORIENTED_EDGE('',*,*,#554,.T.);
#380=ORIENTED_EDGE('',*,*,#552,.T.);
#381=ORIENTED_EDGE('',*,*,#495,.F.);
#382=ORIENTED_EDGE('',*,*,#555,.F.);
#383=ORIENTED_EDGE('',*,*,#556,.T.);
#384=ORIENTED_EDGE('',*,*,#557,.T.);
#385=ORIENTED_EDGE('',*,*,#494,.T.);
#386=ORIENTED_EDGE('',*,*,#558,.F.);
#387=ORIENTED_EDGE('',*,*,#559,.F.);
#388=ORIENTED_EDGE('',*,*,#555,.T.);
#389=ORIENTED_EDGE('',*,*,#497,.T.);
#390=ORIENTED_EDGE('',*,*,#560,.F.);
#391=ORIENTED_EDGE('',*,*,#561,.F.);
#392=ORIENTED_EDGE('',*,*,#558,.T.);
#393=ORIENTED_EDGE('',*,*,#496,.F.);
#394=ORIENTED_EDGE('',*,*,#557,.F.);
#395=ORIENTED_EDGE('',*,*,#562,.T.);
#396=ORIENTED_EDGE('',*,*,#560,.T.);
#397=ORIENTED_EDGE('',*,*,#499,.F.);
#398=ORIENTED_EDGE('',*,*,#563,.F.);
#399=ORIENTED_EDGE('',*,*,#564,.T.);
#400=ORIENTED_EDGE('',*,*,#565,.T.);
#401=ORIENTED_EDGE('',*,*,#498,.T.);
#402=ORIENTED_EDGE('',*,*,#566,.F.);
#403=ORIENTED_EDGE('',*,*,#567,.F.);
#404=ORIENTED_EDGE('',*,*,#563,.T.);
#405=ORIENTED_EDGE('',*,*,#501,.T.);
#406=ORIENTED_EDGE('',*,*,#568,.F.);
#407=ORIENTED_EDGE('',*,*,#569,.F.);
#408=ORIENTED_EDGE('',*,*,#566,.T.);
#409=ORIENTED_EDGE('',*,*,#500,.F.);
#410=ORIENTED_EDGE('',*,*,#565,.F.);
#411=ORIENTED_EDGE('',*,*,#570,.T.);
#412=ORIENTED_EDGE('',*,*,#568,.T.);
#413=ORIENTED_EDGE('',*,*,#503,.F.);
#414=ORIENTED_EDGE('',*,*,#571,.F.);
#415=ORIENTED_EDGE('',*,*,#572,.T.);
#416=ORIENTED_EDGE('',*,*,#573,.T.);
#417=ORIENTED_EDGE('',*,*,#502,.T.);
#418=ORIENTED_EDGE('',*,*,#574,.F.);
#419=ORIENTED_EDGE('',*,*,#575,.F.);
#420=ORIENTED_EDGE('',*,*,#571,.T.);
#421=ORIENTED_EDGE('',*,*,#505,.T.);
#422=ORIENTED_EDGE('',*,*,#576,.F.);
#423=ORIENTED_EDGE('',*,*,#577,.F.);
#424=ORIENTED_EDGE('',*,*,#574,.T.);
#425=ORIENTED_EDGE('',*,*,#504,.F.);
#426=ORIENTED_EDGE('',*,*,#573,.F.);
#427=ORIENTED_EDGE('',*,*,#578,.T.);
#428=ORIENTED_EDGE('',*,*,#576,.T.);
#429=ORIENTED_EDGE('',*,*,#572,.F.);
#430=ORIENTED_EDGE('',*,*,#575,.T.);
#431=ORIENTED_EDGE('',*,*,#577,.T.);
#432=ORIENTED_EDGE('',*,*,#578,.F.);
#433=ORIENTED_EDGE('',*,*,#507,.F.);
#434=ORIENTED_EDGE('',*,*,#579,.F.);
#435=ORIENTED_EDGE('',*,*,#580,.T.);
#436=ORIENTED_EDGE('',*,*,#581,.T.);
#437=ORIENTED_EDGE('',*,*,#506,.T.);
#438=ORIENTED_EDGE('',*,*,#582,.F.);
#439=ORIENTED_EDGE('',*,*,#583,.F.);
#440=ORIENTED_EDGE('',*,*,#579,.T.);
#441=ORIENTED_EDGE('',*,*,#509,.T.);
#442=ORIENTED_EDGE('',*,*,#584,.F.);
#443=ORIENTED_EDGE('',*,*,#585,.F.);
#444=ORIENTED_EDGE('',*,*,#582,.T.);
#445=ORIENTED_EDGE('',*,*,#508,.F.);
#446=ORIENTED_EDGE('',*,*,#581,.F.);
#447=ORIENTED_EDGE('',*,*,#586,.T.);
#448=ORIENTED_EDGE('',*,*,#584,.T.);
#449=ORIENTED_EDGE('',*,*,#580,.F.);
#450=ORIENTED_EDGE('',*,*,#583,.T.);
#451=ORIENTED_EDGE('',*,*,#585,.T.);
#452=ORIENTED_EDGE('',*,*,#586,.F.);
#453=ORIENTED_EDGE('',*,*,#564,.F.);
#454=ORIENTED_EDGE('',*,*,#567,.T.);
#455=ORIENTED_EDGE('',*,*,#569,.T.);
#456=ORIENTED_EDGE('',*,*,#570,.F.);
#457=ORIENTED_EDGE('',*,*,#556,.F.);
#458=ORIENTED_EDGE('',*,*,#559,.T.);
#459=ORIENTED_EDGE('',*,*,#561,.T.);
#460=ORIENTED_EDGE('',*,*,#562,.F.);
#461=ORIENTED_EDGE('',*,*,#548,.F.);
#462=ORIENTED_EDGE('',*,*,#551,.T.);
#463=ORIENTED_EDGE('',*,*,#553,.T.);
#464=ORIENTED_EDGE('',*,*,#554,.F.);
#465=ORIENTED_EDGE('',*,*,#540,.F.);
#466=ORIENTED_EDGE('',*,*,#543,.T.);
#467=ORIENTED_EDGE('',*,*,#545,.T.);
#468=ORIENTED_EDGE('',*,*,#546,.F.);
#469=EDGE_CURVE('',#587,#587,#669,.T.);
#470=EDGE_CURVE('',#588,#588,#670,.T.);
#471=EDGE_CURVE('',#589,#589,#671,.T.);
#472=EDGE_CURVE('',#590,#590,#672,.T.);
#473=EDGE_CURVE('',#591,#591,#673,.T.);
#474=EDGE_CURVE('',#592,#593,#17,.T.);
#475=EDGE_CURVE('',#592,#594,#18,.T.);
#476=EDGE_CURVE('',#594,#595,#19,.T.);
#477=EDGE_CURVE('',#593,#595,#20,.T.);
#478=EDGE_CURVE('',#596,#597,#21,.T.);
#479=EDGE_CURVE('',#597,#598,#22,.T.);
#480=EDGE_CURVE('',#598,#599,#23,.T.);
#481=EDGE_CURVE('',#600,#599,#24,.T.);
#482=EDGE_CURVE('',#601,#600,#25,.T.);
#483=EDGE_CURVE('',#601,#602,#26,.T.);
#484=EDGE_CURVE('',#603,#602,#27,.T.);
#485=EDGE_CURVE('',#603,#596,#28,.T.);
#486=EDGE_CURVE('',#604,#605,#29,.T.);
#487=EDGE_CURVE('',#604,#606,#30,.T.);
#488=EDGE_CURVE('',#606,#607,#31,.T.);
#489=EDGE_CURVE('',#605,#607,#32,.T.);
#490=EDGE_CURVE('',#608,#609,#33,.T.);
#491=EDGE_CURVE('',#608,#610,#34,.T.);
#492=EDGE_CURVE('',#610,#611,#35,.T.);
#493=EDGE_CURVE('',#609,#611,#36,.T.);
#494=EDGE_CURVE('',#612,#613,#37,.T.);
#495=EDGE_CURVE('',#612,#614,#38,.T.);
#496=EDGE_CURVE('',#614,#615,#39,.T.);
#497=EDGE_CURVE('',#613,#615,#40,.T.);
#498=EDGE_CURVE('',#616,#617,#41,.T.);
#499=EDGE_CURVE('',#616,#618,#42,.T.);
#500=EDGE_CURVE('',#618,#619,#43,.T.);
#501=EDGE_CURVE('',#617,#619,#44,.T.);
#502=EDGE_CURVE('',#620,#621,#45,.T.);
#503=EDGE_CURVE('',#620,#622,#46,.T.);
#504=EDGE_CURVE('',#622,#623,#47,.T.);
#505=EDGE_CURVE('',#621,#623,#48,.T.);
#506=EDGE_CURVE('',#624,#625,#49,.T.);
#507=EDGE_CURVE('',#624,#626,#50,.T.);
#508=EDGE_CURVE('',#626,#627,#51,.T.);
#509=EDGE_CURVE('',#625,#627,#52,.T.);
#510=EDGE_CURVE('',#628,#629,#53,.T.);
#511=EDGE_CURVE('',#592,#628,#54,.T.);
#512=EDGE_CURVE('',#593,#629,#55,.T.);
#513=EDGE_CURVE('',#628,#630,#56,.T.);
#514=EDGE_CURVE('',#594,#630,#57,.T.);
#515=EDGE_CURVE('',#630,#631,#58,.T.);
#516=EDGE_CURVE('',#595,#631,#59,.T.);
#517=EDGE_CURVE('',#629,#631,#60,.T.);
#518=EDGE_CURVE('',#632,#632,#674,.F.);
#519=EDGE_CURVE('',#633,#633,#675,.F.);
#520=EDGE_CURVE('',#634,#634,#676,.F.);
#521=EDGE_CURVE('',#635,#635,#677,.F.);
#522=EDGE_CURVE('',#636,#636,#678,.F.);
#523=EDGE_CURVE('',#637,#597,#61,.T.);
#524=EDGE_CURVE('',#637,#638,#62,.T.);
#525=EDGE_CURVE('',#638,#598,#63,.T.);
#526=EDGE_CURVE('',#639,#596,#64,.T.);
#527=EDGE_CURVE('',#639,#637,#65,.T.);
#528=EDGE_CURVE('',#640,#603,#66,.T.);
#529=EDGE_CURVE('',#640,#639,#67,.T.);
#530=EDGE_CURVE('',#641,#602,#68,.T.);
#531=EDGE_CURVE('',#640,#641,#69,.T.);
#532=EDGE_CURVE('',#642,#601,#70,.T.);
#533=EDGE_CURVE('',#642,#641,#71,.T.);
#534=EDGE_CURVE('',#643,#600,#72,.T.);
#535=EDGE_CURVE('',#642,#643,#73,.T.);
#536=EDGE_CURVE('',#644,#599,#74,.T.);
#537=EDGE_CURVE('',#643,#644,#75,.T.);
#538=EDGE_CURVE('',#638,#644,#76,.T.);
#539=EDGE_CURVE('',#645,#604,#77,.T.);
#540=EDGE_CURVE('',#645,#646,#78,.T.);
#541=EDGE_CURVE('',#646,#606,#79,.T.);
#542=EDGE_CURVE('',#647,#605,#80,.T.);
#543=EDGE_CURVE('',#645,#647,#81,.T.);
#544=EDGE_CURVE('',#648,#607,#82,.T.);
#545=EDGE_CURVE('',#647,#648,#83,.T.);
#546=EDGE_CURVE('',#646,#648,#84,.T.);
#547=EDGE_CURVE('',#649,#608,#85,.T.);
#548=EDGE_CURVE('',#649,#650,#86,.T.);
#549=EDGE_CURVE('',#650,#610,#87,.T.);
#550=EDGE_CURVE('',#651,#609,#88,.T.);
#551=EDGE_CURVE('',#649,#651,#89,.T.);
#552=EDGE_CURVE('',#652,#611,#90,.T.);
#553=EDGE_CURVE('',#651,#652,#91,.T.);
#554=EDGE_CURVE('',#650,#652,#92,.T.);
#555=EDGE_CURVE('',#653,#612,#93,.T.);
#556=EDGE_CURVE('',#653,#654,#94,.T.);
#557=EDGE_CURVE('',#654,#614,#95,.T.);
#558=EDGE_CURVE('',#655,#613,#96,.T.);
#559=EDGE_CURVE('',#653,#655,#97,.T.);
#560=EDGE_CURVE('',#656,#615,#98,.T.);
#561=EDGE_CURVE('',#655,#656,#99,.T.);
#562=EDGE_CURVE('',#654,#656,#100,.T.);
#563=EDGE_CURVE('',#657,#616,#101,.T.);
#564=EDGE_CURVE('',#657,#658,#102,.T.);
#565=EDGE_CURVE('',#658,#618,#103,.T.);
#566=EDGE_CURVE('',#659,#617,#104,.T.);
#567=EDGE_CURVE('',#657,#659,#105,.T.);
#568=EDGE_CURVE('',#660,#619,#106,.T.);
#569=EDGE_CURVE('',#659,#660,#107,.T.);
#570=EDGE_CURVE('',#658,#660,#108,.T.);
#571=EDGE_CURVE('',#661,#620,#109,.T.);
#572=EDGE_CURVE('',#661,#662,#110,.T.);
#573=EDGE_CURVE('',#662,#622,#111,.T.);
#574=EDGE_CURVE('',#663,#621,#112,.T.);
#575=EDGE_CURVE('',#661,#663,#113,.T.);
#576=EDGE_CURVE('',#664,#623,#114,.T.);
#577=EDGE_CURVE('',#663,#664,#115,.T.);
#578=EDGE_CURVE('',#662,#664,#116,.T.);
#579=EDGE_CURVE('',#665,#624,#117,.T.);
#580=EDGE_CURVE('',#665,#666,#118,.T.);
#581=EDGE_CURVE('',#666,#626,#119,.T.);
#582=EDGE_CURVE('',#667,#625,#120,.T.);
#583=EDGE_CURVE('',#665,#667,#121,.T.);
#584=EDGE_CURVE('',#668,#627,#122,.T.);
#585=EDGE_CURVE('',#667,#668,#123,.T.);
#586=EDGE_CURVE('',#666,#668,#124,.T.);
#587=VERTEX_POINT('',#1224);
#588=VERTEX_POINT('',#1226);
#589=VERTEX_POINT('',#1228);
#590=VERTEX_POINT('',#1230);
#591=VERTEX_POINT('',#1232);
#592=VERTEX_POINT('',#1234);
#593=VERTEX_POINT('',#1235);
#594=VERTEX_POINT('',#1237);
#595=VERTEX_POINT('',#1239);
#596=VERTEX_POINT('',#1242);
#597=VERTEX_POINT('',#1243);
#598=VERTEX_POINT('',#1245);
#599=VERTEX_POINT('',#1247);
#600=VERTEX_POINT('',#1249);
#601=VERTEX_POINT('',#1251);
#602=VERTEX_POINT('',#1253);
#603=VERTEX_POINT('',#1255);
#604=VERTEX_POINT('',#1258);
#605=VERTEX_POINT('',#1259);
#606=VERTEX_POINT('',#1261);
#607=VERTEX_POINT('',#1263);
#608=VERTEX_POINT('',#1266);
#609=VERTEX_POINT('',#1267);
#610=VERTEX_POINT('',#1269);
#611=VERTEX_POINT('',#1271);
#612=VERTEX_POINT('',#1274);
#613=VERTEX_POINT('',#1275);
#614=VERTEX_POINT('',#1277);
#615=VERTEX_POINT('',#1279);
#616=VERTEX_POINT('',#1282);
#617=VERTEX_POINT('',#1283);
#618=VERTEX_POINT('',#1285);
#619=VERTEX_POINT('',#1287);
#620=VERTEX_POINT('',#1290);
#621=VERTEX_POINT('',#1291);
#622=VERTEX_POINT('',#1293);
#623=VERTEX_POINT('',#1295);
#624=VERTEX_POINT('',#1298);
#625=VERTEX_POINT('',#1299);
#626=VERTEX_POINT('',#1301);
#627=VERTEX_POINT('',#1303);
#628=VERTEX_POINT('',#1307);
#629=VERTEX_POINT('',#1308);
#630=VERTEX_POINT('',#1313);
#631=VERTEX_POINT('',#1317);
#632=VERTEX_POINT('',#1323);
#633=VERTEX_POINT('',#1325);
#634=VERTEX_POINT('',#1327);
#635=VERTEX_POINT('',#1329);
#636=VERTEX_POINT('',#1331);
#637=VERTEX_POINT('',#1339);
#638=VERTEX_POINT('',#1341);
#639=VERTEX_POINT('',#1345);
#640=VERTEX_POINT('',#1349);
#641=VERTEX_POINT('',#1353);
#642=VERTEX_POINT('',#1357);
#643=VERTEX_POINT('',#1361);
#644=VERTEX_POINT('',#1365);
#645=VERTEX_POINT('',#1372);
#646=VERTEX_POINT('',#1374);
#647=VERTEX_POINT('',#1378);
#648=VERTEX_POINT('',#1382);
#649=VERTEX_POINT('',#1388);
#650=VERTEX_POINT('',#1390);
#651=VERTEX_POINT('',#1394);
#652=VERTEX_POINT('',#1398);
#653=VERTEX_POINT('',#1404);
#654=VERTEX_POINT('',#1406);
#655=VERTEX_POINT('',#1410);
#656=VERTEX_POINT('',#1414);
#657=VERTEX_POINT('',#1420);
#658=VERTEX_POINT('',#1422);
#659=VERTEX_POINT('',#1426);
#660=VERTEX_POINT('',#1430);
#661=VERTEX_POINT('',#1436);
#662=VERTEX_POINT('',#1438);
#663=VERTEX_POINT('',#1442);
#664=VERTEX_POINT('',#1446);
#665=VERTEX_POINT('',#1453);
#666=VERTEX_POINT('',#1455);
#667=VERTEX_POINT('',#1459);
#668=VERTEX_POINT('',#1463);
#669=CIRCLE('',#932,0.0015);
#670=CIRCLE('',#933,0.0015);
#671=CIRCLE('',#934,0.0015);
#672=CIRCLE('',#935,0.0015);
#673=CIRCLE('',#936,0.0015);
#674=CIRCLE('',#942,0.0015);
#675=CIRCLE('',#943,0.0015);
#676=CIRCLE('',#944,0.0015);
#677=CIRCLE('',#945,0.0015);
#678=CIRCLE('',#946,0.0015);
#679=EDGE_LOOP('',(#233));
#680=EDGE_LOOP('',(#234));
#681=EDGE_LOOP('',(#235));
#682=EDGE_LOOP('',(#236));
#683=EDGE_LOOP('',(#237));
#684=EDGE_LOOP('',(#238,#239,#240,#241));
#685=EDGE_LOOP('',(#242,#243,#244,#245,#246,#247,#248,#249));
#686=EDGE_LOOP('',(#250,#251,#252,#253));
#687=EDGE_LOOP('',(#254,#255,#256,#257));
#688=EDGE_LOOP('',(#258,#259,#260,#261));
#689=EDGE_LOOP('',(#262,#263,#264,#265));
#690=EDGE_LOOP('',(#266,#267,#268,#269));
#691=EDGE_LOOP('',(#270,#271,#272,#273));
#692=EDGE_LOOP('',(#274,#275,#276,#277));
#693=EDGE_LOOP('',(#278,#279,#280,#281));
#694=EDGE_LOOP('',(#282,#283,#284,#285));
#695=EDGE_LOOP('',(#286,#287,#288,#289));
#696=EDGE_LOOP('',(#290));
#697=EDGE_LOOP('',(#291));
#698=EDGE_LOOP('',(#292));
#699=EDGE_LOOP('',(#293));
#700=EDGE_LOOP('',(#294));
#701=EDGE_LOOP('',(#295,#296,#297,#298));
#702=EDGE_LOOP('',(#299));
#703=EDGE_LOOP('',(#300));
#704=EDGE_LOOP('',(#301));
#705=EDGE_LOOP('',(#302));
#706=EDGE_LOOP('',(#303));
#707=EDGE_LOOP('',(#304));
#708=EDGE_LOOP('',(#305));
#709=EDGE_LOOP('',(#306));
#710=EDGE_LOOP('',(#307));
#711=EDGE_LOOP('',(#308));
#712=EDGE_LOOP('',(#309,#310,#311,#312));
#713=EDGE_LOOP('',(#313,#314,#315,#316));
#714=EDGE_LOOP('',(#317,#318,#319,#320));
#715=EDGE_LOOP('',(#321,#322,#323,#324));
#716=EDGE_LOOP('',(#325,#326,#327,#328));
#717=EDGE_LOOP('',(#329,#330,#331,#332));
#718=EDGE_LOOP('',(#333,#334,#335,#336));
#719=EDGE_LOOP('',(#337,#338,#339,#340));
#720=EDGE_LOOP('',(#341,#342,#343,#344,#345,#346,#347,#348));
#721=EDGE_LOOP('',(#349,#350,#351,#352));
#722=EDGE_LOOP('',(#353,#354,#355,#356));
#723=EDGE_LOOP('',(#357,#358,#359,#360));
#724=EDGE_LOOP('',(#361,#362,#363,#364));
#725=EDGE_LOOP('',(#365,#366,#367,#368));
#726=EDGE_LOOP('',(#369,#370,#371,#372));
#727=EDGE_LOOP('',(#373,#374,#375,#376));
#728=EDGE_LOOP('',(#377,#378,#379,#380));
#729=EDGE_LOOP('',(#381,#382,#383,#384));
#730=EDGE_LOOP('',(#385,#386,#387,#388));
#731=EDGE_LOOP('',(#389,#390,#391,#392));
#732=EDGE_LOOP('',(#393,#394,#395,#396));
#733=EDGE_LOOP('',(#397,#398,#399,#400));
#734=EDGE_LOOP('',(#401,#402,#403,#404));
#735=EDGE_LOOP('',(#405,#406,#407,#408));
#736=EDGE_LOOP('',(#409,#410,#411,#412));
#737=EDGE_LOOP('',(#413,#414,#415,#416));
#738=EDGE_LOOP('',(#417,#418,#419,#420));
#739=EDGE_LOOP('',(#421,#422,#423,#424));
#740=EDGE_LOOP('',(#425,#426,#427,#428));
#741=EDGE_LOOP('',(#429,#430,#431,#432));
#742=EDGE_LOOP('',(#433,#434,#435,#436));
#743=EDGE_LOOP('',(#437,#438,#439,#440));
#744=EDGE_LOOP('',(#441,#442,#443,#444));
#745=EDGE_LOOP('',(#445,#446,#447,#448));
#746=EDGE_LOOP('',(#449,#450,#451,#452));
#747=EDGE_LOOP('',(#453,#454,#455,#456));
#748=EDGE_LOOP('',(#457,#458,#459,#460));
#749=EDGE_LOOP('',(#461,#462,#463,#464));
#750=EDGE_LOOP('',(#465,#466,#467,#468));
#751=FACE_BOUND('',#679,.T.);
#752=FACE_BOUND('',#680,.T.);
#753=FACE_BOUND('',#681,.T.);
#754=FACE_BOUND('',#682,.T.);
#755=FACE_BOUND('',#683,.T.);
#756=FACE_BOUND('',#684,.T.);
#757=FACE_BOUND('',#685,.T.);
#758=FACE_BOUND('',#686,.T.);
#759=FACE_BOUND('',#687,.T.);
#760=FACE_BOUND('',#688,.T.);
#761=FACE_BOUND('',#689,.T.);
#762=FACE_BOUND('',#690,.T.);
#763=FACE_BOUND('',#691,.T.);
#764=FACE_BOUND('',#692,.T.);
#765=FACE_BOUND('',#693,.T.);
#766=FACE_BOUND('',#694,.T.);
#767=FACE_BOUND('',#695,.T.);
#768=FACE_BOUND('',#696,.T.);
#769=FACE_BOUND('',#697,.T.);
#770=FACE_BOUND('',#698,.T.);
#771=FACE_BOUND('',#699,.T.);
#772=FACE_BOUND('',#700,.T.);
#773=FACE_BOUND('',#701,.T.);
#774=FACE_BOUND('',#702,.T.);
#775=FACE_BOUND('',#703,.T.);
#776=FACE_BOUND('',#704,.T.);
#777=FACE_BOUND('',#705,.T.);
#778=FACE_BOUND('',#706,.T.);
#779=FACE_BOUND('',#707,.T.);
#780=FACE_BOUND('',#708,.T.);
#781=FACE_BOUND('',#709,.T.);
#782=FACE_BOUND('',#710,.T.);
#783=FACE_BOUND('',#711,.T.);
#784=FACE_BOUND('',#712,.T.);
#785=FACE_BOUND('',#713,.T.);
#786=FACE_BOUND('',#714,.T.);
#787=FACE_BOUND('',#715,.T.);
#788=FACE_BOUND('',#716,.T.);
#789=FACE_BOUND('',#717,.T.);
#790=FACE_BOUND('',#718,.T.);
#791=FACE_BOUND('',#719,.T.);
#792=FACE_BOUND('',#720,.T.);
#793=FACE_BOUND('',#721,.T.);
#794=FACE_BOUND('',#722,.T.);
#795=FACE_BOUND('',#723,.T.);
#796=FACE_BOUND('',#724,.T.);
#797=FACE_BOUND('',#725,.T.);
#798=FACE_BOUND('',#726,.T.);
#799=FACE_BOUND('',#727,.T.);
#800=FACE_BOUND('',#728,.T.);
#801=FACE_BOUND('',#729,.T.);
#802=FACE_BOUND('',#730,.T.);
#803=FACE_BOUND('',#731,.T.);
#804=FACE_BOUND('',#732,.T.);
#805=FACE_BOUND('',#733,.T.);
#806=FACE_BOUND('',#734,.T.);
#807=FACE_BOUND('',#735,.T.);
#808=FACE_BOUND('',#736,.T.);
#809=FACE_BOUND('',#737,.T.);
#810=FACE_BOUND('',#738,.T.);
#811=FACE_BOUND('',#739,.T.);
#812=FACE_BOUND('',#740,.T.);
#813=FACE_BOUND('',#741,.T.);
#814=FACE_BOUND('',#742,.T.);
#815=FACE_BOUND('',#743,.T.);
#816=FACE_BOUND('',#744,.T.);
#817=FACE_BOUND('',#745,.T.);
#818=FACE_BOUND('',#746,.T.);
#819=FACE_BOUND('',#747,.T.);
#820=FACE_BOUND('',#748,.T.);
#821=FACE_BOUND('',#749,.T.);
#822=FACE_BOUND('',#750,.T.);
#823=PLANE('',#931);
#824=PLANE('',#937);
#825=PLANE('',#938);
#826=PLANE('',#939);
#827=PLANE('',#940);
#828=PLANE('',#941);
#829=PLANE('',#952);
#830=PLANE('',#953);
#831=PLANE('',#954);
#832=PLANE('',#955);
#833=PLANE('',#956);
#834=PLANE('',#957);
#835=PLANE('',#958);
#836=PLANE('',#959);
#837=PLANE('',#960);
#838=PLANE('',#961);
#839=PLANE('',#962);
#840=PLANE('',#963);
#841=PLANE('',#964);
#842=PLANE('',#965);
#843=PLANE('',#966);
#844=PLANE('',#967);
#845=PLANE('',#968);
#846=PLANE('',#969);
#847=PLANE('',#970);
#848=PLANE('',#971);
#849=PLANE('',#972);
#850=PLANE('',#973);
#851=PLANE('',#974);
#852=PLANE('',#975);
#853=PLANE('',#976);
#854=PLANE('',#977);
#855=PLANE('',#978);
#856=PLANE('',#979);
#857=PLANE('',#980);
#858=PLANE('',#981);
#859=PLANE('',#982);
#860=PLANE('',#983);
#861=PLANE('',#984);
#862=PLANE('',#985);
#863=PLANE('',#986);
#864=PLANE('',#987);
#865=PLANE('',#988);
#866=PLANE('',#989);
#867=PLANE('',#990);
#868=ADVANCED_FACE('',(#751,#752,#753,#754,#755,#756,#757,#758,#759,#760,
#761,#762,#763),#823,.T.);
#869=ADVANCED_FACE('',(#764),#824,.T.);
#870=ADVANCED_FACE('',(#765),#825,.F.);
#871=ADVANCED_FACE('',(#766),#826,.F.);
#872=ADVANCED_FACE('',(#767),#827,.T.);
#873=ADVANCED_FACE('',(#768,#769,#770,#771,#772,#773),#828,.F.);
#874=ADVANCED_FACE('',(#774,#775),#12,.F.);
#875=ADVANCED_FACE('',(#776,#777),#13,.F.);
#876=ADVANCED_FACE('',(#778,#779),#14,.F.);
#877=ADVANCED_FACE('',(#780,#781),#15,.F.);
#878=ADVANCED_FACE('',(#782,#783),#16,.F.);
#879=ADVANCED_FACE('',(#784),#829,.T.);
#880=ADVANCED_FACE('',(#785),#830,.T.);
#881=ADVANCED_FACE('',(#786),#831,.T.);
#882=ADVANCED_FACE('',(#787),#832,.F.);
#883=ADVANCED_FACE('',(#788),#833,.T.);
#884=ADVANCED_FACE('',(#789),#834,.F.);
#885=ADVANCED_FACE('',(#790),#835,.F.);
#886=ADVANCED_FACE('',(#791),#836,.T.);
#887=ADVANCED_FACE('',(#792),#837,.T.);
#888=ADVANCED_FACE('',(#793),#838,.T.);
#889=ADVANCED_FACE('',(#794),#839,.F.);
#890=ADVANCED_FACE('',(#795),#840,.F.);
#891=ADVANCED_FACE('',(#796),#841,.T.);
#892=ADVANCED_FACE('',(#797),#842,.T.);
#893=ADVANCED_FACE('',(#798),#843,.F.);
#894=ADVANCED_FACE('',(#799),#844,.F.);
#895=ADVANCED_FACE('',(#800),#845,.T.);
#896=ADVANCED_FACE('',(#801),#846,.T.);
#897=ADVANCED_FACE('',(#802),#847,.F.);
#898=ADVANCED_FACE('',(#803),#848,.F.);
#899=ADVANCED_FACE('',(#804),#849,.T.);
#900=ADVANCED_FACE('',(#805),#850,.T.);
#901=ADVANCED_FACE('',(#806),#851,.F.);
#902=ADVANCED_FACE('',(#807),#852,.F.);
#903=ADVANCED_FACE('',(#808),#853,.T.);
#904=ADVANCED_FACE('',(#809),#854,.T.);
#905=ADVANCED_FACE('',(#810),#855,.F.);
#906=ADVANCED_FACE('',(#811),#856,.F.);
#907=ADVANCED_FACE('',(#812),#857,.T.);
#908=ADVANCED_FACE('',(#813),#858,.T.);
#909=ADVANCED_FACE('',(#814),#859,.T.);
#910=ADVANCED_FACE('',(#815),#860,.F.);
#911=ADVANCED_FACE('',(#816),#861,.F.);
#912=ADVANCED_FACE('',(#817),#862,.T.);
#913=ADVANCED_FACE('',(#818),#863,.T.);
#914=ADVANCED_FACE('',(#819),#864,.T.);
#915=ADVANCED_FACE('',(#820),#865,.T.);
#916=ADVANCED_FACE('',(#821),#866,.T.);
#917=ADVANCED_FACE('',(#822),#867,.T.);
#918=CLOSED_SHELL('',(#868,#869,#870,#871,#872,#873,#874,#875,#876,#877,
#878,#879,#880,#881,#882,#883,#884,#885,#886,#887,#888,#889,#890,#891,#892,
#893,#894,#895,#896,#897,#898,#899,#900,#901,#902,#903,#904,#905,#906,#907,
#908,#909,#910,#911,#912,#913,#914,#915,#916,#917));
#919=STYLED_ITEM('',(#920),#927);
#920=PRESENTATION_STYLE_ASSIGNMENT((#921));
#921=SURFACE_STYLE_USAGE(.BOTH.,#922);
#922=SURFACE_SIDE_STYLE('',(#923));
#923=SURFACE_STYLE_FILL_AREA(#924);
#924=FILL_AREA_STYLE('',(#925));
#925=FILL_AREA_STYLE_COLOUR('',#926);
#926=COLOUR_RGB('',0.615686274509804,0.811764705882353,0.929411764705882);
#927=MANIFOLD_SOLID_BREP('Part 1',#918);
#928=SHAPE_DEFINITION_REPRESENTATION(#1478,#929);
#929=SHAPE_REPRESENTATION('Part 1',(#930),#1473);
#930=AXIS2_PLACEMENT_3D('',#1221,#991,#992);
#931=AXIS2_PLACEMENT_3D('',#1222,#993,#994);
#932=AXIS2_PLACEMENT_3D('',#1223,#995,#996);
#933=AXIS2_PLACEMENT_3D('',#1225,#997,#998);
#934=AXIS2_PLACEMENT_3D('',#1227,#999,#1000);
#935=AXIS2_PLACEMENT_3D('',#1229,#1001,#1002);
#936=AXIS2_PLACEMENT_3D('',#1231,#1003,#1004);
#937=AXIS2_PLACEMENT_3D('',#1305,#1041,#1042);
#938=AXIS2_PLACEMENT_3D('',#1311,#1046,#1047);
#939=AXIS2_PLACEMENT_3D('',#1315,#1050,#1051);
#940=AXIS2_PLACEMENT_3D('',#1319,#1054,#1055);
#941=AXIS2_PLACEMENT_3D('',#1321,#1057,#1058);
#942=AXIS2_PLACEMENT_3D('',#1322,#1059,#1060);
#943=AXIS2_PLACEMENT_3D('',#1324,#1061,#1062);
#944=AXIS2_PLACEMENT_3D('',#1326,#1063,#1064);
#945=AXIS2_PLACEMENT_3D('',#1328,#1065,#1066);
#946=AXIS2_PLACEMENT_3D('',#1330,#1067,#1068);
#947=AXIS2_PLACEMENT_3D('',#1332,#1069,#1070);
#948=AXIS2_PLACEMENT_3D('',#1333,#1071,#1072);
#949=AXIS2_PLACEMENT_3D('',#1334,#1073,#1074);
#950=AXIS2_PLACEMENT_3D('',#1335,#1075,#1076);
#951=AXIS2_PLACEMENT_3D('',#1336,#1077,#1078);
#952=AXIS2_PLACEMENT_3D('',#1337,#1079,#1080);
#953=AXIS2_PLACEMENT_3D('',#1343,#1084,#1085);
#954=AXIS2_PLACEMENT_3D('',#1347,#1088,#1089);
#955=AXIS2_PLACEMENT_3D('',#1351,#1092,#1093);
#956=AXIS2_PLACEMENT_3D('',#1355,#1096,#1097);
#957=AXIS2_PLACEMENT_3D('',#1359,#1100,#1101);
#958=AXIS2_PLACEMENT_3D('',#1363,#1104,#1105);
#959=AXIS2_PLACEMENT_3D('',#1367,#1108,#1109);
#960=AXIS2_PLACEMENT_3D('',#1369,#1111,#1112);
#961=AXIS2_PLACEMENT_3D('',#1370,#1113,#1114);
#962=AXIS2_PLACEMENT_3D('',#1376,#1118,#1119);
#963=AXIS2_PLACEMENT_3D('',#1380,#1122,#1123);
#964=AXIS2_PLACEMENT_3D('',#1384,#1126,#1127);
#965=AXIS2_PLACEMENT_3D('',#1386,#1129,#1130);
#966=AXIS2_PLACEMENT_3D('',#1392,#1134,#1135);
#967=AXIS2_PLACEMENT_3D('',#1396,#1138,#1139);
#968=AXIS2_PLACEMENT_3D('',#1400,#1142,#1143);
#969=AXIS2_PLACEMENT_3D('',#1402,#1145,#1146);
#970=AXIS2_PLACEMENT_3D('',#1408,#1150,#1151);
#971=AXIS2_PLACEMENT_3D('',#1412,#1154,#1155);
#972=AXIS2_PLACEMENT_3D('',#1416,#1158,#1159);
#973=AXIS2_PLACEMENT_3D('',#1418,#1161,#1162);
#974=AXIS2_PLACEMENT_3D('',#1424,#1166,#1167);
#975=AXIS2_PLACEMENT_3D('',#1428,#1170,#1171);
#976=AXIS2_PLACEMENT_3D('',#1432,#1174,#1175);
#977=AXIS2_PLACEMENT_3D('',#1434,#1177,#1178);
#978=AXIS2_PLACEMENT_3D('',#1440,#1182,#1183);
#979=AXIS2_PLACEMENT_3D('',#1444,#1186,#1187);
#980=AXIS2_PLACEMENT_3D('',#1448,#1190,#1191);
#981=AXIS2_PLACEMENT_3D('',#1450,#1193,#1194);
#982=AXIS2_PLACEMENT_3D('',#1451,#1195,#1196);
#983=AXIS2_PLACEMENT_3D('',#1457,#1200,#1201);
#984=AXIS2_PLACEMENT_3D('',#1461,#1204,#1205);
#985=AXIS2_PLACEMENT_3D('',#1465,#1208,#1209);
#986=AXIS2_PLACEMENT_3D('',#1467,#1211,#1212);
#987=AXIS2_PLACEMENT_3D('',#1468,#1213,#1214);
#988=AXIS2_PLACEMENT_3D('',#1469,#1215,#1216);
#989=AXIS2_PLACEMENT_3D('',#1470,#1217,#1218);
#990=AXIS2_PLACEMENT_3D('',#1471,#1219,#1220);
#991=DIRECTION('',(0.,0.,1.));
#992=DIRECTION('',(1.,0.,0.));
#993=DIRECTION('',(0.,-1.,0.));
#994=DIRECTION('',(1.,0.,0.));
#995=DIRECTION('',(0.,1.,0.));
#996=DIRECTION('',(0.,0.,1.));
#997=DIRECTION('',(0.,1.,0.));
#998=DIRECTION('',(0.,0.,1.));
#999=DIRECTION('',(0.,1.,0.));
#1000=DIRECTION('',(0.,0.,1.));
#1001=DIRECTION('',(0.,1.,0.));
#1002=DIRECTION('',(0.,0.,1.));
#1003=DIRECTION('',(0.,1.,0.));
#1004=DIRECTION('',(0.,0.,1.));
#1005=DIRECTION('',(1.,0.,0.));
#1006=DIRECTION('',(0.,0.,-1.));
#1007=DIRECTION('',(1.,0.,0.));
#1008=DIRECTION('',(0.,0.,-1.));
#1009=DIRECTION('',(0.,0.,-1.));
#1010=DIRECTION('',(1.,0.,0.));
#1011=DIRECTION('',(0.,0.,-1.));
#1012=DIRECTION('',(1.,0.,0.));
#1013=DIRECTION('',(0.,0.,-1.));
#1014=DIRECTION('',(1.,0.,0.));
#1015=DIRECTION('',(0.,0.,-1.));
#1016=DIRECTION('',(1.,0.,3.85494105772624E-16));
#1017=DIRECTION('',(0.,0.,-1.));
#1018=DIRECTION('',(1.,0.,2.48349817605842E-16));
#1019=DIRECTION('',(0.,0.,-1.));
#1020=DIRECTION('',(1.,0.,2.48349817605842E-16));
#1021=DIRECTION('',(6.20874544014605E-17,0.,-1.));
#1022=DIRECTION('',(1.,0.,2.48349817605842E-16));
#1023=DIRECTION('',(0.,0.,-1.));
#1024=DIRECTION('',(1.,0.,2.48349817605842E-16));
#1025=DIRECTION('',(0.,0.,-1.));
#1026=DIRECTION('',(1.,0.,2.48349817605842E-16));
#1027=DIRECTION('',(6.20874544014605E-17,0.,-1.));
#1028=DIRECTION('',(1.,0.,2.48349817605842E-16));
#1029=DIRECTION('',(0.,0.,-1.));
#1030=DIRECTION('',(1.,0.,2.48349817605842E-16));
#1031=DIRECTION('',(0.,0.,-1.));
#1032=DIRECTION('',(1.,0.,2.48349817605842E-16));
#1033=DIRECTION('',(0.,0.,-1.));
#1034=DIRECTION('',(1.,0.,2.89120579329468E-16));
#1035=DIRECTION('',(0.,0.,-1.));
#1036=DIRECTION('',(1.,0.,2.16840434497101E-16));
#1037=DIRECTION('',(0.,0.,-1.));
#1038=DIRECTION('',(1.,0.,2.7390370673318E-16));
#1039=DIRECTION('',(0.,0.,-1.));
#1040=DIRECTION('',(1.,0.,2.51078397838749E-16));
#1041=DIRECTION('',(0.,0.,1.));
#1042=DIRECTION('',(1.,0.,0.));
#1043=DIRECTION('',(1.,0.,0.));
#1044=DIRECTION('',(0.,1.,0.));
#1045=DIRECTION('',(0.,1.,0.));
#1046=DIRECTION('',(1.,0.,0.));
#1047=DIRECTION('',(0.,0.,-1.));
#1048=DIRECTION('',(0.,0.,-1.));
#1049=DIRECTION('',(0.,1.,0.));
#1050=DIRECTION('',(0.,0.,1.));
#1051=DIRECTION('',(1.,0.,0.));
#1052=DIRECTION('',(1.,0.,0.));
#1053=DIRECTION('',(0.,1.,0.));
#1054=DIRECTION('',(1.,0.,0.));
#1055=DIRECTION('',(0.,0.,-1.));
#1056=DIRECTION('',(0.,0.,-1.));
#1057=DIRECTION('',(0.,-1.,0.));
#1058=DIRECTION('',(1.,0.,0.));
#1059=DIRECTION('',(0.,-1.,0.));
#1060=DIRECTION('',(0.,0.,-1.));
#1061=DIRECTION('',(0.,-1.,0.));
#1062=DIRECTION('',(0.,0.,-1.));
#1063=DIRECTION('',(0.,-1.,0.));
#1064=DIRECTION('',(0.,0.,-1.));
#1065=DIRECTION('',(0.,-1.,0.));
#1066=DIRECTION('',(0.,0.,-1.));
#1067=DIRECTION('',(0.,-1.,0.));
#1068=DIRECTION('',(0.,0.,-1.));
#1069=DIRECTION('',(0.,1.,0.));
#1070=DIRECTION('',(0.,0.,1.));
#1071=DIRECTION('',(0.,1.,0.));
#1072=DIRECTION('',(0.,0.,1.));
#1073=DIRECTION('',(0.,1.,0.));
#1074=DIRECTION('',(0.,0.,1.));
#1075=DIRECTION('',(0.,1.,0.));
#1076=DIRECTION('',(0.,0.,1.));
#1077=DIRECTION('',(0.,1.,0.));
#1078=DIRECTION('',(0.,0.,1.));
#1079=DIRECTION('',(0.,0.,1.));
#1080=DIRECTION('',(1.,0.,0.));
#1081=DIRECTION('',(0.,1.,0.));
#1082=DIRECTION('',(1.,0.,0.));
#1083=DIRECTION('',(0.,1.,0.));
#1084=DIRECTION('',(1.,0.,0.));
#1085=DIRECTION('',(0.,0.,-1.));
#1086=DIRECTION('',(0.,1.,0.));
#1087=DIRECTION('',(0.,0.,-1.));
#1088=DIRECTION('',(-3.85494105772624E-16,0.,1.));
#1089=DIRECTION('',(1.,0.,3.85494105772624E-16));
#1090=DIRECTION('',(0.,1.,0.));
#1091=DIRECTION('',(1.,0.,3.85494105772624E-16));
#1092=DIRECTION('',(1.,0.,0.));
#1093=DIRECTION('',(0.,0.,-1.));
#1094=DIRECTION('',(0.,1.,0.));
#1095=DIRECTION('',(0.,0.,-1.));
#1096=DIRECTION('',(0.,0.,1.));
#1097=DIRECTION('',(1.,0.,0.));
#1098=DIRECTION('',(0.,1.,0.));
#1099=DIRECTION('',(1.,0.,0.));
#1100=DIRECTION('',(1.,0.,0.));
#1101=DIRECTION('',(0.,0.,-1.));
#1102=DIRECTION('',(0.,1.,0.));
#1103=DIRECTION('',(0.,0.,-1.));
#1104=DIRECTION('',(0.,0.,1.));
#1105=DIRECTION('',(1.,0.,0.));
#1106=DIRECTION('',(0.,1.,0.));
#1107=DIRECTION('',(1.,0.,0.));
#1108=DIRECTION('',(1.,0.,0.));
#1109=DIRECTION('',(0.,0.,-1.));
#1110=DIRECTION('',(0.,0.,-1.));
#1111=DIRECTION('',(0.,-1.,0.));
#1112=DIRECTION('',(1.,0.,0.));
#1113=DIRECTION('',(-2.48349817605842E-16,0.,1.));
#1114=DIRECTION('',(1.,0.,2.48349817605842E-16));
#1115=DIRECTION('',(0.,1.,0.));
#1116=DIRECTION('',(1.,0.,2.48349817605842E-16));
#1117=DIRECTION('',(0.,1.,0.));
#1118=DIRECTION('',(1.,0.,0.));
#1119=DIRECTION('',(0.,0.,-1.));
#1120=DIRECTION('',(0.,1.,0.));
#1121=DIRECTION('',(0.,0.,-1.));
#1122=DIRECTION('',(-2.48349817605842E-16,0.,1.));
#1123=DIRECTION('',(1.,0.,2.48349817605842E-16));
#1124=DIRECTION('',(0.,1.,0.));
#1125=DIRECTION('',(1.,0.,2.48349817605842E-16));
#1126=DIRECTION('',(1.,0.,0.));
#1127=DIRECTION('',(0.,0.,-1.));
#1128=DIRECTION('',(0.,0.,-1.));
#1129=DIRECTION('',(-2.48349817605842E-16,0.,1.));
#1130=DIRECTION('',(1.,0.,2.48349817605842E-16));
#1131=DIRECTION('',(0.,1.,0.));
#1132=DIRECTION('',(1.,0.,2.48349817605842E-16));
#1133=DIRECTION('',(0.,1.,0.));
#1134=DIRECTION('',(1.,0.,6.20874544014605E-17));
#1135=DIRECTION('',(6.20874544014605E-17,0.,-1.));
#1136=DIRECTION('',(0.,1.,0.));
#1137=DIRECTION('',(6.20874544014605E-17,0.,-1.));
#1138=DIRECTION('',(-2.48349817605842E-16,0.,1.));
#1139=DIRECTION('',(1.,0.,2.48349817605842E-16));
#1140=DIRECTION('',(0.,1.,0.));
#1141=DIRECTION('',(1.,0.,2.48349817605842E-16));
#1142=DIRECTION('',(1.,0.,0.));
#1143=DIRECTION('',(0.,0.,-1.));
#1144=DIRECTION('',(0.,0.,-1.));
#1145=DIRECTION('',(-2.48349817605842E-16,0.,1.));
#1146=DIRECTION('',(1.,0.,2.48349817605842E-16));
#1147=DIRECTION('',(0.,1.,0.));
#1148=DIRECTION('',(1.,0.,2.48349817605842E-16));
#1149=DIRECTION('',(0.,1.,0.));
#1150=DIRECTION('',(1.,0.,0.));
#1151=DIRECTION('',(0.,0.,-1.));
#1152=DIRECTION('',(0.,1.,0.));
#1153=DIRECTION('',(0.,0.,-1.));
#1154=DIRECTION('',(-2.48349817605842E-16,0.,1.));
#1155=DIRECTION('',(1.,0.,2.48349817605842E-16));
#1156=DIRECTION('',(0.,1.,0.));
#1157=DIRECTION('',(1.,0.,2.48349817605842E-16));
#1158=DIRECTION('',(1.,0.,6.20874544014605E-17));
#1159=DIRECTION('',(6.20874544014605E-17,0.,-1.));
#1160=DIRECTION('',(6.20874544014605E-17,0.,-1.));
#1161=DIRECTION('',(-2.48349817605842E-16,0.,1.));
#1162=DIRECTION('',(1.,0.,2.48349817605842E-16));
#1163=DIRECTION('',(0.,1.,0.));
#1164=DIRECTION('',(1.,0.,2.48349817605842E-16));
#1165=DIRECTION('',(0.,1.,0.));
#1166=DIRECTION('',(1.,0.,0.));
#1167=DIRECTION('',(0.,0.,-1.));
#1168=DIRECTION('',(0.,1.,0.));
#1169=DIRECTION('',(0.,0.,-1.));
#1170=DIRECTION('',(-2.48349817605842E-16,0.,1.));
#1171=DIRECTION('',(1.,0.,2.48349817605842E-16));
#1172=DIRECTION('',(0.,1.,0.));
#1173=DIRECTION('',(1.,0.,2.48349817605842E-16));
#1174=DIRECTION('',(1.,0.,0.));
#1175=DIRECTION('',(0.,0.,-1.));
#1176=DIRECTION('',(0.,0.,-1.));
#1177=DIRECTION('',(-2.89120579329468E-16,0.,1.));
#1178=DIRECTION('',(1.,0.,2.89120579329468E-16));
#1179=DIRECTION('',(0.,1.,0.));
#1180=DIRECTION('',(1.,0.,2.89120579329468E-16));
#1181=DIRECTION('',(0.,1.,0.));
#1182=DIRECTION('',(1.,0.,0.));
#1183=DIRECTION('',(0.,0.,-1.));
#1184=DIRECTION('',(0.,1.,0.));
#1185=DIRECTION('',(0.,0.,-1.));
#1186=DIRECTION('',(-2.16840434497101E-16,0.,1.));
#1187=DIRECTION('',(1.,0.,2.16840434497101E-16));
#1188=DIRECTION('',(0.,1.,0.));
#1189=DIRECTION('',(1.,0.,2.16840434497101E-16));
#1190=DIRECTION('',(1.,0.,0.));
#1191=DIRECTION('',(0.,0.,-1.));
#1192=DIRECTION('',(0.,0.,-1.));
#1193=DIRECTION('',(0.,-1.,0.));
#1194=DIRECTION('',(1.,0.,0.));
#1195=DIRECTION('',(-2.7390370673318E-16,0.,1.));
#1196=DIRECTION('',(1.,0.,2.7390370673318E-16));
#1197=DIRECTION('',(0.,1.,0.));
#1198=DIRECTION('',(1.,0.,2.7390370673318E-16));
#1199=DIRECTION('',(0.,1.,0.));
#1200=DIRECTION('',(1.,0.,0.));
#1201=DIRECTION('',(0.,0.,-1.));
#1202=DIRECTION('',(0.,1.,0.));
#1203=DIRECTION('',(0.,0.,-1.));
#1204=DIRECTION('',(-2.51078397838749E-16,0.,1.));
#1205=DIRECTION('',(1.,0.,2.51078397838749E-16));
#1206=DIRECTION('',(0.,1.,0.));
#1207=DIRECTION('',(1.,0.,2.51078397838749E-16));
#1208=DIRECTION('',(1.,0.,0.));
#1209=DIRECTION('',(0.,0.,-1.));
#1210=DIRECTION('',(0.,0.,-1.));
#1211=DIRECTION('',(0.,-1.,0.));
#1212=DIRECTION('',(1.,0.,0.));
#1213=DIRECTION('',(0.,-1.,0.));
#1214=DIRECTION('',(1.,0.,0.));
#1215=DIRECTION('',(0.,-1.,0.));
#1216=DIRECTION('',(1.,0.,0.));
#1217=DIRECTION('',(0.,-1.,0.));
#1218=DIRECTION('',(1.,0.,0.));
#1219=DIRECTION('',(0.,-1.,0.));
#1220=DIRECTION('',(1.,0.,0.));
#1221=CARTESIAN_POINT('',(0.,0.,0.));
#1222=CARTESIAN_POINT('',(-0.00278357826173305,-0.0016,-0.00503023667352952));
#1223=CARTESIAN_POINT('',(-0.00283357826173305,-0.0016,-0.00203023667352951));
#1224=CARTESIAN_POINT('',(-0.00283357826173305,-0.0016,-0.000530236673529515));
#1225=CARTESIAN_POINT('',(0.040966421738267,-0.0016,0.0234697633264705));
#1226=CARTESIAN_POINT('',(0.040966421738267,-0.0016,0.0249697633264705));
#1227=CARTESIAN_POINT('',(0.040966421738267,-0.0016,-0.0335302366735295));
#1228=CARTESIAN_POINT('',(0.040966421738267,-0.0016,-0.0320302366735295));
#1229=CARTESIAN_POINT('',(-0.0465335782617331,-0.0016,-0.0335302366735295));
#1230=CARTESIAN_POINT('',(-0.0465335782617331,-0.0016,-0.0320302366735295));
#1231=CARTESIAN_POINT('',(-0.0465335782617331,-0.0016,0.0234697633264705));
#1232=CARTESIAN_POINT('',(-0.0465335782617331,-0.0016,0.0249697633264705));
#1233=CARTESIAN_POINT('',(-0.00278357826173306,-0.0016,0.0284697633264705));
#1234=CARTESIAN_POINT('',(-0.0515335782617331,-0.0016,0.0284697633264705));
#1235=CARTESIAN_POINT('',(0.045966421738267,-0.0016,0.0284697633264705));
#1236=CARTESIAN_POINT('',(-0.0515335782617331,-0.0016,-0.00503023667352952));
#1237=CARTESIAN_POINT('',(-0.0515335782617331,-0.0016,-0.0385302366735295));
#1238=CARTESIAN_POINT('',(-0.00278357826173306,-0.0016,-0.0385302366735295));
#1239=CARTESIAN_POINT('',(0.045966421738267,-0.0016,-0.0385302366735295));
#1240=CARTESIAN_POINT('',(0.045966421738267,-0.0016,-0.00503023667352952));
#1241=CARTESIAN_POINT('',(-0.029158578261733,-0.0016,0.0205762633264705));
#1242=CARTESIAN_POINT('',(-0.029158578261733,-0.0016,0.0212887633264705));
#1243=CARTESIAN_POINT('',(-0.029158578261733,-0.0016,0.0198637633264705));
#1244=CARTESIAN_POINT('',(-0.026958578261733,-0.0016,0.0198637633264705));
#1245=CARTESIAN_POINT('',(-0.024758578261733,-0.0016,0.0198637633264705));
#1246=CARTESIAN_POINT('',(-0.024758578261733,-0.0016,0.00936376332647048));
#1247=CARTESIAN_POINT('',(-0.024758578261733,-0.0016,-0.00113623667352952));
#1248=CARTESIAN_POINT('',(-0.033646078261733,-0.0016,-0.00113623667352952));
#1249=CARTESIAN_POINT('',(-0.042533578261733,-0.0016,-0.00113623667352952));
#1250=CARTESIAN_POINT('',(-0.042533578261733,-0.0016,0.00936376332647048));
#1251=CARTESIAN_POINT('',(-0.042533578261733,-0.0016,0.0198637633264705));
#1252=CARTESIAN_POINT('',(-0.0403460782617331,-0.0016,0.0198637633264705));
#1253=CARTESIAN_POINT('',(-0.0381585782617331,-0.0016,0.0198637633264705));
#1254=CARTESIAN_POINT('',(-0.0381585782617331,-0.0016,0.0205762633264705));
#1255=CARTESIAN_POINT('',(-0.0381585782617331,-0.0016,0.0212887633264705));
#1256=CARTESIAN_POINT('',(-0.033658578261733,-0.0016,0.0212887633264705));
#1257=CARTESIAN_POINT('',(0.0270314217382669,-0.0016,-0.0191222366735295));
#1258=CARTESIAN_POINT('',(0.0270314217382669,-0.0016,-0.0121372366735295));
#1259=CARTESIAN_POINT('',(0.0270314217382669,-0.0016,-0.0261072366735296));
#1260=CARTESIAN_POINT('',(0.034016421738267,-0.0016,-0.0121372366735295));
#1261=CARTESIAN_POINT('',(0.041001421738267,-0.0016,-0.0121372366735295));
#1262=CARTESIAN_POINT('',(0.041001421738267,-0.0016,-0.0191222366735295));
#1263=CARTESIAN_POINT('',(0.041001421738267,-0.0016,-0.0261072366735295));
#1264=CARTESIAN_POINT('',(0.034016421738267,-0.0016,-0.0261072366735296));
#1265=CARTESIAN_POINT('',(0.00289242173826695,-0.0016,-0.0191222366735295));
#1266=CARTESIAN_POINT('',(0.00289242173826695,-0.0016,-0.0121372366735295));
#1267=CARTESIAN_POINT('',(0.00289242173826695,-0.0016,-0.0261072366735296));
#1268=CARTESIAN_POINT('',(0.00987742173826695,-0.0016,-0.0121372366735295));
#1269=CARTESIAN_POINT('',(0.016862421738267,-0.0016,-0.0121372366735295));
#1270=CARTESIAN_POINT('',(0.016862421738267,-0.0016,-0.0191222366735295));
#1271=CARTESIAN_POINT('',(0.016862421738267,-0.0016,-0.0261072366735295));
#1272=CARTESIAN_POINT('',(0.00987742173826695,-0.0016,-0.0261072366735296));
#1273=CARTESIAN_POINT('',(-0.0212465782617331,-0.0016,-0.0191222366735295));
#1274=CARTESIAN_POINT('',(-0.0212465782617331,-0.0016,-0.0121372366735295));
#1275=CARTESIAN_POINT('',(-0.0212465782617331,-0.0016,-0.0261072366735295));
#1276=CARTESIAN_POINT('',(-0.014261578261733,-0.0016,-0.0121372366735295));
#1277=CARTESIAN_POINT('',(-0.00727657826173305,-0.0016,-0.0121372366735295));
#1278=CARTESIAN_POINT('',(-0.00727657826173305,-0.0016,-0.0191222366735295));
#1279=CARTESIAN_POINT('',(-0.00727657826173305,-0.0016,-0.0261072366735295));
#1280=CARTESIAN_POINT('',(-0.014261578261733,-0.0016,-0.0261072366735295));
#1281=CARTESIAN_POINT('',(-0.0453855782617331,-0.0016,-0.0191222366735295));
#1282=CARTESIAN_POINT('',(-0.0453855782617331,-0.0016,-0.0121372366735295));
#1283=CARTESIAN_POINT('',(-0.0453855782617331,-0.0016,-0.0261072366735296));
#1284=CARTESIAN_POINT('',(-0.038400578261733,-0.0016,-0.0121372366735295));
#1285=CARTESIAN_POINT('',(-0.0314155782617331,-0.0016,-0.0121372366735295));
#1286=CARTESIAN_POINT('',(-0.0314155782617331,-0.0016,-0.0191222366735295));
#1287=CARTESIAN_POINT('',(-0.0314155782617331,-0.0016,-0.0261072366735295));
#1288=CARTESIAN_POINT('',(-0.038400578261733,-0.0016,-0.0261072366735296));
#1289=CARTESIAN_POINT('',(0.0281664217382669,-0.0016,0.00937476332647048));
#1290=CARTESIAN_POINT('',(0.0281664217382669,-0.0016,0.0153747633264705));
#1291=CARTESIAN_POINT('',(0.0281664217382669,-0.0016,0.00337476332647048));
#1292=CARTESIAN_POINT('',(0.0341664217382669,-0.0016,0.0153747633264705));
#1293=CARTESIAN_POINT('',(0.040166421738267,-0.0016,0.0153747633264705));
#1294=CARTESIAN_POINT('',(0.040166421738267,-0.0016,0.00937476332647048));
#1295=CARTESIAN_POINT('',(0.040166421738267,-0.0016,0.00337476332647049));
#1296=CARTESIAN_POINT('',(0.0341664217382669,-0.0016,0.00337476332647049));
#1297=CARTESIAN_POINT('',(-0.017533578261733,-0.0016,0.00946976332647048));
#1298=CARTESIAN_POINT('',(-0.017533578261733,-0.0016,0.0154697633264705));
#1299=CARTESIAN_POINT('',(-0.017533578261733,-0.0016,0.00346976332647048));
#1300=CARTESIAN_POINT('',(0.00146642173826694,-0.0016,0.0154697633264705));
#1301=CARTESIAN_POINT('',(0.0204664217382669,-0.0016,0.0154697633264705));
#1302=CARTESIAN_POINT('',(0.0204664217382669,-0.0016,0.00946976332647049));
#1303=CARTESIAN_POINT('',(0.0204664217382669,-0.0016,0.00346976332647049));
#1304=CARTESIAN_POINT('',(0.00146642173826694,-0.0016,0.00346976332647048));
#1305=CARTESIAN_POINT('',(-0.00278357826173306,-0.0016,0.0284697633264705));
#1306=CARTESIAN_POINT('',(-0.00278357826173306,0.,0.0284697633264705));
#1307=CARTESIAN_POINT('',(-0.0515335782617331,0.,0.0284697633264705));
#1308=CARTESIAN_POINT('',(0.045966421738267,0.,0.0284697633264705));
#1309=CARTESIAN_POINT('',(-0.0515335782617331,-0.0016,0.0284697633264705));
#1310=CARTESIAN_POINT('',(0.045966421738267,-0.0016,0.0284697633264705));
#1311=CARTESIAN_POINT('',(-0.0515335782617331,-0.0016,-0.00503023667352952));
#1312=CARTESIAN_POINT('',(-0.0515335782617331,0.,-0.00503023667352952));
#1313=CARTESIAN_POINT('',(-0.0515335782617331,0.,-0.0385302366735295));
#1314=CARTESIAN_POINT('',(-0.0515335782617331,-0.0016,-0.0385302366735295));
#1315=CARTESIAN_POINT('',(-0.00278357826173306,-0.0016,-0.0385302366735295));
#1316=CARTESIAN_POINT('',(-0.00278357826173306,0.,-0.0385302366735295));
#1317=CARTESIAN_POINT('',(0.045966421738267,0.,-0.0385302366735295));
#1318=CARTESIAN_POINT('',(0.045966421738267,-0.0016,-0.0385302366735295));
#1319=CARTESIAN_POINT('',(0.045966421738267,-0.0016,-0.00503023667352952));
#1320=CARTESIAN_POINT('',(0.045966421738267,0.,-0.00503023667352952));
#1321=CARTESIAN_POINT('',(-0.00278357826173305,0.,-0.00503023667352952));
#1322=CARTESIAN_POINT('',(-0.00283357826173305,0.,-0.00203023667352951));
#1323=CARTESIAN_POINT('',(-0.00283357826173305,0.,-0.00353023667352951));
#1324=CARTESIAN_POINT('',(0.040966421738267,0.,0.0234697633264705));
#1325=CARTESIAN_POINT('',(0.040966421738267,0.,0.0219697633264705));
#1326=CARTESIAN_POINT('',(0.040966421738267,0.,-0.0335302366735295));
#1327=CARTESIAN_POINT('',(0.040966421738267,0.,-0.0350302366735295));
#1328=CARTESIAN_POINT('',(-0.0465335782617331,0.,-0.0335302366735295));
#1329=CARTESIAN_POINT('',(-0.0465335782617331,0.,-0.0350302366735296));
#1330=CARTESIAN_POINT('',(-0.0465335782617331,0.,0.0234697633264705));
#1331=CARTESIAN_POINT('',(-0.0465335782617331,0.,0.0219697633264705));
#1332=CARTESIAN_POINT('',(-0.0465335782617331,-0.0016,0.0234697633264705));
#1333=CARTESIAN_POINT('',(-0.0465335782617331,-0.0016,-0.0335302366735295));
#1334=CARTESIAN_POINT('',(0.040966421738267,-0.0016,-0.0335302366735295));
#1335=CARTESIAN_POINT('',(0.040966421738267,-0.0016,0.0234697633264705));
#1336=CARTESIAN_POINT('',(-0.00283357826173305,-0.0016,-0.00203023667352951));
#1337=CARTESIAN_POINT('',(-0.026958578261733,-0.0046,0.0198637633264705));
#1338=CARTESIAN_POINT('',(-0.029158578261733,-0.0046,0.0198637633264705));
#1339=CARTESIAN_POINT('',(-0.029158578261733,-0.0046,0.0198637633264705));
#1340=CARTESIAN_POINT('',(-0.026958578261733,-0.0046,0.0198637633264705));
#1341=CARTESIAN_POINT('',(-0.024758578261733,-0.0046,0.0198637633264705));
#1342=CARTESIAN_POINT('',(-0.024758578261733,-0.0046,0.0198637633264705));
#1343=CARTESIAN_POINT('',(-0.029158578261733,-0.0046,0.0205762633264705));
#1344=CARTESIAN_POINT('',(-0.029158578261733,-0.0046,0.0212887633264705));
#1345=CARTESIAN_POINT('',(-0.029158578261733,-0.0046,0.0212887633264705));
#1346=CARTESIAN_POINT('',(-0.029158578261733,-0.0046,0.0205762633264705));
#1347=CARTESIAN_POINT('',(-0.033658578261733,-0.0046,0.0212887633264705));
#1348=CARTESIAN_POINT('',(-0.0381585782617331,-0.0046,0.0212887633264705));
#1349=CARTESIAN_POINT('',(-0.0381585782617331,-0.0046,0.0212887633264705));
#1350=CARTESIAN_POINT('',(-0.033658578261733,-0.0046,0.0212887633264705));
#1351=CARTESIAN_POINT('',(-0.0381585782617331,-0.0046,0.0205762633264705));
#1352=CARTESIAN_POINT('',(-0.0381585782617331,-0.0046,0.0198637633264705));
#1353=CARTESIAN_POINT('',(-0.0381585782617331,-0.0046,0.0198637633264705));
#1354=CARTESIAN_POINT('',(-0.0381585782617331,-0.0046,0.0205762633264705));
#1355=CARTESIAN_POINT('',(-0.0403460782617331,-0.0046,0.0198637633264705));
#1356=CARTESIAN_POINT('',(-0.042533578261733,-0.0046,0.0198637633264705));
#1357=CARTESIAN_POINT('',(-0.042533578261733,-0.0046,0.0198637633264705));
#1358=CARTESIAN_POINT('',(-0.0403460782617331,-0.0046,0.0198637633264705));
#1359=CARTESIAN_POINT('',(-0.042533578261733,-0.0046,0.00936376332647048));
#1360=CARTESIAN_POINT('',(-0.042533578261733,-0.0046,-0.00113623667352952));
#1361=CARTESIAN_POINT('',(-0.042533578261733,-0.0046,-0.00113623667352952));
#1362=CARTESIAN_POINT('',(-0.042533578261733,-0.0046,0.00936376332647048));
#1363=CARTESIAN_POINT('',(-0.033646078261733,-0.0046,-0.00113623667352952));
#1364=CARTESIAN_POINT('',(-0.024758578261733,-0.0046,-0.00113623667352952));
#1365=CARTESIAN_POINT('',(-0.024758578261733,-0.0046,-0.00113623667352952));
#1366=CARTESIAN_POINT('',(-0.033646078261733,-0.0046,-0.00113623667352952));
#1367=CARTESIAN_POINT('',(-0.024758578261733,-0.0046,0.00936376332647048));
#1368=CARTESIAN_POINT('',(-0.024758578261733,-0.0046,0.00936376332647048));
#1369=CARTESIAN_POINT('',(-0.00278357826173305,-0.0046,-0.00503023667352952));
#1370=CARTESIAN_POINT('',(0.034016421738267,-0.0046,-0.0121372366735295));
#1371=CARTESIAN_POINT('',(0.0270314217382669,-0.0046,-0.0121372366735295));
#1372=CARTESIAN_POINT('',(0.0270314217382669,-0.0132,-0.0121372366735295));
#1373=CARTESIAN_POINT('',(0.034016421738267,-0.0132,-0.0121372366735295));
#1374=CARTESIAN_POINT('',(0.041001421738267,-0.0132,-0.0121372366735295));
#1375=CARTESIAN_POINT('',(0.041001421738267,-0.0046,-0.0121372366735295));
#1376=CARTESIAN_POINT('',(0.0270314217382669,-0.0046,-0.0191222366735295));
#1377=CARTESIAN_POINT('',(0.0270314217382669,-0.0046,-0.0261072366735296));
#1378=CARTESIAN_POINT('',(0.0270314217382669,-0.0132,-0.0261072366735296));
#1379=CARTESIAN_POINT('',(0.0270314217382669,-0.0132,-0.0191222366735295));
#1380=CARTESIAN_POINT('',(0.034016421738267,-0.0046,-0.0261072366735296));
#1381=CARTESIAN_POINT('',(0.041001421738267,-0.0046,-0.0261072366735295));
#1382=CARTESIAN_POINT('',(0.041001421738267,-0.0132,-0.0261072366735295));
#1383=CARTESIAN_POINT('',(0.034016421738267,-0.0132,-0.0261072366735296));
#1384=CARTESIAN_POINT('',(0.041001421738267,-0.0046,-0.0191222366735295));
#1385=CARTESIAN_POINT('',(0.041001421738267,-0.0132,-0.0191222366735295));
#1386=CARTESIAN_POINT('',(0.00987742173826695,-0.0046,-0.0121372366735295));
#1387=CARTESIAN_POINT('',(0.00289242173826695,-0.0046,-0.0121372366735295));
#1388=CARTESIAN_POINT('',(0.00289242173826695,-0.0132,-0.0121372366735295));
#1389=CARTESIAN_POINT('',(0.00987742173826695,-0.0132,-0.0121372366735295));
#1390=CARTESIAN_POINT('',(0.016862421738267,-0.0132,-0.0121372366735295));
#1391=CARTESIAN_POINT('',(0.016862421738267,-0.0046,-0.0121372366735295));
#1392=CARTESIAN_POINT('',(0.00289242173826695,-0.0046,-0.0191222366735295));
#1393=CARTESIAN_POINT('',(0.00289242173826695,-0.0046,-0.0261072366735296));
#1394=CARTESIAN_POINT('',(0.00289242173826695,-0.0132,-0.0261072366735296));
#1395=CARTESIAN_POINT('',(0.00289242173826695,-0.0132,-0.0191222366735295));
#1396=CARTESIAN_POINT('',(0.00987742173826695,-0.0046,-0.0261072366735296));
#1397=CARTESIAN_POINT('',(0.016862421738267,-0.0046,-0.0261072366735295));
#1398=CARTESIAN_POINT('',(0.016862421738267,-0.0132,-0.0261072366735295));
#1399=CARTESIAN_POINT('',(0.00987742173826695,-0.0132,-0.0261072366735296));
#1400=CARTESIAN_POINT('',(0.016862421738267,-0.0046,-0.0191222366735295));
#1401=CARTESIAN_POINT('',(0.016862421738267,-0.0132,-0.0191222366735295));
#1402=CARTESIAN_POINT('',(-0.014261578261733,-0.0046,-0.0121372366735295));
#1403=CARTESIAN_POINT('',(-0.0212465782617331,-0.0046,-0.0121372366735295));
#1404=CARTESIAN_POINT('',(-0.0212465782617331,-0.0132,-0.0121372366735295));
#1405=CARTESIAN_POINT('',(-0.014261578261733,-0.0132,-0.0121372366735295));
#1406=CARTESIAN_POINT('',(-0.00727657826173305,-0.0132,-0.0121372366735295));
#1407=CARTESIAN_POINT('',(-0.00727657826173305,-0.0046,-0.0121372366735295));
#1408=CARTESIAN_POINT('',(-0.0212465782617331,-0.0046,-0.0191222366735295));
#1409=CARTESIAN_POINT('',(-0.0212465782617331,-0.0046,-0.0261072366735295));
#1410=CARTESIAN_POINT('',(-0.0212465782617331,-0.0132,-0.0261072366735295));
#1411=CARTESIAN_POINT('',(-0.0212465782617331,-0.0132,-0.0191222366735295));
#1412=CARTESIAN_POINT('',(-0.014261578261733,-0.0046,-0.0261072366735295));
#1413=CARTESIAN_POINT('',(-0.00727657826173305,-0.0046,-0.0261072366735295));
#1414=CARTESIAN_POINT('',(-0.00727657826173305,-0.0132,-0.0261072366735295));
#1415=CARTESIAN_POINT('',(-0.014261578261733,-0.0132,-0.0261072366735295));
#1416=CARTESIAN_POINT('',(-0.00727657826173305,-0.0046,-0.0191222366735295));
#1417=CARTESIAN_POINT('',(-0.00727657826173305,-0.0132,-0.0191222366735295));
#1418=CARTESIAN_POINT('',(-0.038400578261733,-0.0046,-0.0121372366735295));
#1419=CARTESIAN_POINT('',(-0.0453855782617331,-0.0046,-0.0121372366735295));
#1420=CARTESIAN_POINT('',(-0.0453855782617331,-0.0132,-0.0121372366735295));
#1421=CARTESIAN_POINT('',(-0.038400578261733,-0.0132,-0.0121372366735295));
#1422=CARTESIAN_POINT('',(-0.0314155782617331,-0.0132,-0.0121372366735295));
#1423=CARTESIAN_POINT('',(-0.0314155782617331,-0.0046,-0.0121372366735295));
#1424=CARTESIAN_POINT('',(-0.0453855782617331,-0.0046,-0.0191222366735295));
#1425=CARTESIAN_POINT('',(-0.0453855782617331,-0.0046,-0.0261072366735296));
#1426=CARTESIAN_POINT('',(-0.0453855782617331,-0.0132,-0.0261072366735296));
#1427=CARTESIAN_POINT('',(-0.0453855782617331,-0.0132,-0.0191222366735295));
#1428=CARTESIAN_POINT('',(-0.038400578261733,-0.0046,-0.0261072366735296));
#1429=CARTESIAN_POINT('',(-0.0314155782617331,-0.0046,-0.0261072366735295));
#1430=CARTESIAN_POINT('',(-0.0314155782617331,-0.0132,-0.0261072366735295));
#1431=CARTESIAN_POINT('',(-0.038400578261733,-0.0132,-0.0261072366735296));
#1432=CARTESIAN_POINT('',(-0.0314155782617331,-0.0046,-0.0191222366735295));
#1433=CARTESIAN_POINT('',(-0.0314155782617331,-0.0132,-0.0191222366735295));
#1434=CARTESIAN_POINT('',(0.0341664217382669,-0.0046,0.0153747633264705));
#1435=CARTESIAN_POINT('',(0.0281664217382669,-0.0046,0.0153747633264705));
#1436=CARTESIAN_POINT('',(0.0281664217382669,-0.0046,0.0153747633264705));
#1437=CARTESIAN_POINT('',(0.0341664217382669,-0.0046,0.0153747633264705));
#1438=CARTESIAN_POINT('',(0.040166421738267,-0.0046,0.0153747633264705));
#1439=CARTESIAN_POINT('',(0.040166421738267,-0.0046,0.0153747633264705));
#1440=CARTESIAN_POINT('',(0.0281664217382669,-0.0046,0.00937476332647048));
#1441=CARTESIAN_POINT('',(0.0281664217382669,-0.0046,0.00337476332647048));
#1442=CARTESIAN_POINT('',(0.0281664217382669,-0.0046,0.00337476332647048));
#1443=CARTESIAN_POINT('',(0.0281664217382669,-0.0046,0.00937476332647048));
#1444=CARTESIAN_POINT('',(0.0341664217382669,-0.0046,0.00337476332647049));
#1445=CARTESIAN_POINT('',(0.040166421738267,-0.0046,0.00337476332647049));
#1446=CARTESIAN_POINT('',(0.040166421738267,-0.0046,0.00337476332647049));
#1447=CARTESIAN_POINT('',(0.0341664217382669,-0.0046,0.00337476332647049));
#1448=CARTESIAN_POINT('',(0.040166421738267,-0.0046,0.00937476332647048));
#1449=CARTESIAN_POINT('',(0.040166421738267,-0.0046,0.00937476332647048));
#1450=CARTESIAN_POINT('',(-0.00278357826173305,-0.0046,-0.00503023667352952));
#1451=CARTESIAN_POINT('',(0.00146642173826694,-0.0046,0.0154697633264705));
#1452=CARTESIAN_POINT('',(-0.017533578261733,-0.0046,0.0154697633264705));
#1453=CARTESIAN_POINT('',(-0.017533578261733,-0.0046,0.0154697633264705));
#1454=CARTESIAN_POINT('',(0.00146642173826694,-0.0046,0.0154697633264705));
#1455=CARTESIAN_POINT('',(0.0204664217382669,-0.0046,0.0154697633264705));
#1456=CARTESIAN_POINT('',(0.0204664217382669,-0.0046,0.0154697633264705));
#1457=CARTESIAN_POINT('',(-0.017533578261733,-0.0046,0.00946976332647048));
#1458=CARTESIAN_POINT('',(-0.017533578261733,-0.0046,0.00346976332647048));
#1459=CARTESIAN_POINT('',(-0.017533578261733,-0.0046,0.00346976332647048));
#1460=CARTESIAN_POINT('',(-0.017533578261733,-0.0046,0.00946976332647048));
#1461=CARTESIAN_POINT('',(0.00146642173826694,-0.0046,0.00346976332647048));
#1462=CARTESIAN_POINT('',(0.0204664217382669,-0.0046,0.00346976332647049));
#1463=CARTESIAN_POINT('',(0.0204664217382669,-0.0046,0.00346976332647049));
#1464=CARTESIAN_POINT('',(0.00146642173826694,-0.0046,0.00346976332647048));
#1465=CARTESIAN_POINT('',(0.0204664217382669,-0.0046,0.00946976332647049));
#1466=CARTESIAN_POINT('',(0.0204664217382669,-0.0046,0.00946976332647049));
#1467=CARTESIAN_POINT('',(-0.00278357826173305,-0.0046,-0.00503023667352952));
#1468=CARTESIAN_POINT('',(-0.00278357826173305,-0.0132,-0.00503023667352952));
#1469=CARTESIAN_POINT('',(-0.00278357826173305,-0.0132,-0.00503023667352952));
#1470=CARTESIAN_POINT('',(-0.00278357826173305,-0.0132,-0.00503023667352952));
#1471=CARTESIAN_POINT('',(-0.00278357826173305,-0.0132,-0.00503023667352952));
#1472=MECHANICAL_DESIGN_GEOMETRIC_PRESENTATION_REPRESENTATION('',(#919),
#1473);
#1473=(
GEOMETRIC_REPRESENTATION_CONTEXT(3)
GLOBAL_UNCERTAINTY_ASSIGNED_CONTEXT((#1474))
GLOBAL_UNIT_ASSIGNED_CONTEXT((#1477,#1476,#1475))
REPRESENTATION_CONTEXT('Part 1','TOP_LEVEL_ASSEMBLY_PART')
);
#1474=UNCERTAINTY_MEASURE_WITH_UNIT(LENGTH_MEASURE(1.E-8),#1477,
'DISTANCE_ACCURACY_VALUE','Maximum Tolerance applied to model');
#1475=(
NAMED_UNIT(*)
SI_UNIT($,.STERADIAN.)
SOLID_ANGLE_UNIT()
);
#1476=(
NAMED_UNIT(*)
PLANE_ANGLE_UNIT()
SI_UNIT($,.RADIAN.)
);
#1477=(
LENGTH_UNIT()
NAMED_UNIT(*)
SI_UNIT($,.METRE.)
);
#1478=PRODUCT_DEFINITION_SHAPE('','',#1479);
#1479=PRODUCT_DEFINITION('','',#1481,#1480);
#1480=PRODUCT_DEFINITION_CONTEXT('',#1487,'design');
#1481=PRODUCT_DEFINITION_FORMATION_WITH_SPECIFIED_SOURCE('','',#1483,
 .NOT_KNOWN.);
#1482=PRODUCT_RELATED_PRODUCT_CATEGORY('','',(#1483));
#1483=PRODUCT('Part 1','Part 1','Part 1',(#1485));
#1484=PRODUCT_CATEGORY('','');
#1485=PRODUCT_CONTEXT('',#1487,'mechanical');
#1486=APPLICATION_PROTOCOL_DEFINITION('international standard',
'ap242_managed_model_based_3d_engineering',2020,#1487);
#1487=APPLICATION_CONTEXT('managed model based 3d engineering');
ENDSEC;
END-ISO-10303-21;
