M48
; DRILL file KiCad 10.0.5 date 2026-09-09T18:00:22
; FORMAT={-:-/ absolute / metric / decimal}
; #@! TF.CreationDate,2026-09-09T18:00:22+01:00
; #@! TF.GenerationSoftware,Kicad,Pcbnew,10.0.5
; #@! TF.FileFunction,MixedPlating,1,2
FMAT,2
METRIC
; #@! TA.AperFunction,Plated,PTH,ViaDrill
T1C0.300
; #@! TA.AperFunction,Plated,PTH,ComponentDrill
T2C1.000
; #@! TA.AperFunction,Plated,PTH,ComponentDrill
T3C1.500
; #@! TA.AperFunction,Plated,PTH,ComponentDrill
T4C3.200
; #@! TA.AperFunction,NonPlated,NPTH,ComponentDrill
T5C1.700
; #@! TA.AperFunction,NonPlated,NPTH,ComponentDrill
T6C4.000
%
G90
G05
T1
X94.5Y-61.5
X94.5Y-64.0
X94.5Y-66.5
X95.0Y-75.0
X95.0Y-77.5
X103.0Y-95.5
X120.0Y-65.0
X121.0Y-67.0
X121.0Y-72.5
X121.5Y-66.0
X121.5Y-66.0
X123.0Y-66.0
X123.0Y-68.5
X124.0Y-77.5
X124.0Y-92.5
X125.5Y-87.5
X127.5Y-88.5
X127.5Y-95.5
X130.5Y-86.5
X151.5Y-95.5
X152.0Y-87.5
X165.0Y-66.5
X165.0Y-71.0
X165.5Y-75.0
X175.5Y-95.5
X186.0Y-77.5
T2
X100.75Y-63.0
X100.75Y-65.54
X100.75Y-68.08
X100.75Y-70.62
X100.75Y-73.16
X100.75Y-75.7
X100.75Y-78.24
X116.0Y-63.0
X116.0Y-65.54
X116.0Y-68.08
X116.0Y-70.62
X116.0Y-73.16
X116.0Y-75.7
X116.0Y-78.24
X126.0Y-66.69
X126.0Y-69.23
X126.0Y-71.77
X126.0Y-74.31
X168.75Y-68.0
X168.75Y-70.5
X168.75Y-73.0
X183.25Y-68.0
X183.25Y-73.0
T3
X99.844Y-96.5
X106.194Y-93.96
X124.0Y-96.5
X130.35Y-93.96
X148.156Y-96.5
X154.506Y-93.96
X172.311Y-96.5
X178.661Y-93.96
T4
X95.5Y-56.536
X95.5Y-113.464
X139.232Y-82.0
X182.964Y-56.5
X183.0Y-113.5
T5
X98.574Y-99.04
X108.734Y-99.04
X122.73Y-99.04
X132.89Y-99.04
X146.886Y-99.04
X157.046Y-99.04
X171.041Y-99.04
X181.201Y-99.04
T6
X103.654Y-99.04
X127.81Y-99.04
X151.966Y-99.04
X176.121Y-99.04
T3
X175.6Y-64.9G85X176.9Y-64.9
G05
X175.6Y-76.1G85X176.9Y-76.1
G05
M30
