%TF.GenerationSoftware,KiCad,Pcbnew,10.0.5*%
%TF.CreationDate,2026-09-09T18:00:22+01:00*%
%TF.ProjectId,mousekeyboard,6d6f7573-656b-4657-9962-6f6172642e6b,rev?*%
%TF.SameCoordinates,Original*%
%TF.FileFunction,Soldermask,Top*%
%TF.FilePolarity,Negative*%
%FSLAX46Y46*%
G04 Gerber Fmt 4.6, Leading zero omitted, Abs format (unit mm)*
G04 Created by KiCad (PCBNEW 10.0.5) date 2026-09-09 18:00:22*
%MOMM*%
%LPD*%
G01*
G04 APERTURE LIST*
G04 Aperture macros list*
%AMRoundRect*
0 Rectangle with rounded corners*
0 $1 Rounding radius*
0 $2 $3 $4 $5 $6 $7 $8 $9 X,Y pos of 4 corners*
0 Add a 4 corners polygon primitive as box body*
4,1,4,$2,$3,$4,$5,$6,$7,$8,$9,$2,$3,0*
0 Add four circle primitives for the rounded corners*
1,1,$1+$1,$2,$3*
1,1,$1+$1,$4,$5*
1,1,$1+$1,$6,$7*
1,1,$1+$1,$8,$9*
0 Add four rect primitives between the rounded corners*
20,1,$1+$1,$2,$3,$4,$5,0*
20,1,$1+$1,$4,$5,$6,$7,0*
20,1,$1+$1,$6,$7,$8,$9,0*
20,1,$1+$1,$8,$9,$2,$3,0*%
G04 Aperture macros list end*
%ADD10C,5.600000*%
%ADD11C,1.700000*%
%ADD12C,4.000000*%
%ADD13C,2.200000*%
%ADD14R,2.000000X2.000000*%
%ADD15C,2.000000*%
%ADD16R,3.200000X2.000000*%
%ADD17R,3.500000X1.700000*%
%ADD18O,3.600000X1.700000*%
%ADD19O,3.700000X1.700000*%
%ADD20RoundRect,0.170000X0.680000X-0.680000X0.680000X0.680000X-0.680000X0.680000X-0.680000X-0.680000X0*%
G04 APERTURE END LIST*
D10*
%TO.C,REF\u002A\u002A*%
X183000000Y-113500000D03*
%TD*%
D11*
%TO.C,SW3*%
X146885555Y-99040000D03*
D12*
X151965555Y-99040000D03*
D11*
X157045555Y-99040000D03*
D13*
X154505555Y-93960000D03*
X148155555Y-96500000D03*
%TD*%
D10*
%TO.C,REF\u002A\u002A*%
X139232233Y-82000000D03*
%TD*%
%TO.C,REF\u002A\u002A*%
X95500000Y-56535534D03*
%TD*%
%TO.C,REF\u002A\u002A*%
X95500000Y-113464466D03*
%TD*%
D11*
%TO.C,SW2*%
X122730000Y-99040000D03*
D12*
X127810000Y-99040000D03*
D11*
X132890000Y-99040000D03*
D13*
X130350000Y-93960000D03*
X124000000Y-96500000D03*
%TD*%
D14*
%TO.C,SW5*%
X168750000Y-68000000D03*
D15*
X168750000Y-73000000D03*
X168750000Y-70500000D03*
D16*
X176250000Y-64900000D03*
X176250000Y-76100000D03*
D15*
X183250000Y-73000000D03*
X183250000Y-68000000D03*
%TD*%
D17*
%TO.C,U1*%
X99750000Y-63000000D03*
D18*
X99750000Y-65540000D03*
X99750000Y-68080000D03*
X99750000Y-70620000D03*
X99750000Y-73160000D03*
X99750000Y-75700000D03*
X99750000Y-78240000D03*
X117000000Y-78240000D03*
X117000000Y-75700000D03*
X117000000Y-73160000D03*
D19*
X117000000Y-70620000D03*
X117000000Y-68080000D03*
X117000000Y-65540000D03*
X117000000Y-63000000D03*
%TD*%
D11*
%TO.C,SW1*%
X98574444Y-99040000D03*
D12*
X103654444Y-99040000D03*
D11*
X108734444Y-99040000D03*
D13*
X106194444Y-93960000D03*
X99844444Y-96500000D03*
%TD*%
D20*
%TO.C,U2*%
X126000000Y-74310000D03*
D11*
X126000000Y-71770000D03*
X126000000Y-69230000D03*
X126000000Y-66690000D03*
%TD*%
D10*
%TO.C,REF\u002A\u002A*%
X182964466Y-56500000D03*
%TD*%
D11*
%TO.C,SW4*%
X171041111Y-99040000D03*
D12*
X176121111Y-99040000D03*
D11*
X181201111Y-99040000D03*
D13*
X178661111Y-93960000D03*
X172311111Y-96500000D03*
%TD*%
M02*
