ISO-10303-21;
HEADER;
/* Generated by software containing ST-Developer
 * from STEP Tools, Inc. (www.steptools.com) 
 */
/* OPTION: using custom renumber hook */

FILE_DESCRIPTION(
/* description */ ('STEP AP242 Edition 2',
'CAx-IF Rec.Pracs.---Representation and Presentation of Product Manufa
cturing Information (PMI)---4.0---2014-10-13',
'CAx-IF Rec.Pracs.---3D Tessellated Geometry---0.4---2014-09-14','2;1',
'CAx-IF Rec.Pracs.---User Defined Attributes---1.5---2016-08-15'),
/* implementation_level */ '2;1');

FILE_NAME(
/* name */ 'Part Studio 1 - Part 2',
/* time_stamp */ '2026-09-27T13:37:36Z',
/* author */ (''),
/* organization */ (''),
/* preprocessor_version */ 'ST-DEVELOPER v20',
/* originating_system */ 'ONSHAPE BY PTC INC, 1.221',
/* authorisation */ '  ');

FILE_SCHEMA (('AP242_MANAGED_MODEL_BASED_3D_ENGINEERING_MIM_LF { 1 0 10303 442 3 1 4 }'));
ENDSEC;

DATA;
#10=SHAPE_REPRESENTATION_RELATIONSHIP('','',#401,#11);
#11=ADVANCED_BREP_SHAPE_REPRESENTATION('',(#399),#687);
#12=CIRCLE('',#405,0.01);
#13=CIRCLE('',#406,0.01);
#14=CIRCLE('',#409,0.01);
#15=CIRCLE('',#410,0.01);
#16=CIRCLE('',#413,0.01);
#17=CIRCLE('',#414,0.01);
#18=CIRCLE('',#417,0.01);
#19=CIRCLE('',#418,0.01);
#20=CIRCLE('',#420,0.0021);
#21=CIRCLE('',#421,0.0021);
#22=CIRCLE('',#422,0.0021);
#23=CIRCLE('',#423,0.0021);
#24=CIRCLE('',#424,0.0021);
#25=CIRCLE('',#426,0.0045);
#26=CIRCLE('',#427,0.0045);
#27=CIRCLE('',#428,0.0045);
#28=CIRCLE('',#429,0.0045);
#29=CIRCLE('',#430,0.0045);
#30=CIRCLE('',#432,0.0045);
#31=CIRCLE('',#434,0.0021);
#32=CIRCLE('',#436,0.0045);
#33=CIRCLE('',#438,0.0021);
#34=CIRCLE('',#440,0.0045);
#35=CIRCLE('',#442,0.0021);
#36=CIRCLE('',#444,0.0045);
#37=CIRCLE('',#446,0.0021);
#38=CIRCLE('',#448,0.0045);
#39=CIRCLE('',#450,0.0021);
#40=CYLINDRICAL_SURFACE('',#404,0.01);
#41=CYLINDRICAL_SURFACE('',#408,0.01);
#42=CYLINDRICAL_SURFACE('',#412,0.01);
#43=CYLINDRICAL_SURFACE('',#416,0.01);
#44=CYLINDRICAL_SURFACE('',#431,0.0045);
#45=CYLINDRICAL_SURFACE('',#435,0.0045);
#46=CYLINDRICAL_SURFACE('',#439,0.0045);
#47=CYLINDRICAL_SURFACE('',#443,0.0045);
#48=CYLINDRICAL_SURFACE('',#447,0.0045);
#49=CYLINDRICAL_SURFACE('',#451,0.0021);
#50=CYLINDRICAL_SURFACE('',#452,0.0021);
#51=CYLINDRICAL_SURFACE('',#453,0.0021);
#52=CYLINDRICAL_SURFACE('',#454,0.0021);
#53=CYLINDRICAL_SURFACE('',#455,0.0021);
#54=ORIENTED_EDGE('',*,*,#142,.F.);
#55=ORIENTED_EDGE('',*,*,#143,.F.);
#56=ORIENTED_EDGE('',*,*,#144,.T.);
#57=ORIENTED_EDGE('',*,*,#145,.T.);
#58=ORIENTED_EDGE('',*,*,#146,.F.);
#59=ORIENTED_EDGE('',*,*,#145,.F.);
#60=ORIENTED_EDGE('',*,*,#147,.T.);
#61=ORIENTED_EDGE('',*,*,#148,.T.);
#62=ORIENTED_EDGE('',*,*,#149,.T.);
#63=ORIENTED_EDGE('',*,*,#148,.F.);
#64=ORIENTED_EDGE('',*,*,#150,.F.);
#65=ORIENTED_EDGE('',*,*,#151,.T.);
#66=ORIENTED_EDGE('',*,*,#152,.F.);
#67=ORIENTED_EDGE('',*,*,#151,.F.);
#68=ORIENTED_EDGE('',*,*,#153,.T.);
#69=ORIENTED_EDGE('',*,*,#154,.T.);
#70=ORIENTED_EDGE('',*,*,#155,.T.);
#71=ORIENTED_EDGE('',*,*,#154,.F.);
#72=ORIENTED_EDGE('',*,*,#156,.F.);
#73=ORIENTED_EDGE('',*,*,#157,.T.);
#74=ORIENTED_EDGE('',*,*,#158,.F.);
#75=ORIENTED_EDGE('',*,*,#157,.F.);
#76=ORIENTED_EDGE('',*,*,#159,.T.);
#77=ORIENTED_EDGE('',*,*,#160,.T.);
#78=ORIENTED_EDGE('',*,*,#161,.F.);
#79=ORIENTED_EDGE('',*,*,#160,.F.);
#80=ORIENTED_EDGE('',*,*,#162,.T.);
#81=ORIENTED_EDGE('',*,*,#163,.T.);
#82=ORIENTED_EDGE('',*,*,#164,.F.);
#83=ORIENTED_EDGE('',*,*,#163,.F.);
#84=ORIENTED_EDGE('',*,*,#165,.T.);
#85=ORIENTED_EDGE('',*,*,#143,.T.);
#86=ORIENTED_EDGE('',*,*,#166,.F.);
#87=ORIENTED_EDGE('',*,*,#167,.F.);
#88=ORIENTED_EDGE('',*,*,#168,.F.);
#89=ORIENTED_EDGE('',*,*,#169,.F.);
#90=ORIENTED_EDGE('',*,*,#170,.F.);
#91=ORIENTED_EDGE('',*,*,#144,.F.);
#92=ORIENTED_EDGE('',*,*,#165,.F.);
#93=ORIENTED_EDGE('',*,*,#162,.F.);
#94=ORIENTED_EDGE('',*,*,#159,.F.);
#95=ORIENTED_EDGE('',*,*,#156,.T.);
#96=ORIENTED_EDGE('',*,*,#153,.F.);
#97=ORIENTED_EDGE('',*,*,#150,.T.);
#98=ORIENTED_EDGE('',*,*,#147,.F.);
#99=ORIENTED_EDGE('',*,*,#171,.F.);
#100=ORIENTED_EDGE('',*,*,#172,.F.);
#101=ORIENTED_EDGE('',*,*,#173,.F.);
#102=ORIENTED_EDGE('',*,*,#174,.F.);
#103=ORIENTED_EDGE('',*,*,#175,.F.);
#104=ORIENTED_EDGE('',*,*,#142,.T.);
#105=ORIENTED_EDGE('',*,*,#146,.T.);
#106=ORIENTED_EDGE('',*,*,#149,.F.);
#107=ORIENTED_EDGE('',*,*,#152,.T.);
#108=ORIENTED_EDGE('',*,*,#155,.F.);
#109=ORIENTED_EDGE('',*,*,#158,.T.);
#110=ORIENTED_EDGE('',*,*,#161,.T.);
#111=ORIENTED_EDGE('',*,*,#164,.T.);
#112=ORIENTED_EDGE('',*,*,#176,.F.);
#113=ORIENTED_EDGE('',*,*,#175,.T.);
#114=ORIENTED_EDGE('',*,*,#177,.T.);
#115=ORIENTED_EDGE('',*,*,#176,.T.);
#116=ORIENTED_EDGE('',*,*,#178,.F.);
#117=ORIENTED_EDGE('',*,*,#174,.T.);
#118=ORIENTED_EDGE('',*,*,#179,.T.);
#119=ORIENTED_EDGE('',*,*,#178,.T.);
#120=ORIENTED_EDGE('',*,*,#180,.F.);
#121=ORIENTED_EDGE('',*,*,#173,.T.);
#122=ORIENTED_EDGE('',*,*,#181,.T.);
#123=ORIENTED_EDGE('',*,*,#180,.T.);
#124=ORIENTED_EDGE('',*,*,#182,.F.);
#125=ORIENTED_EDGE('',*,*,#172,.T.);
#126=ORIENTED_EDGE('',*,*,#183,.T.);
#127=ORIENTED_EDGE('',*,*,#182,.T.);
#128=ORIENTED_EDGE('',*,*,#184,.F.);
#129=ORIENTED_EDGE('',*,*,#171,.T.);
#130=ORIENTED_EDGE('',*,*,#185,.T.);
#131=ORIENTED_EDGE('',*,*,#184,.T.);
#132=ORIENTED_EDGE('',*,*,#185,.F.);
#133=ORIENTED_EDGE('',*,*,#166,.T.);
#134=ORIENTED_EDGE('',*,*,#183,.F.);
#135=ORIENTED_EDGE('',*,*,#170,.T.);
#136=ORIENTED_EDGE('',*,*,#181,.F.);
#137=ORIENTED_EDGE('',*,*,#169,.T.);
#138=ORIENTED_EDGE('',*,*,#179,.F.);
#139=ORIENTED_EDGE('',*,*,#168,.T.);
#140=ORIENTED_EDGE('',*,*,#177,.F.);
#141=ORIENTED_EDGE('',*,*,#167,.T.);
#142=EDGE_CURVE('',#186,#187,#222,.T.);
#143=EDGE_CURVE('',#188,#186,#223,.T.);
#144=EDGE_CURVE('',#188,#189,#224,.T.);
#145=EDGE_CURVE('',#189,#187,#225,.T.);
#146=EDGE_CURVE('',#187,#190,#12,.T.);
#147=EDGE_CURVE('',#189,#191,#13,.T.);
#148=EDGE_CURVE('',#191,#190,#226,.T.);
#149=EDGE_CURVE('',#192,#190,#227,.T.);
#150=EDGE_CURVE('',#193,#191,#228,.T.);
#151=EDGE_CURVE('',#193,#192,#229,.T.);
#152=EDGE_CURVE('',#192,#194,#14,.T.);
#153=EDGE_CURVE('',#193,#195,#15,.T.);
#154=EDGE_CURVE('',#195,#194,#230,.T.);
#155=EDGE_CURVE('',#196,#194,#231,.T.);
#156=EDGE_CURVE('',#197,#195,#232,.T.);
#157=EDGE_CURVE('',#197,#196,#233,.T.);
#158=EDGE_CURVE('',#196,#198,#16,.T.);
#159=EDGE_CURVE('',#197,#199,#17,.T.);
#160=EDGE_CURVE('',#199,#198,#234,.T.);
#161=EDGE_CURVE('',#198,#200,#235,.T.);
#162=EDGE_CURVE('',#199,#201,#236,.T.);
#163=EDGE_CURVE('',#201,#200,#237,.T.);
#164=EDGE_CURVE('',#200,#186,#18,.T.);
#165=EDGE_CURVE('',#201,#188,#19,.T.);
#166=EDGE_CURVE('',#202,#202,#20,.F.);
#167=EDGE_CURVE('',#203,#203,#21,.F.);
#168=EDGE_CURVE('',#204,#204,#22,.F.);
#169=EDGE_CURVE('',#205,#205,#23,.F.);
#170=EDGE_CURVE('',#206,#206,#24,.F.);
#171=EDGE_CURVE('',#207,#207,#25,.T.);
#172=EDGE_CURVE('',#208,#208,#26,.T.);
#173=EDGE_CURVE('',#209,#209,#27,.T.);
#174=EDGE_CURVE('',#210,#210,#28,.T.);
#175=EDGE_CURVE('',#211,#211,#29,.T.);
#176=EDGE_CURVE('',#212,#212,#30,.T.);
#177=EDGE_CURVE('',#213,#213,#31,.F.);
#178=EDGE_CURVE('',#214,#214,#32,.T.);
#179=EDGE_CURVE('',#215,#215,#33,.F.);
#180=EDGE_CURVE('',#216,#216,#34,.T.);
#181=EDGE_CURVE('',#217,#217,#35,.F.);
#182=EDGE_CURVE('',#218,#218,#36,.T.);
#183=EDGE_CURVE('',#219,#219,#37,.F.);
#184=EDGE_CURVE('',#220,#220,#38,.T.);
#185=EDGE_CURVE('',#221,#221,#39,.F.);
#186=VERTEX_POINT('',#583);
#187=VERTEX_POINT('',#584);
#188=VERTEX_POINT('',#586);
#189=VERTEX_POINT('',#588);
#190=VERTEX_POINT('',#592);
#191=VERTEX_POINT('',#594);
#192=VERTEX_POINT('',#598);
#193=VERTEX_POINT('',#600);
#194=VERTEX_POINT('',#604);
#195=VERTEX_POINT('',#606);
#196=VERTEX_POINT('',#610);
#197=VERTEX_POINT('',#612);
#198=VERTEX_POINT('',#616);
#199=VERTEX_POINT('',#618);
#200=VERTEX_POINT('',#622);
#201=VERTEX_POINT('',#624);
#202=VERTEX_POINT('',#631);
#203=VERTEX_POINT('',#633);
#204=VERTEX_POINT('',#635);
#205=VERTEX_POINT('',#637);
#206=VERTEX_POINT('',#639);
#207=VERTEX_POINT('',#642);
#208=VERTEX_POINT('',#644);
#209=VERTEX_POINT('',#646);
#210=VERTEX_POINT('',#648);
#211=VERTEX_POINT('',#650);
#212=VERTEX_POINT('',#653);
#213=VERTEX_POINT('',#656);
#214=VERTEX_POINT('',#659);
#215=VERTEX_POINT('',#662);
#216=VERTEX_POINT('',#665);
#217=VERTEX_POINT('',#668);
#218=VERTEX_POINT('',#671);
#219=VERTEX_POINT('',#674);
#220=VERTEX_POINT('',#677);
#221=VERTEX_POINT('',#680);
#222=LINE('',#582,#238);
#223=LINE('',#585,#239);
#224=LINE('',#587,#240);
#225=LINE('',#589,#241);
#226=LINE('',#595,#242);
#227=LINE('',#597,#243);
#228=LINE('',#599,#244);
#229=LINE('',#601,#245);
#230=LINE('',#607,#246);
#231=LINE('',#609,#247);
#232=LINE('',#611,#248);
#233=LINE('',#613,#249);
#234=LINE('',#619,#250);
#235=LINE('',#621,#251);
#236=LINE('',#623,#252);
#237=LINE('',#625,#253);
#238=VECTOR('',#460,1.);
#239=VECTOR('',#461,1.);
#240=VECTOR('',#462,1.);
#241=VECTOR('',#463,1.);
#242=VECTOR('',#470,1.);
#243=VECTOR('',#473,1.);
#244=VECTOR('',#474,1.);
#245=VECTOR('',#475,1.);
#246=VECTOR('',#482,1.);
#247=VECTOR('',#485,1.);
#248=VECTOR('',#486,1.);
#249=VECTOR('',#487,1.);
#250=VECTOR('',#494,1.);
#251=VECTOR('',#497,1.);
#252=VECTOR('',#498,1.);
#253=VECTOR('',#499,1.);
#254=EDGE_LOOP('',(#54,#55,#56,#57));
#255=EDGE_LOOP('',(#58,#59,#60,#61));
#256=EDGE_LOOP('',(#62,#63,#64,#65));
#257=EDGE_LOOP('',(#66,#67,#68,#69));
#258=EDGE_LOOP('',(#70,#71,#72,#73));
#259=EDGE_LOOP('',(#74,#75,#76,#77));
#260=EDGE_LOOP('',(#78,#79,#80,#81));
#261=EDGE_LOOP('',(#82,#83,#84,#85));
#262=EDGE_LOOP('',(#86));
#263=EDGE_LOOP('',(#87));
#264=EDGE_LOOP('',(#88));
#265=EDGE_LOOP('',(#89));
#266=EDGE_LOOP('',(#90));
#267=EDGE_LOOP('',(#91,#92,#93,#94,#95,#96,#97,#98));
#268=EDGE_LOOP('',(#99));
#269=EDGE_LOOP('',(#100));
#270=EDGE_LOOP('',(#101));
#271=EDGE_LOOP('',(#102));
#272=EDGE_LOOP('',(#103));
#273=EDGE_LOOP('',(#104,#105,#106,#107,#108,#109,#110,#111));
#274=EDGE_LOOP('',(#112));
#275=EDGE_LOOP('',(#113));
#276=EDGE_LOOP('',(#114));
#277=EDGE_LOOP('',(#115));
#278=EDGE_LOOP('',(#116));
#279=EDGE_LOOP('',(#117));
#280=EDGE_LOOP('',(#118));
#281=EDGE_LOOP('',(#119));
#282=EDGE_LOOP('',(#120));
#283=EDGE_LOOP('',(#121));
#284=EDGE_LOOP('',(#122));
#285=EDGE_LOOP('',(#123));
#286=EDGE_LOOP('',(#124));
#287=EDGE_LOOP('',(#125));
#288=EDGE_LOOP('',(#126));
#289=EDGE_LOOP('',(#127));
#290=EDGE_LOOP('',(#128));
#291=EDGE_LOOP('',(#129));
#292=EDGE_LOOP('',(#130));
#293=EDGE_LOOP('',(#131));
#294=EDGE_LOOP('',(#132));
#295=EDGE_LOOP('',(#133));
#296=EDGE_LOOP('',(#134));
#297=EDGE_LOOP('',(#135));
#298=EDGE_LOOP('',(#136));
#299=EDGE_LOOP('',(#137));
#300=EDGE_LOOP('',(#138));
#301=EDGE_LOOP('',(#139));
#302=EDGE_LOOP('',(#140));
#303=EDGE_LOOP('',(#141));
#304=FACE_BOUND('',#254,.T.);
#305=FACE_BOUND('',#255,.T.);
#306=FACE_BOUND('',#256,.T.);
#307=FACE_BOUND('',#257,.T.);
#308=FACE_BOUND('',#258,.T.);
#309=FACE_BOUND('',#259,.T.);
#310=FACE_BOUND('',#260,.T.);
#311=FACE_BOUND('',#261,.T.);
#312=FACE_BOUND('',#262,.T.);
#313=FACE_BOUND('',#263,.T.);
#314=FACE_BOUND('',#264,.T.);
#315=FACE_BOUND('',#265,.T.);
#316=FACE_BOUND('',#266,.T.);
#317=FACE_BOUND('',#267,.T.);
#318=FACE_BOUND('',#268,.T.);
#319=FACE_BOUND('',#269,.T.);
#320=FACE_BOUND('',#270,.T.);
#321=FACE_BOUND('',#271,.T.);
#322=FACE_BOUND('',#272,.T.);
#323=FACE_BOUND('',#273,.T.);
#324=FACE_BOUND('',#274,.T.);
#325=FACE_BOUND('',#275,.T.);
#326=FACE_BOUND('',#276,.T.);
#327=FACE_BOUND('',#277,.T.);
#328=FACE_BOUND('',#278,.T.);
#329=FACE_BOUND('',#279,.T.);
#330=FACE_BOUND('',#280,.T.);
#331=FACE_BOUND('',#281,.T.);
#332=FACE_BOUND('',#282,.T.);
#333=FACE_BOUND('',#283,.T.);
#334=FACE_BOUND('',#284,.T.);
#335=FACE_BOUND('',#285,.T.);
#336=FACE_BOUND('',#286,.T.);
#337=FACE_BOUND('',#287,.T.);
#338=FACE_BOUND('',#288,.T.);
#339=FACE_BOUND('',#289,.T.);
#340=FACE_BOUND('',#290,.T.);
#341=FACE_BOUND('',#291,.T.);
#342=FACE_BOUND('',#292,.T.);
#343=FACE_BOUND('',#293,.T.);
#344=FACE_BOUND('',#294,.T.);
#345=FACE_BOUND('',#295,.T.);
#346=FACE_BOUND('',#296,.T.);
#347=FACE_BOUND('',#297,.T.);
#348=FACE_BOUND('',#298,.T.);
#349=FACE_BOUND('',#299,.T.);
#350=FACE_BOUND('',#300,.T.);
#351=FACE_BOUND('',#301,.T.);
#352=FACE_BOUND('',#302,.T.);
#353=FACE_BOUND('',#303,.T.);
#354=PLANE('',#403);
#355=PLANE('',#407);
#356=PLANE('',#411);
#357=PLANE('',#415);
#358=PLANE('',#419);
#359=PLANE('',#425);
#360=PLANE('',#433);
#361=PLANE('',#437);
#362=PLANE('',#441);
#363=PLANE('',#445);
#364=PLANE('',#449);
#365=ADVANCED_FACE('',(#304),#354,.T.);
#366=ADVANCED_FACE('',(#305),#40,.T.);
#367=ADVANCED_FACE('',(#306),#355,.F.);
#368=ADVANCED_FACE('',(#307),#41,.T.);
#369=ADVANCED_FACE('',(#308),#356,.F.);
#370=ADVANCED_FACE('',(#309),#42,.T.);
#371=ADVANCED_FACE('',(#310),#357,.T.);
#372=ADVANCED_FACE('',(#311),#43,.T.);
#373=ADVANCED_FACE('',(#312,#313,#314,#315,#316,#317),#358,.F.);
#374=ADVANCED_FACE('',(#318,#319,#320,#321,#322,#323),#359,.T.);
#375=ADVANCED_FACE('',(#324,#325),#44,.T.);
#376=ADVANCED_FACE('',(#326,#327),#360,.T.);
#377=ADVANCED_FACE('',(#328,#329),#45,.T.);
#378=ADVANCED_FACE('',(#330,#331),#361,.T.);
#379=ADVANCED_FACE('',(#332,#333),#46,.T.);
#380=ADVANCED_FACE('',(#334,#335),#362,.T.);
#381=ADVANCED_FACE('',(#336,#337),#47,.T.);
#382=ADVANCED_FACE('',(#338,#339),#363,.T.);
#383=ADVANCED_FACE('',(#340,#341),#48,.T.);
#384=ADVANCED_FACE('',(#342,#343),#364,.T.);
#385=ADVANCED_FACE('',(#344,#345),#49,.F.);
#386=ADVANCED_FACE('',(#346,#347),#50,.F.);
#387=ADVANCED_FACE('',(#348,#349),#51,.F.);
#388=ADVANCED_FACE('',(#350,#351),#52,.F.);
#389=ADVANCED_FACE('',(#352,#353),#53,.F.);
#390=CLOSED_SHELL('',(#365,#366,#367,#368,#369,#370,#371,#372,#373,#374,
#375,#376,#377,#378,#379,#380,#381,#382,#383,#384,#385,#386,#387,#388,#389));
#391=STYLED_ITEM('',(#392),#399);
#392=PRESENTATION_STYLE_ASSIGNMENT((#393));
#393=SURFACE_STYLE_USAGE(.BOTH.,#394);
#394=SURFACE_SIDE_STYLE('',(#395));
#395=SURFACE_STYLE_FILL_AREA(#396);
#396=FILL_AREA_STYLE('',(#397));
#397=FILL_AREA_STYLE_COLOUR('',#398);
#398=COLOUR_RGB('',0.647058823529412,0.647058823529412,0.647058823529412);
#399=MANIFOLD_SOLID_BREP('Part 2',#390);
#400=SHAPE_DEFINITION_REPRESENTATION(#692,#401);
#401=SHAPE_REPRESENTATION('Part 2',(#402),#687);
#402=AXIS2_PLACEMENT_3D('',#580,#456,#457);
#403=AXIS2_PLACEMENT_3D('',#581,#458,#459);
#404=AXIS2_PLACEMENT_3D('',#590,#464,#465);
#405=AXIS2_PLACEMENT_3D('',#591,#466,#467);
#406=AXIS2_PLACEMENT_3D('',#593,#468,#469);
#407=AXIS2_PLACEMENT_3D('',#596,#471,#472);
#408=AXIS2_PLACEMENT_3D('',#602,#476,#477);
#409=AXIS2_PLACEMENT_3D('',#603,#478,#479);
#410=AXIS2_PLACEMENT_3D('',#605,#480,#481);
#411=AXIS2_PLACEMENT_3D('',#608,#483,#484);
#412=AXIS2_PLACEMENT_3D('',#614,#488,#489);
#413=AXIS2_PLACEMENT_3D('',#615,#490,#491);
#414=AXIS2_PLACEMENT_3D('',#617,#492,#493);
#415=AXIS2_PLACEMENT_3D('',#620,#495,#496);
#416=AXIS2_PLACEMENT_3D('',#626,#500,#501);
#417=AXIS2_PLACEMENT_3D('',#627,#502,#503);
#418=AXIS2_PLACEMENT_3D('',#628,#504,#505);
#419=AXIS2_PLACEMENT_3D('',#629,#506,#507);
#420=AXIS2_PLACEMENT_3D('',#630,#508,#509);
#421=AXIS2_PLACEMENT_3D('',#632,#510,#511);
#422=AXIS2_PLACEMENT_3D('',#634,#512,#513);
#423=AXIS2_PLACEMENT_3D('',#636,#514,#515);
#424=AXIS2_PLACEMENT_3D('',#638,#516,#517);
#425=AXIS2_PLACEMENT_3D('',#640,#518,#519);
#426=AXIS2_PLACEMENT_3D('',#641,#520,#521);
#427=AXIS2_PLACEMENT_3D('',#643,#522,#523);
#428=AXIS2_PLACEMENT_3D('',#645,#524,#525);
#429=AXIS2_PLACEMENT_3D('',#647,#526,#527);
#430=AXIS2_PLACEMENT_3D('',#649,#528,#529);
#431=AXIS2_PLACEMENT_3D('',#651,#530,#531);
#432=AXIS2_PLACEMENT_3D('',#652,#532,#533);
#433=AXIS2_PLACEMENT_3D('',#654,#534,#535);
#434=AXIS2_PLACEMENT_3D('',#655,#536,#537);
#435=AXIS2_PLACEMENT_3D('',#657,#538,#539);
#436=AXIS2_PLACEMENT_3D('',#658,#540,#541);
#437=AXIS2_PLACEMENT_3D('',#660,#542,#543);
#438=AXIS2_PLACEMENT_3D('',#661,#544,#545);
#439=AXIS2_PLACEMENT_3D('',#663,#546,#547);
#440=AXIS2_PLACEMENT_3D('',#664,#548,#549);
#441=AXIS2_PLACEMENT_3D('',#666,#550,#551);
#442=AXIS2_PLACEMENT_3D('',#667,#552,#553);
#443=AXIS2_PLACEMENT_3D('',#669,#554,#555);
#444=AXIS2_PLACEMENT_3D('',#670,#556,#557);
#445=AXIS2_PLACEMENT_3D('',#672,#558,#559);
#446=AXIS2_PLACEMENT_3D('',#673,#560,#561);
#447=AXIS2_PLACEMENT_3D('',#675,#562,#563);
#448=AXIS2_PLACEMENT_3D('',#676,#564,#565);
#449=AXIS2_PLACEMENT_3D('',#678,#566,#567);
#450=AXIS2_PLACEMENT_3D('',#679,#568,#569);
#451=AXIS2_PLACEMENT_3D('',#681,#570,#571);
#452=AXIS2_PLACEMENT_3D('',#682,#572,#573);
#453=AXIS2_PLACEMENT_3D('',#683,#574,#575);
#454=AXIS2_PLACEMENT_3D('',#684,#576,#577);
#455=AXIS2_PLACEMENT_3D('',#685,#578,#579);
#456=DIRECTION('',(0.,0.,1.));
#457=DIRECTION('',(1.,0.,0.));
#458=DIRECTION('',(-1.,0.,0.));
#459=DIRECTION('',(0.,0.,1.));
#460=DIRECTION('',(0.,0.,-1.));
#461=DIRECTION('',(0.,-1.,0.));
#462=DIRECTION('',(0.,0.,-1.));
#463=DIRECTION('',(0.,-1.,0.));
#464=DIRECTION('',(0.,-1.,0.));
#465=DIRECTION('',(0.,0.,-1.));
#466=DIRECTION('',(0.,-1.,0.));
#467=DIRECTION('',(0.,0.,-1.));
#468=DIRECTION('',(0.,-1.,0.));
#469=DIRECTION('',(0.,0.,-1.));
#470=DIRECTION('',(0.,-1.,0.));
#471=DIRECTION('',(-7.11681426041767E-17,0.,1.));
#472=DIRECTION('',(1.,0.,7.11681426041767E-17));
#473=DIRECTION('',(-1.,0.,-7.11681426041767E-17));
#474=DIRECTION('',(-1.,0.,-7.11681426041767E-17));
#475=DIRECTION('',(0.,-1.,0.));
#476=DIRECTION('',(0.,-1.,0.));
#477=DIRECTION('',(0.,0.,-1.));
#478=DIRECTION('',(0.,-1.,0.));
#479=DIRECTION('',(0.,0.,-1.));
#480=DIRECTION('',(0.,-1.,0.));
#481=DIRECTION('',(0.,0.,-1.));
#482=DIRECTION('',(0.,-1.,0.));
#483=DIRECTION('',(-1.,0.,-3.10696741965995E-16));
#484=DIRECTION('',(-3.10696741965995E-16,0.,1.));
#485=DIRECTION('',(3.10696741965995E-16,0.,-1.));
#486=DIRECTION('',(3.10696741965995E-16,0.,-1.));
#487=DIRECTION('',(0.,-1.,0.));
#488=DIRECTION('',(0.,-1.,0.));
#489=DIRECTION('',(0.,0.,-1.));
#490=DIRECTION('',(0.,-1.,0.));
#491=DIRECTION('',(0.,0.,-1.));
#492=DIRECTION('',(0.,-1.,0.));
#493=DIRECTION('',(0.,0.,-1.));
#494=DIRECTION('',(0.,-1.,0.));
#495=DIRECTION('',(-7.11681426041767E-17,0.,1.));
#496=DIRECTION('',(1.,0.,7.11681426041767E-17));
#497=DIRECTION('',(-1.,0.,-7.11681426041767E-17));
#498=DIRECTION('',(-1.,0.,-7.11681426041767E-17));
#499=DIRECTION('',(0.,-1.,0.));
#500=DIRECTION('',(0.,-1.,0.));
#501=DIRECTION('',(0.,0.,-1.));
#502=DIRECTION('',(0.,-1.,0.));
#503=DIRECTION('',(0.,0.,-1.));
#504=DIRECTION('',(0.,-1.,0.));
#505=DIRECTION('',(0.,0.,-1.));
#506=DIRECTION('',(0.,-1.,0.));
#507=DIRECTION('',(1.,0.,0.));
#508=DIRECTION('',(0.,-1.,0.));
#509=DIRECTION('',(0.,0.,-1.));
#510=DIRECTION('',(0.,-1.,0.));
#511=DIRECTION('',(0.,0.,-1.));
#512=DIRECTION('',(0.,-1.,0.));
#513=DIRECTION('',(0.,0.,-1.));
#514=DIRECTION('',(0.,-1.,0.));
#515=DIRECTION('',(0.,0.,-1.));
#516=DIRECTION('',(0.,-1.,0.));
#517=DIRECTION('',(0.,0.,-1.));
#518=DIRECTION('',(0.,-1.,0.));
#519=DIRECTION('',(1.,0.,0.));
#520=DIRECTION('',(0.,-1.,0.));
#521=DIRECTION('',(0.,0.,-1.));
#522=DIRECTION('',(0.,-1.,0.));
#523=DIRECTION('',(0.,0.,-1.));
#524=DIRECTION('',(0.,-1.,0.));
#525=DIRECTION('',(0.,0.,-1.));
#526=DIRECTION('',(0.,-1.,0.));
#527=DIRECTION('',(0.,0.,-1.));
#528=DIRECTION('',(0.,-1.,0.));
#529=DIRECTION('',(0.,0.,-1.));
#530=DIRECTION('',(0.,1.,0.));
#531=DIRECTION('',(0.,0.,1.));
#532=DIRECTION('',(0.,-1.,0.));
#533=DIRECTION('',(0.,0.,-1.));
#534=DIRECTION('',(0.,-1.,0.));
#535=DIRECTION('',(1.,0.,0.));
#536=DIRECTION('',(0.,-1.,0.));
#537=DIRECTION('',(0.,0.,-1.));
#538=DIRECTION('',(0.,1.,0.));
#539=DIRECTION('',(0.,0.,1.));
#540=DIRECTION('',(0.,-1.,0.));
#541=DIRECTION('',(0.,0.,-1.));
#542=DIRECTION('',(0.,-1.,0.));
#543=DIRECTION('',(1.,0.,0.));
#544=DIRECTION('',(0.,-1.,0.));
#545=DIRECTION('',(0.,0.,-1.));
#546=DIRECTION('',(0.,1.,0.));
#547=DIRECTION('',(0.,0.,1.));
#548=DIRECTION('',(0.,-1.,0.));
#549=DIRECTION('',(0.,0.,-1.));
#550=DIRECTION('',(0.,-1.,0.));
#551=DIRECTION('',(1.,0.,0.));
#552=DIRECTION('',(0.,-1.,0.));
#553=DIRECTION('',(0.,0.,-1.));
#554=DIRECTION('',(0.,1.,0.));
#555=DIRECTION('',(0.,0.,1.));
#556=DIRECTION('',(0.,-1.,0.));
#557=DIRECTION('',(0.,0.,-1.));
#558=DIRECTION('',(0.,-1.,0.));
#559=DIRECTION('',(1.,0.,0.));
#560=DIRECTION('',(0.,-1.,0.));
#561=DIRECTION('',(0.,0.,-1.));
#562=DIRECTION('',(0.,1.,0.));
#563=DIRECTION('',(0.,0.,1.));
#564=DIRECTION('',(0.,-1.,0.));
#565=DIRECTION('',(0.,0.,-1.));
#566=DIRECTION('',(0.,-1.,0.));
#567=DIRECTION('',(1.,0.,0.));
#568=DIRECTION('',(0.,-1.,0.));
#569=DIRECTION('',(0.,0.,-1.));
#570=DIRECTION('',(0.,1.,0.));
#571=DIRECTION('',(0.,0.,1.));
#572=DIRECTION('',(0.,1.,0.));
#573=DIRECTION('',(0.,0.,1.));
#574=DIRECTION('',(0.,1.,0.));
#575=DIRECTION('',(0.,0.,1.));
#576=DIRECTION('',(0.,1.,0.));
#577=DIRECTION('',(0.,0.,1.));
#578=DIRECTION('',(0.,1.,0.));
#579=DIRECTION('',(0.,0.,1.));
#580=CARTESIAN_POINT('',(0.,0.,0.));
#581=CARTESIAN_POINT('',(-0.0615335782617331,0.013,-0.00503023667352953));
#582=CARTESIAN_POINT('',(-0.0615335782617331,0.003,-0.00503023667352953));
#583=CARTESIAN_POINT('',(-0.0615335782617331,0.003,0.0284697633264704));
#584=CARTESIAN_POINT('',(-0.0615335782617331,0.003,-0.0385302366735295));
#585=CARTESIAN_POINT('',(-0.0615335782617331,0.013,0.0284697633264704));
#586=CARTESIAN_POINT('',(-0.0615335782617331,0.013,0.0284697633264704));
#587=CARTESIAN_POINT('',(-0.0615335782617331,0.013,-0.00503023667352953));
#588=CARTESIAN_POINT('',(-0.0615335782617331,0.013,-0.0385302366735295));
#589=CARTESIAN_POINT('',(-0.0615335782617331,0.013,-0.0385302366735295));
#590=CARTESIAN_POINT('',(-0.0515335782617331,0.013,-0.0385302366735295));
#591=CARTESIAN_POINT('',(-0.0515335782617331,0.003,-0.0385302366735295));
#592=CARTESIAN_POINT('',(-0.0515335782617331,0.003,-0.0485302366735295));
#593=CARTESIAN_POINT('',(-0.0515335782617331,0.013,-0.0385302366735295));
#594=CARTESIAN_POINT('',(-0.0515335782617331,0.013,-0.0485302366735295));
#595=CARTESIAN_POINT('',(-0.0515335782617331,0.013,-0.0485302366735295));
#596=CARTESIAN_POINT('',(-0.00278357826173305,0.013,-0.0485302366735295));
#597=CARTESIAN_POINT('',(-0.00278357826173305,0.003,-0.0485302366735295));
#598=CARTESIAN_POINT('',(0.045966421738267,0.003,-0.0485302366735295));
#599=CARTESIAN_POINT('',(-0.00278357826173305,0.013,-0.0485302366735295));
#600=CARTESIAN_POINT('',(0.045966421738267,0.013,-0.0485302366735295));
#601=CARTESIAN_POINT('',(0.045966421738267,0.013,-0.0485302366735295));
#602=CARTESIAN_POINT('',(0.045966421738267,0.013,-0.0385302366735295));
#603=CARTESIAN_POINT('',(0.045966421738267,0.003,-0.0385302366735295));
#604=CARTESIAN_POINT('',(0.055966421738267,0.003,-0.0385302366735295));
#605=CARTESIAN_POINT('',(0.045966421738267,0.013,-0.0385302366735295));
#606=CARTESIAN_POINT('',(0.055966421738267,0.013,-0.0385302366735295));
#607=CARTESIAN_POINT('',(0.055966421738267,0.013,-0.0385302366735295));
#608=CARTESIAN_POINT('',(0.055966421738267,0.013,-0.00503023667352951));
#609=CARTESIAN_POINT('',(0.055966421738267,0.003,-0.00503023667352951));
#610=CARTESIAN_POINT('',(0.055966421738267,0.003,0.0284697633264705));
#611=CARTESIAN_POINT('',(0.055966421738267,0.013,-0.00503023667352951));
#612=CARTESIAN_POINT('',(0.055966421738267,0.013,0.0284697633264705));
#613=CARTESIAN_POINT('',(0.055966421738267,0.013,0.0284697633264705));
#614=CARTESIAN_POINT('',(0.0459664217382669,0.013,0.0284697633264705));
#615=CARTESIAN_POINT('',(0.0459664217382669,0.003,0.0284697633264705));
#616=CARTESIAN_POINT('',(0.0459664217382669,0.003,0.0384697633264705));
#617=CARTESIAN_POINT('',(0.0459664217382669,0.013,0.0284697633264705));
#618=CARTESIAN_POINT('',(0.0459664217382669,0.013,0.0384697633264705));
#619=CARTESIAN_POINT('',(0.0459664217382669,0.013,0.0384697633264705));
#620=CARTESIAN_POINT('',(-0.00278357826173306,0.013,0.0384697633264705));
#621=CARTESIAN_POINT('',(-0.00278357826173306,0.003,0.0384697633264705));
#622=CARTESIAN_POINT('',(-0.0515335782617331,0.003,0.0384697633264705));
#623=CARTESIAN_POINT('',(-0.00278357826173306,0.013,0.0384697633264705));
#624=CARTESIAN_POINT('',(-0.0515335782617331,0.013,0.0384697633264705));
#625=CARTESIAN_POINT('',(-0.0515335782617331,0.013,0.0384697633264705));
#626=CARTESIAN_POINT('',(-0.0515335782617331,0.013,0.0284697633264704));
#627=CARTESIAN_POINT('',(-0.0515335782617331,0.003,0.0284697633264704));
#628=CARTESIAN_POINT('',(-0.0515335782617331,0.013,0.0284697633264704));
#629=CARTESIAN_POINT('',(-0.00278357826173306,0.013,-0.00503023667352951));
#630=CARTESIAN_POINT('',(-0.00280357826173306,0.013,-0.00203023667352951));
#631=CARTESIAN_POINT('',(-0.00280357826173306,0.013,-0.00413023667352951));
#632=CARTESIAN_POINT('',(0.040966421738267,0.013,-0.0335302366735295));
#633=CARTESIAN_POINT('',(0.040966421738267,0.013,-0.0356302366735295));
#634=CARTESIAN_POINT('',(-0.046533578261733,0.013,-0.0335302366735295));
#635=CARTESIAN_POINT('',(-0.046533578261733,0.013,-0.0356302366735295));
#636=CARTESIAN_POINT('',(-0.0465335782617331,0.013,0.0234697633264705));
#637=CARTESIAN_POINT('',(-0.0465335782617331,0.013,0.0213697633264705));
#638=CARTESIAN_POINT('',(0.040966421738267,0.013,0.0234697633264705));
#639=CARTESIAN_POINT('',(0.040966421738267,0.013,0.0213697633264705));
#640=CARTESIAN_POINT('',(-0.00278357826173306,0.003,-0.00503023667352951));
#641=CARTESIAN_POINT('',(-0.00280357826173306,0.003,-0.00203023667352951));
#642=CARTESIAN_POINT('',(-0.00280357826173306,0.003,-0.00653023667352951));
#643=CARTESIAN_POINT('',(0.040966421738267,0.003,0.0234697633264705));
#644=CARTESIAN_POINT('',(0.040966421738267,0.003,0.0189697633264705));
#645=CARTESIAN_POINT('',(-0.0465335782617331,0.003,0.0234697633264705));
#646=CARTESIAN_POINT('',(-0.0465335782617331,0.003,0.0189697633264705));
#647=CARTESIAN_POINT('',(-0.0465335782617331,0.003,-0.0335302366735295));
#648=CARTESIAN_POINT('',(-0.0465335782617331,0.003,-0.0380302366735295));
#649=CARTESIAN_POINT('',(0.040966421738267,0.003,-0.0335302366735295));
#650=CARTESIAN_POINT('',(0.040966421738267,0.003,-0.0380302366735295));
#651=CARTESIAN_POINT('',(0.040966421738267,0.001,-0.0335302366735295));
#652=CARTESIAN_POINT('',(0.040966421738267,0.001,-0.0335302366735295));
#653=CARTESIAN_POINT('',(0.040966421738267,0.001,-0.0380302366735295));
#654=CARTESIAN_POINT('',(-0.00278357826173305,0.001,-0.00503023667352951));
#655=CARTESIAN_POINT('',(0.040966421738267,0.001,-0.0335302366735295));
#656=CARTESIAN_POINT('',(0.040966421738267,0.001,-0.0356302366735295));
#657=CARTESIAN_POINT('',(-0.0465335782617331,0.001,-0.0335302366735295));
#658=CARTESIAN_POINT('',(-0.0465335782617331,0.001,-0.0335302366735295));
#659=CARTESIAN_POINT('',(-0.0465335782617331,0.001,-0.0380302366735295));
#660=CARTESIAN_POINT('',(-0.00278357826173305,0.001,-0.00503023667352951));
#661=CARTESIAN_POINT('',(-0.046533578261733,0.001,-0.0335302366735295));
#662=CARTESIAN_POINT('',(-0.046533578261733,0.001,-0.0356302366735295));
#663=CARTESIAN_POINT('',(-0.0465335782617331,0.001,0.0234697633264705));
#664=CARTESIAN_POINT('',(-0.0465335782617331,0.001,0.0234697633264705));
#665=CARTESIAN_POINT('',(-0.0465335782617331,0.001,0.0189697633264705));
#666=CARTESIAN_POINT('',(-0.00278357826173305,0.001,-0.00503023667352951));
#667=CARTESIAN_POINT('',(-0.0465335782617331,0.001,0.0234697633264705));
#668=CARTESIAN_POINT('',(-0.0465335782617331,0.001,0.0213697633264705));
#669=CARTESIAN_POINT('',(0.040966421738267,0.001,0.0234697633264705));
#670=CARTESIAN_POINT('',(0.040966421738267,0.001,0.0234697633264705));
#671=CARTESIAN_POINT('',(0.040966421738267,0.001,0.0189697633264705));
#672=CARTESIAN_POINT('',(-0.00278357826173305,0.001,-0.00503023667352951));
#673=CARTESIAN_POINT('',(0.040966421738267,0.001,0.0234697633264705));
#674=CARTESIAN_POINT('',(0.040966421738267,0.001,0.0213697633264705));
#675=CARTESIAN_POINT('',(-0.00280357826173306,0.001,-0.00203023667352951));
#676=CARTESIAN_POINT('',(-0.00280357826173306,0.001,-0.00203023667352951));
#677=CARTESIAN_POINT('',(-0.00280357826173306,0.001,-0.00653023667352951));
#678=CARTESIAN_POINT('',(-0.00278357826173305,0.001,-0.00503023667352951));
#679=CARTESIAN_POINT('',(-0.00280357826173306,0.001,-0.00203023667352951));
#680=CARTESIAN_POINT('',(-0.00280357826173306,0.001,-0.00413023667352951));
#681=CARTESIAN_POINT('',(-0.00280357826173306,0.,-0.00203023667352951));
#682=CARTESIAN_POINT('',(0.040966421738267,0.,0.0234697633264705));
#683=CARTESIAN_POINT('',(-0.0465335782617331,0.,0.0234697633264705));
#684=CARTESIAN_POINT('',(-0.046533578261733,0.,-0.0335302366735295));
#685=CARTESIAN_POINT('',(0.040966421738267,0.,-0.0335302366735295));
#686=MECHANICAL_DESIGN_GEOMETRIC_PRESENTATION_REPRESENTATION('',(#391),
#687);
#687=(
GEOMETRIC_REPRESENTATION_CONTEXT(3)
GLOBAL_UNCERTAINTY_ASSIGNED_CONTEXT((#688))
GLOBAL_UNIT_ASSIGNED_CONTEXT((#691,#690,#689))
REPRESENTATION_CONTEXT('Part 2','TOP_LEVEL_ASSEMBLY_PART')
);
#688=UNCERTAINTY_MEASURE_WITH_UNIT(LENGTH_MEASURE(1.E-8),#691,
'DISTANCE_ACCURACY_VALUE','Maximum Tolerance applied to model');
#689=(
NAMED_UNIT(*)
SI_UNIT($,.STERADIAN.)
SOLID_ANGLE_UNIT()
);
#690=(
NAMED_UNIT(*)
PLANE_ANGLE_UNIT()
SI_UNIT($,.RADIAN.)
);
#691=(
LENGTH_UNIT()
NAMED_UNIT(*)
SI_UNIT($,.METRE.)
);
#692=PRODUCT_DEFINITION_SHAPE('','',#693);
#693=PRODUCT_DEFINITION('','',#695,#694);
#694=PRODUCT_DEFINITION_CONTEXT('',#701,'design');
#695=PRODUCT_DEFINITION_FORMATION_WITH_SPECIFIED_SOURCE('','',#697,
 .NOT_KNOWN.);
#696=PRODUCT_RELATED_PRODUCT_CATEGORY('','',(#697));
#697=PRODUCT('Part 2','Part 2','Part 2',(#699));
#698=PRODUCT_CATEGORY('','');
#699=PRODUCT_CONTEXT('',#701,'mechanical');
#700=APPLICATION_PROTOCOL_DEFINITION('international standard',
'ap242_managed_model_based_3d_engineering',2020,#701);
#701=APPLICATION_CONTEXT('managed model based 3d engineering');
ENDSEC;
END-ISO-10303-21;
